<?xml version="1.0" standalone="no"?> <!DOCTYPE svg PUBLIC "-//W3C//DTD SVG 1.0//EN" "http://www.w3.org/TR/2001/REC-SVG-20010904/DTD/svg10.dtd" > <svg xmlns="http://www.w3.org/2000/svg" width="100%" height="100%">
<defs >
<font id="gothamlight" horiz-adv-x="1015" ><font-face
    font-family="Gotham Light"
    units-per-em="2048"
    panose-1="0 0 0 0 0 0 0 0 0 0"
    ascent="1638"
    descent="-410"
    alphabetic="0" />
<missing-glyph horiz-adv-x="1024" d="M0 -410V1638H1024V-410H0ZM145 1536L512 737L879 1536H145ZM102 -156L455 614L102 1384V-156ZM922 1384L569 614L922 -156V1384ZM512 492L145 -307H879L512 492Z" />
<glyph unicode=" " glyph-name="space" horiz-adv-x="614" />
<glyph unicode="!" glyph-name="exclam" horiz-adv-x="516" d="M229 375L199 1290V1434H317V1290L287 375H229ZM190 0V174H326V0H190Z" />
<glyph unicode="&quot;" glyph-name="quotedbl" horiz-adv-x="839" d="M508 913L580 1434H713V1423L567 913H508ZM139 913L211 1434H344V1423L199 913H139Z" />
<glyph unicode="#" glyph-name="numbersign" horiz-adv-x="1433" d="M1249 479V383H969L903 0H805L870 383H446L381 0H283L348 383H100V479H365L446 963H182V1059H463L528 1434H627L563 1059H987L1051 1434H1149L1083 1059H1331V963H1067L985 479H1249ZM545 963L463
479H887L969 963H545Z" />
<glyph unicode="$" glyph-name="dollar" horiz-adv-x="1294" d="M608 -201V2Q343 25 123 221L190 301Q288 208 388 157T612 94V678Q382 728 280 818T178 1063Q178 1219 299 1324T608 1434V1552H707V1430Q821 1419 913 1379T1102 1262L1034 1182Q880 1316 702 1337V762Q935
713 1040 622T1145 379Q1145 217 1023 112T707 0V-201H608ZM1040 371Q1040 445 1013 494T910 585T702 657V92Q854 95 947 173T1040 371ZM283 1071Q283 998 308 949T407 857T612 782V1341Q466 1338 375 1261T283 1071Z" />
<glyph unicode="%" glyph-name="percent" horiz-adv-x="1687" d="M426 717Q289 717 201 824T113 1079V1083Q113 1180 152 1263T264 1398T430 1450Q521 1450 593 1399T704 1265T743 1087V1083Q743 934 654 826T426 717ZM637 1079V1083Q637 1202 575 1282T426 1362Q337
1362 278 1282T219 1087V1083Q219 964 280 885T430 805Q520 805 578 884T637 1079ZM805 737L1315 1434H1425L879 690L373 0H262L805 737ZM1257 -16Q1120 -16 1032 91T944 346V350Q944 500 1033 608T1262 717Q1353 717 1425 666T1536 532T1575 354V350Q1575 201
1486 93T1257 -16ZM1262 72Q1351 72 1409 151T1468 346V350Q1468 469 1406 549T1257 629Q1168 629 1110 549T1051 354V350Q1051 230 1112 151T1262 72Z" />
<glyph unicode="&amp;" glyph-name="ampersand" horiz-adv-x="1425" d="M1274 -29L1026 227Q814 -20 541 -20Q351 -20 226 91T100 377V381Q100 522 196 628T471 801Q386 896 349 969T311 1128V1133Q311 1272 412 1365T670 1458Q809 1458 904 1368T999 1147V1143Q999
894 647 772L1024 385Q1121 520 1210 733L1307 694Q1202 460 1094 313L1358 41L1274 -29ZM584 838Q893 936 893 1139V1143Q893 1238 828 1303T666 1368Q558 1368 488 1302T418 1137V1133Q418 1065 453 1002T584 838ZM543 72Q767 72 958 297L535 735Q370 679 289
587T207 385V381Q207 249 302 161T543 72Z" />
<glyph unicode="&apos;" glyph-name="quotesingle" horiz-adv-x="471" d="M139 913L211 1434H344V1423L199 913H139Z" />
<glyph unicode="(" glyph-name="parenleft" horiz-adv-x="880" d="M713 -289Q439 -133 292 90T145 588Q145 862 292 1085T713 1464L756 1397Q252 1087 252 588Q252 87 756 -221L713 -289Z" />
<glyph unicode=")" glyph-name="parenright" horiz-adv-x="880" d="M168 -289L125 -221Q629 87 629 588Q629 1087 125 1397L168 1464Q441 1309 588 1086T735 588Q735 313 589 90T168 -289Z" />
<glyph unicode="*" glyph-name="asterisk" horiz-adv-x="880" d="M397 831L416 1092L199 944L154 1020L395 1135L154 1249L199 1325L416 1178L397 1438H483L465 1178L682 1325L727 1249L485 1135L727 1020L682 944L465 1092L483 831H397Z" />
<glyph unicode="+" glyph-name="plus" horiz-adv-x="1269" d="M584 231V672H139V770H584V1210H686V770H1130V672H686V231H584Z" />
<glyph unicode="," glyph-name="comma" horiz-adv-x="471" d="M133 -219L109 -168Q175 -134 201 -96T223 0H168V174H303V23Q303 -72 264 -128T133 -219Z" />
<glyph unicode="-" glyph-name="hyphen" horiz-adv-x="835" d="M143 551V666H692V551H143Z" />
<glyph unicode="." glyph-name="period" horiz-adv-x="471" d="M168 0V174H303V0H168Z" />
<glyph unicode="/" glyph-name="slash" horiz-adv-x="1024" d="M-37 -262L930 1634H1030L63 -262H-37Z" />
<glyph unicode="0" glyph-name="zero" horiz-adv-x="1454" d="M858 -25T725 -25T480 34T292 195T175 431T133 713V717Q133 916 205 1083T415 1354T729 1458Q862 1458 974 1399T1162 1238T1279 1003T1321 721V717Q1321 569 1279 435T1161 198T972 36ZM621 72T729
72T929 125T1081 268T1176 472T1210 713V717Q1210 842 1176 958T1080 1164T926 1308T725 1362Q638 1362 561 1328T427 1233T328 1091T265 916T244 721V717Q244 592 278 476T374 270T528 126Z" />
<glyph unicode="1" glyph-name="one" horiz-adv-x="686" d="M367 0V1333L90 1239L61 1323L389 1444H471V0H367Z" />
<glyph unicode="2" glyph-name="two" horiz-adv-x="1208" d="M98 0V80L633 563Q810 725 880 832T950 1053Q950 1189 855 1274T627 1360Q495 1360 398 1295T207 1094L127 1147Q177 1223 225 1276T333 1371T469 1433T637 1454Q820 1454 941 1342T1063 1061V1057Q1063
960 1024 874T912 705T705 500L266 102H1077V0H98Z" />
<glyph unicode="3" glyph-name="three" horiz-adv-x="1249" d="M637 -25Q469 -25 336 44T111 233L193 301Q373 72 639 72Q786 72 889 161T993 389V393Q993 540 870 622T547 705H469L442 764L936 1333H184V1434H1081V1358L596 803Q701 796 790 769T951 693T1063
568T1104 397V393Q1104 272 1039 175T868 27T637 -25Z" />
<glyph unicode="4" glyph-name="four" horiz-adv-x="1359" d="M911 0V350H135L98 430L918 1444H1014V442H1247V350H1014V0H911ZM227 442H911V1290L227 442Z" />
<glyph unicode="5" glyph-name="five" horiz-adv-x="1239" d="M618 -25Q480 -25 349 39T117 207L193 283Q404 72 623 72Q791 72 899 175T1008 432V436Q1008 585 898 680T614 776Q456 776 291 686L209 739L250 1434H1055V1331H344L309 795Q466 872 627 872Q764
872 876 818T1053 665T1118 440V436Q1118 234 977 105T618 -25Z" />
<glyph unicode="6" glyph-name="six" horiz-adv-x="1314" d="M678 -25Q570 -25 475 14T313 119Q219 214 175 339T131 678V682Q131 898 201 1074T406 1354T715 1458Q832 1458 930 1416T1128 1292L1061 1210Q975 1287 890 1324T707 1362Q563 1362 455 1268T290 1005T238
618Q392 885 686 885Q816 885 928 831T1110 676T1180 451V446Q1180 313 1114 205T933 36T678 -25ZM686 72Q856 72 962 179T1069 442V446Q1069 595 959 693T680 791Q594 791 519 761T392 680T311 566T281 436V432Q281 278 397 175T686 72Z" />
<glyph unicode="7" glyph-name="seven" horiz-adv-x="1202" d="M319 0L971 1331H139V1434H1090V1356L436 0H319Z" />
<glyph unicode="8" glyph-name="eight" horiz-adv-x="1290" d="M794 -20T645 -20T375 30T183 173T113 383V387Q113 508 201 601T430 741Q312 790 237 873T162 1075V1079Q162 1187 231 1274T410 1408T645 1454T879 1408T1058 1275T1128 1079V1075Q1128 956 1053
873T860 741Q1001 695 1089 602T1178 387V383Q1178 266 1108 174T916 31ZM489 780T645 780T909 863T1018 1075V1079Q1018 1200 911 1279T645 1358T380 1279T272 1079V1075Q272 946 380 863ZM454 76T645 76T951 164T1067 379V383Q1067 515 945 602T645 690T346 603T223
383V379Q223 252 338 164Z" />
<glyph unicode="9" glyph-name="nine" horiz-adv-x="1314" d="M600 -25Q476 -25 372 22T168 154L236 236Q417 72 602 72Q745 72 856 166T1026 430T1077 811Q923 535 631 535Q416 535 276 661T135 973V977Q135 1179 277 1318T639 1458T1004 1313Q1092 1224 1138
1092T1184 754V750Q1184 528 1108 351T899 74T600 -25ZM635 629Q723 629 799 660T926 743T1005 860T1034 993V997Q1034 1151 919 1256T627 1362Q513 1362 425 1308T291 1168T246 981V977Q246 826 355 728T635 629Z" />
<glyph unicode=":" glyph-name="colon" horiz-adv-x="491" d="M178 870V1044H313V870H178ZM178 0V174H313V0H178Z" />
<glyph unicode=";" glyph-name="semicolon" horiz-adv-x="491" d="M178 870V1044H313V870H178ZM143 -219L119 -168Q186 -134 212 -96T233 0H178V174H313V23Q313 -72 274 -128T143 -219Z" />
<glyph unicode="&lt;" glyph-name="less" horiz-adv-x="1269" d="M1079 186L129 680V762L1079 1255V1145L254 723L1079 297V186Z" />
<glyph unicode="=" glyph-name="equal" horiz-adv-x="1269" d="M170 899V1004H1100V899H170ZM170 438V543H1100V438H170Z" />
<glyph unicode="&gt;" glyph-name="greater" horiz-adv-x="1269" d="M190 186V297L1016 719L190 1145V1255L1141 762V680L190 186Z" />
<glyph unicode="?" glyph-name="question" horiz-adv-x="1093" d="M469 375L442 707L453 717Q654 721 766 808T879 1044V1049Q879 1179 786 1268T539 1358Q315 1358 143 1147L70 1208Q164 1326 276 1389T543 1452Q741 1452 864 1337T987 1053V1049Q987 868 865
761T553 631L535 375H469ZM434 0V174H569V0H434Z" />
<glyph unicode="@" glyph-name="at" horiz-adv-x="2007" d="M1022 -332Q893 -332 773 -300T552 -209T369 -69T229 112T141 325T109 561Q109 706 153 842T280 1089T473 1283T720 1412T1006 1458Q1190 1458 1356 1392T1640 1215T1828 956T1898 647Q1898 521 1865
423T1777 267T1658 180T1526 150Q1419 150 1347 200T1247 340Q1175 251 1092 201T897 150Q745 150 640 252T535 514Q535 620 577 716T687 879T840 985T1012 1024Q1126 1024 1201 973T1317 842L1346 995L1444 983L1368 551Q1350 443 1350 403Q1350 316 1398 270T1534
223Q1590 223 1641 248T1735 322T1803 456T1829 647Q1829 787 1766 922T1595 1161T1332 1329T1006 1393Q832 1393 678 1327T414 1149T242 884T178 561Q178 391 241 239T414 -25T682 -201T1022 -266Q1171 -266 1291 -232T1534 -127L1565 -178Q1312 -332 1022 -332ZM913
246Q1007 246 1093 302T1230 450T1282 641Q1282 763 1205 844T1012 926Q868 926 755 808T641 522Q641 394 716 320T913 246Z" />
<glyph unicode="A" glyph-name="A" horiz-adv-x="1617" d="M90 0L758 1444H860L1528 0H1411L1229 401H383L201 0H90ZM428 498H1184L807 1327L428 498Z" />
<glyph unicode="B" glyph-name="B" horiz-adv-x="1478" d="M213 0V1434H805Q1049 1434 1178 1307Q1270 1213 1270 1081V1077Q1270 1007 1249 949T1191 851T1114 784T1026 737Q1094 719 1149 692T1251 625T1324 526T1350 395V391Q1350 212 1210 106T836 0H213ZM319
772H793Q958 772 1059 850T1161 1067V1071Q1161 1191 1067 1263T803 1335H319V772ZM319 98H840Q1024 98 1132 177T1241 391V395Q1241 528 1128 601T805 674H319V98Z" />
<glyph unicode="C" glyph-name="C" horiz-adv-x="1511" d="M862 -25Q661 -25 498 73T242 340T150 713V717Q150 918 242 1087T499 1357T866 1458Q1045 1458 1172 1400T1423 1229L1348 1151Q1244 1252 1129 1307T864 1362Q737 1362 625 1312T433 1177T307 973T260
721V717Q260 538 339 390T558 157T866 72Q1015 72 1129 127T1360 295L1432 225Q1307 102 1174 39T862 -25Z" />
<glyph unicode="D" glyph-name="D" horiz-adv-x="1601" d="M213 0V1434H690Q856 1434 999 1379T1241 1229T1396 1003T1452 721V717Q1452 567 1396 435T1241 207T999 56T690 0H213ZM319 98H690Q837 98 960 146T1166 277T1295 472T1341 713V717Q1341 844 1295 957T1166
1153T960 1286T690 1335H319V98Z" />
<glyph unicode="E" glyph-name="E" horiz-adv-x="1372" d="M213 0V1434H1233V1335H319V772H1141V674H319V98H1243V0H213Z" />
<glyph unicode="F" glyph-name="F" horiz-adv-x="1343" d="M213 0V1434H1223V1335H319V748H1130V649H319V0H213Z" />
<glyph unicode="G" glyph-name="G" horiz-adv-x="1605" d="M1035 -25T870 -25T568 33T340 192T200 427T150 713V717Q150 862 201 996T342 1232T567 1396T858 1458Q1025 1458 1146 1412T1382 1270L1313 1190Q1217 1273 1110 1317T852 1362Q682 1362 546 1274T335
1040T260 721V717Q260 531 333 385T546 155T874 70Q1004 70 1125 116T1331 233V645H852V743H1434V190Q1328 96 1182 36Z" />
<glyph unicode="H" glyph-name="H" horiz-adv-x="1556" d="M213 0V1434H319V770H1237V1434H1343V0H1237V672H319V0H213Z" />
<glyph unicode="I" glyph-name="I" horiz-adv-x="561" d="M227 0V1434H334V0H227Z" />
<glyph unicode="J" glyph-name="J" horiz-adv-x="1124" d="M510 -20Q225 -20 76 248L164 303Q233 186 314 131T516 76Q653 76 740 176T827 459V1434H934V467Q934 225 803 94Q689 -20 510 -20Z" />
<glyph unicode="K" glyph-name="K" horiz-adv-x="1464" d="M213 0V1434H319V492L1233 1434H1378L752 801L1405 0H1266L676 725L319 365V0H213Z" />
<glyph unicode="L" glyph-name="L" horiz-adv-x="1267" d="M213 0V1434H319V98H1161V0H213Z" />
<glyph unicode="M" glyph-name="M" horiz-adv-x="1777" d="M213 0V1434H313L889 586L1464 1434H1565V0H1458V1245L891 420H883L315 1245V0H213Z" />
<glyph unicode="N" glyph-name="N" horiz-adv-x="1617" d="M213 0V1434H313L1303 186V1434H1405V0H1325L315 1274V0H213Z" />
<glyph unicode="O" glyph-name="O" horiz-adv-x="1740" d="M868 -25Q710 -25 574 35T346 197T202 433T150 713V717Q150 863 202 997T347 1234T577 1397T872 1458Q1031 1458 1167 1398T1395 1237T1539 1001T1591 721V717Q1591 571 1539 437T1394 200T1164 36T868
-25ZM872 72Q1046 72 1186 158T1403 390T1481 713V717Q1481 893 1403 1040T1183 1275T868 1362Q695 1362 555 1276T338 1044T260 721V717Q260 541 338 394T558 159T872 72Z" />
<glyph unicode="P" glyph-name="P" horiz-adv-x="1368" d="M213 0V1434H733Q974 1434 1120 1317T1266 995V991Q1266 881 1221 793T1099 650T921 565T707 535H319V0H213ZM319 633H713Q913 633 1036 729T1159 985V989Q1159 1156 1042 1245T725 1335H319V633Z" />
<glyph unicode="Q" glyph-name="Q" horiz-adv-x="1740" d="M1608 39L1532 -43L1329 139Q1134 -25 868 -25Q710 -25 574 35T346 197T202 433T150 713V717Q150 863 202 997T347 1234T577 1397T872 1458Q1031 1458 1167 1398T1395 1237T1539 1001T1591 721V717Q1591
574 1543 443T1403 211L1608 39ZM872 72Q1093 72 1253 207L975 444L1051 528L1325 279Q1399 364 1440 476T1481 713V717Q1481 893 1403 1040T1183 1275T868 1362Q695 1362 555 1276T338 1044T260 721V717Q260 541 338 394T558 159T872 72Z" />
<glyph unicode="R" glyph-name="R" horiz-adv-x="1480" d="M213 0V1434H815Q944 1434 1048 1396T1219 1292Q1270 1241 1298 1172T1327 1026V1022Q1327 848 1212 743T907 612L1380 0H1245L788 594H319V0H213ZM319 690H803Q987 690 1104 778T1221 1018V1022Q1221
1167 1112 1251T809 1335H319V690Z" />
<glyph unicode="S" glyph-name="S" horiz-adv-x="1310" d="M698 -20Q529 -20 391 36T121 209L190 289Q311 177 430 127T705 76Q865 76 966 156T1067 360V365Q1067 445 1034 498T912 594T662 670Q404 722 291 816T178 1073V1077Q178 1238 309 1346T639 1454Q791
1454 904 1413T1130 1280L1063 1196Q964 1282 861 1320T635 1358Q480 1358 383 1280T285 1087V1083Q285 1023 302 980T365 897T493 827T702 770Q951 719 1062 626T1174 375V371Q1174 198 1041 89T698 -20Z" />
<glyph unicode="T" glyph-name="T" horiz-adv-x="1327" d="M610 0V1335H111V1434H1217V1335H717V0H610Z" />
<glyph unicode="U" glyph-name="U" horiz-adv-x="1556" d="M778 -23Q649 -23 541 18T355 136T234 330T190 596V1434H297V606Q297 354 425 214T782 74Q1005 74 1132 208T1260 596V1434H1366V608Q1366 306 1206 142T778 -23Z" />
<glyph unicode="V" glyph-name="V" horiz-adv-x="1536" d="M721 -10L90 1434H209L770 115L1333 1434H1446L815 -10H721Z" />
<glyph unicode="W" glyph-name="W" horiz-adv-x="2256" d="M623 -10L102 1434H221L672 158L1092 1438H1174L1593 158L2044 1434H2154L1634 -10H1548L1128 1235L709 -10H623Z" />
<glyph unicode="X" glyph-name="X" horiz-adv-x="1478" d="M104 0L674 731L125 1434H252L741 801L1229 1434H1354L803 731L1374 0H1247L737 662L229 0H104Z" />
<glyph unicode="Y" glyph-name="Y" horiz-adv-x="1466" d="M680 0V567L66 1434H199L735 664L1274 1434H1401L786 569V0H680Z" />
<glyph unicode="Z" glyph-name="Z" horiz-adv-x="1409" d="M139 0V59L1120 1337H174V1434H1272V1374L291 96H1272V0H139Z" />
<glyph unicode="[" glyph-name="bracketleft" horiz-adv-x="880" d="M201 -266V1434H760V1356H295V-188H760V-266H201Z" />
<glyph unicode="\" glyph-name="backslash" horiz-adv-x="1024" d="M961 -262L-6 1634H94L1061 -262H961Z" />
<glyph unicode="]" glyph-name="bracketright" horiz-adv-x="880" d="M121 -266V-188H586V1356H121V1434H680V-266H121Z" />
<glyph unicode="^" glyph-name="asciicircum" horiz-adv-x="1024" d="M143 1010L467 1440H557L881 1010H772L510 1352L248 1010H143Z" />
<glyph unicode="_" glyph-name="underscore" horiz-adv-x="1228" d="M-4 -328V-238H1233V-328H-4Z" />
<glyph unicode="`" glyph-name="grave" horiz-adv-x="1024" d="M541 1219L322 1430L446 1491L627 1219H541Z" />
<glyph unicode="a" glyph-name="a" horiz-adv-x="1175" d="M508 -25Q433 -25 362 -4T233 57T140 161T104 303V307Q104 467 229 557T561 647Q740 647 907 602V647Q907 803 817 885T563 967Q401 967 236 883L199 971Q393 1061 569 1061Q784 1061 899 946Q1006 841
1006 651V0H907V174Q846 88 746 32T508 -25ZM514 70Q677 70 793 160T909 391V510Q721 557 555 557Q392 557 302 491T211 313V309Q211 200 299 135T514 70Z" />
<glyph unicode="b" glyph-name="b" horiz-adv-x="1351" d="M721 -25Q455 -25 291 225V0H190V1495H291V811Q460 1069 721 1069Q816 1069 906 1031T1069 926T1185 754T1229 526V522Q1229 399 1185 294T1069 121T907 14T721 -25ZM711 72Q887 72 1003 193T1120 518V522Q1120
655 1063 759T914 918T711 973Q602 973 505 918T347 758T285 524V520Q285 391 346 287T505 127T711 72Z" />
<glyph unicode="c" glyph-name="c" horiz-adv-x="1169" d="M651 -25Q504 -25 381 49T189 248T119 518V522Q119 667 189 792T382 993T651 1069Q786 1069 884 1018T1069 877L997 803Q917 885 837 930T649 975Q472 975 350 845T227 526V522Q227 333 352 202T657 70Q853
70 1008 244L1077 182Q990 83 889 29T651 -25Z" />
<glyph unicode="d" glyph-name="d" horiz-adv-x="1351" d="M631 -25Q536 -25 446 13T283 118T167 290T123 518V522Q123 645 167 750T283 923T445 1030T631 1069Q897 1069 1061 819V1495H1161V0H1061V233Q892 -25 631 -25ZM641 72Q750 72 847 127T1005 287T1067
520V524Q1067 654 1006 758T847 918T641 973Q465 973 348 852T231 526V522Q231 422 264 337T354 194T484 104T641 72Z" />
<glyph unicode="e" glyph-name="e" horiz-adv-x="1196" d="M631 -25Q528 -25 435 15T272 125T161 298T119 520V524Q119 674 183 799T362 996T614 1069Q757 1069 867 997T1036 800T1094 522Q1094 498 1092 481H225Q239 293 357 182T635 70Q841 70 993 233L1063
172Q974 77 873 26T631 -25ZM225 571H985Q980 652 954 723T883 852T768 943T610 977Q456 977 348 862T225 571Z" />
<glyph unicode="f" glyph-name="f" horiz-adv-x="741" d="M252 0V952H100V1044H252V1147Q252 1327 344 1419Q424 1501 563 1501Q648 1501 719 1477V1382Q634 1409 563 1409Q456 1409 404 1344T352 1145V1044H717V952H352V0H252Z" />
<glyph unicode="g" glyph-name="g" horiz-adv-x="1351" d="M649 -332Q384 -332 170 -172L229 -90Q422 -238 651 -238Q837 -238 949 -133T1061 168V319Q893 78 625 78Q530 78 440 113T280 211T166 366T123 569V573Q123 682 166 776T279 934T440 1033T625 1069Q770
1069 879 1004T1061 836V1044H1161V162Q1161 -60 1028 -193Q889 -332 649 -332ZM635 174Q744 174 842 223T1004 364T1067 571V575Q1067 691 1004 784T843 925T635 973Q465 973 348 864T231 578V573Q231 401 350 288T635 174Z" />
<glyph unicode="h" glyph-name="h" horiz-adv-x="1255" d="M190 0V1495H291V850Q414 1069 668 1069Q862 1069 973 950T1085 639V0H985V621Q985 784 897 880T653 977Q499 977 395 872T291 604V0H190Z" />
<glyph unicode="i" glyph-name="i" horiz-adv-x="509" d="M193 1317V1454H317V1317H193ZM205 0V1044H305V0H205Z" />
<glyph unicode="j" glyph-name="j" horiz-adv-x="509" d="M193 1317V1454H317V1317H193ZM82 -334Q39 -334 -2 -326V-238Q35 -244 80 -244Q138 -244 171 -207T205 -98V1044H305V-92Q305 -212 246 -273T82 -334Z" />
<glyph unicode="k" glyph-name="k" horiz-adv-x="1146" d="M190 0V1495H291V375L938 1044H1071L614 582L1085 0H958L545 510L291 254V0H190Z" />
<glyph unicode="l" glyph-name="l" horiz-adv-x="509" d="M205 0V1495H305V0H205Z" />
<glyph unicode="m" glyph-name="m" horiz-adv-x="1947" d="M190 0V1044H291V858Q319 904 348 938T419 1003T516 1052T639 1069Q767 1069 855 1007T991 844Q1122 1069 1368 1069Q1553 1069 1661 950T1769 633V0H1669V621Q1669 789 1587 883T1360 977Q1222 977 1126
877T1030 608V0H930V627Q930 789 848 883T625 977T388 869T291 602V0H190Z" />
<glyph unicode="n" glyph-name="n" horiz-adv-x="1255" d="M190 0V1044H291V850Q414 1069 668 1069Q862 1069 973 950T1085 639V0H985V621Q985 784 897 880T653 977Q499 977 395 872T291 604V0H190Z" />
<glyph unicode="o" glyph-name="o" horiz-adv-x="1310" d="M653 -25Q540 -25 440 19T270 136T160 309T119 518V522Q119 631 160 731T271 905T442 1024T657 1069T871 1025T1041 908T1151 735T1192 526V522Q1192 376 1123 251T930 51T653 -25ZM657 70Q778 70 876
130T1029 293T1083 518V522Q1083 712 959 843T653 975Q470 975 349 844T227 526V522Q227 333 351 202T657 70Z" />
<glyph unicode="p" glyph-name="p" horiz-adv-x="1351" d="M190 -328V1044H291V811Q460 1069 721 1069Q816 1069 906 1031T1069 926T1185 754T1229 526V522Q1229 399 1185 294T1069 121T907 14T721 -25Q455 -25 291 225V-328H190ZM711 72Q887 72 1003 193T1120
518V522Q1120 655 1063 759T914 918T711 973Q602 973 505 918T347 758T285 524V520Q285 391 346 287T505 127T711 72Z" />
<glyph unicode="q" glyph-name="q" horiz-adv-x="1351" d="M1061 -328V233Q892 -25 631 -25Q536 -25 446 13T283 118T167 290T123 518V522Q123 645 167 750T283 923T445 1030T631 1069Q897 1069 1061 819V1044H1161V-328H1061ZM641 72Q750 72 847 127T1005 287T1067
520V524Q1067 654 1006 758T847 918T641 973Q465 973 348 852T231 526V522Q231 422 264 337T354 194T484 104T641 72Z" />
<glyph unicode="r" glyph-name="r" horiz-adv-x="819" d="M190 0V1044H291V748Q355 892 479 979T754 1061V950H743Q652 950 571 916T427 817T328 653T291 428V0H190Z" />
<glyph unicode="s" glyph-name="s" horiz-adv-x="1017" d="M528 -20Q416 -20 300 21T100 131L160 211Q337 74 535 74Q643 74 714 129T786 272V276Q786 312 770 341T732 391T669 429T596 459T510 485Q352 532 291 564Q152 638 152 772V776Q152 902 248 983T496
1065Q589 1065 688 1034T866 950L813 866Q656 971 492 971Q385 971 320 920T254 788V784Q254 756 264 732T297 689T342 656T404 628T470 605T545 582Q594 568 629 557T708 527T781 487T836 437T876 371T889 289V285Q889 148 786 64T528 -20Z" />
<glyph unicode="t" glyph-name="t" horiz-adv-x="819" d="M539 -18Q410 -18 328 54T246 268V952H94V1044H246V1378H346V1044H713V952H346V279Q346 76 555 76Q627 76 709 113V18Q628 -18 539 -18Z" />
<glyph unicode="u" glyph-name="u" horiz-adv-x="1255" d="M588 -25Q394 -25 282 94T170 406V1044H270V424Q270 261 358 165T602 68Q757 68 861 173T965 440V1044H1065V0H965V195Q840 -25 588 -25Z" />
<glyph unicode="v" glyph-name="v" horiz-adv-x="1191" d="M553 -8L84 1044H201L596 113L995 1044H1108L639 -8H553Z" />
<glyph unicode="w" glyph-name="w" horiz-adv-x="1763" d="M483 -8L100 1044H213L528 127L844 1049H924L1239 127L1554 1044H1663L1280 -8H1194L883 887L569 -8H483Z" />
<glyph unicode="x" glyph-name="x" horiz-adv-x="1167" d="M950 0L582 465L213 0H92L518 532L109 1044H233L584 602L938 1044H1059L647 535L1075 0H950Z" />
<glyph unicode="y" glyph-name="y" horiz-adv-x="1204" d="M317 -334Q214 -334 111 -289L145 -201Q229 -240 324 -240Q406 -240 465 -185T582 6L80 1044H197L631 111L1008 1044H1118L666 -37Q598 -198 515 -266T317 -334Z" />
<glyph unicode="z" glyph-name="z" horiz-adv-x="1134" d="M119 0V57L872 954H147V1044H1022V987L268 90H1022V0H119Z" />
<glyph unicode="{" glyph-name="braceleft" horiz-adv-x="983" d="M852 -289Q743 -268 666 -239T542 -174T467 -91T430 8T420 127V289Q420 418 366 483T174 549H121V627H174Q311 627 365 692T420 887V1049Q420 1118 429 1168T466 1266T541 1350T666 1414T852 1464L866
1399Q787 1379 732 1360T637 1315T576 1266T541 1204T524 1130T520 1036V883Q520 754 466 687T307 588Q417 552 468 488T520 293V139Q520 82 524 46T540 -28T575 -90T637 -139T731 -183T866 -223L852 -289Z" />
<glyph unicode="|" glyph-name="bar" horiz-adv-x="585" d="M248 -262V1634H338V-262H248Z" />
<glyph unicode="}" glyph-name="braceright" horiz-adv-x="983" d="M131 -289L117 -223Q196 -203 251 -184T346 -139T407 -90T442 -29T459 45T463 139V293Q463 422 517 489T676 588Q566 624 515 688T463 883V1036Q463 1093 459 1130T443 1204T408 1265T346 1315T252
1359T117 1399L131 1464Q240 1444 317 1415T441 1350T516 1267T553 1168T563 1049V887Q563 758 617 693T809 627H862V549H809Q672 549 618 484T563 289V127Q563 58 554 8T517 -90T442 -174T317 -238T131 -289Z" />
<glyph unicode="~" glyph-name="asciitilde" horiz-adv-x="942" d="M238 496L168 514Q196 621 236 663T340 705Q380 705 474 663T602 621Q638 621 660 642T705 723L774 705Q746 598 706 556T602 514Q562 514 468 556T340 598Q304 598 283 576T238 496Z" />
</font>
</defs>
</svg>
