<?xml version="1.0" encoding="utf-8"?>
<!-- Generator: Adobe Illustrator 19.0.0, SVG Export Plug-In . SVG Version: 6.00 Build 0)  -->
<svg version="1.1" id="Layer_1" xmlns="http://www.w3.org/2000/svg" xmlns:xlink="http://www.w3.org/1999/xlink" x="0px" y="0px"
	 viewBox="0 0 1000 1000" enable-background="new 0 0 1000 1000" xml:space="preserve">
<g id="Page-1">
	<g id="address">
		<g id="Group">
			<path id="Shape" fill="#010101" d="M767,49.9c-65.6,52.1-133.6,101-198.9,153.4c0.4-4.1,0.6-8,0.6-11.7
				c0-100.5-82.5-182.4-183.8-182.4S201.2,91.1,201.2,191.8c0,40.4,26.2,108.5,80.2,208.2c7.8,14.2,15.4,28,22.7,40.9
				C222,509.4,130.6,565.8,49,635c-18.2,15.4,8.1,41.4,26.2,26.2c79.2-67.1,167.5-122.3,247.7-188c20.2,34.3,35.1,57.7,36.1,59.2
				c5.7,8.9,15.5,14.2,26.1,14.2s20.3-5.3,26.1-14.2c1.5-2.5,39.3-61.8,77.5-132.4c30.4-56,52-102.2,65.1-138.9
				c2.3-0.8,4.7-1.9,6.9-3.8c75.2-63.2,155.6-120,232.5-181.1C811.7,61.4,785.4,35.3,767,49.9L767,49.9z M384.9,515.9
				c0,0-18-28.3-41.7-68.9c-0.6-4.3-3.1-8.3-6.5-11.3C291.9,357.9,232,244.3,232,191.8c0-83.8,68.5-151.6,152.9-151.6
				S537.8,108,537.8,191.8S384.9,515.9,384.9,515.9L384.9,515.9z"/>
			<path id="Shape_1_" fill="#010101" d="M518.6,575c-117.6,75-231.7,155.2-342,240.3c-8,6.1-12.1,15.8-6.6,25.3
				c4.4,7.9,17.4,12.7,25.3,6.6c101.2-78.2,205.5-152,312.8-221.5c-3.8,113.9,2.3,227.9-3.8,341.7c-1.3,23.8,35.7,23.8,37,0
				c6.6-125.4-1.4-251.1,5.2-376.6C547.2,577.1,530.2,567.6,518.6,575L518.6,575z"/>
			<path id="Shape_2_" fill="#010101" d="M924.3,208c-68.1,58.6-132.8,120.4-188,191.5c-31.6,40.8-61.1,79.6-63.8,133.1
				c-2.9,59.1-0.8,119-0.9,178.2c-0.3,68.1-0.5,136.2-0.6,204.4c-0.1,23.8,36.9,23.8,37,0c0.4-115.9,0.8-231.8,1.1-347.7
				c0.1-26.7-1.1-53.9,10.4-78.5c9.8-20.8,24.8-39.3,38.6-57.4c22.7-29.9,47-58.6,73-85.8c37.5-39.4,78-75.9,119.3-111.5
				C968.5,218.6,942.2,192.5,924.3,208L924.3,208z"/>
			<path id="Shape_3_" fill="#010101" d="M384.9,108.9c-46.6,0-84.5,38-84.5,84.8s37.9,84.8,84.5,84.8s84.5-37.9,84.5-84.8
				S431.6,108.9,384.9,108.9L384.9,108.9z M384.9,247.6c-29.6,0-53.6-24.1-53.6-53.9s24-53.9,53.6-53.9c29.6,0,53.6,24.1,53.6,53.9
				C438.6,223.3,414.5,247.6,384.9,247.6L384.9,247.6z"/>
		</g>
	</g>
</g>
</svg>
