<?xml version="1.0" encoding="utf-8"?>
<!-- Generator: Adobe Illustrator 19.0.0, SVG Export Plug-In . SVG Version: 6.00 Build 0)  -->
<svg version="1.1" id="Layer_1" xmlns="http://www.w3.org/2000/svg" xmlns:xlink="http://www.w3.org/1999/xlink" x="0px" y="0px"
	 viewBox="0 0 1000 1000" enable-background="new 0 0 1000 1000" xml:space="preserve">
<g id="Page-1">
	<g id="around-me">
		<g id="Group">
			<path id="Shape" fill="#010101" d="M502.2,991.5c-5.3,0-10.5-2.2-14.3-6.3c-7.3-7.9-6.8-20.4,1.2-27.7l2.4-2.3
				c89.4-82.5,361.7-333.4,361.7-542.1c0-201.8-158.3-366-352.7-366s-352.8,164.2-352.8,366c0,157.1,124.7,277,241.4,336.8
				c9.6,4.9,13.4,16.8,8.5,26.4c-4.9,9.6-16.8,13.4-26.4,8.5c-74.9-38.4-139-90.8-184.9-151.8c-51-67.4-77.9-143.4-77.9-219.9
				c0-223.5,175.8-405.2,391.9-405.2s391.9,181.7,391.9,405.2c0,97.2-51.6,211.6-153.3,339.8c-81.3,102.5-175.6,189.4-220.9,231.2
				l-2.4,2.3C511.7,989.8,507,991.5,502.2,991.5L502.2,991.5z"/>
			<path id="Shape_1_" fill="#010101" d="M362,545.8c-11.9-54.7,64-54.8,91.4-83c44.1-45-3.2-99.5,0-150.2
				c1.7-25.9,15.2-50.8,39.8-61.3c23.4-10,48.4-2.2,63.3,18.1c17.9,24.7,15.8,57.1,5.5,84.4c-9.2,24.7-25.1,52.1-8.5,77.6
				c7.7,11.8,20,18.1,33,22c11.8,3.6,24.5,4.5,33.6,13.6c16.8,16.9,18.2,46.4,19.3,68.6c1.4,25.1,40.5,25.2,39.2,0
				c-1.4-26.5-4.4-54.3-17.4-78c-14.7-26.9-37.1-33.3-64.3-42c-16.8-5.4-11.4-17.5-5.9-31.1c7-17,13.7-33.2,16.3-51.5
				c4.6-32.7-2-65.4-23.1-91.4c-40.3-49.7-115-41.1-150.4,9.7c-17.3,24.8-22.7,56.9-18.3,86.5c2.3,15.6,7.6,30.4,11.9,45.5
				c4.2,14.1,10.1,31.8,2.7,45.7c-6.5,12.3-21.6,17.3-33.9,22c-13.6,5.1-27.7,10.1-39.6,18.4c-28,19.7-39.8,53.5-32.5,86.7
				C329.6,580.8,367.4,570.4,362,545.8L362,545.8L362,545.8z"/>
		</g>
	</g>
</g>
</svg>
