<?xml version="1.0" encoding="utf-8"?>
<!-- Generator: Adobe Illustrator 16.0.4, SVG Export Plug-In . SVG Version: 6.00 Build 0)  -->
<!DOCTYPE svg PUBLIC "-//W3C//DTD SVG 1.1//EN" "http://www.w3.org/Graphics/SVG/1.1/DTD/svg11.dtd">
<svg version="1.1" id="Layer_1" xmlns="http://www.w3.org/2000/svg" xmlns:xlink="http://www.w3.org/1999/xlink" x="0px" y="0px"
	 width="100px" height="100px" viewBox="0 0 100 100" enable-background="new 0 0 100 100" xml:space="preserve">
<path d="M59.854,74.2c-8.411,0-16.823-2.378-16.823-7.589c0-5.851,3.017-11.154,7.863-14.264c-1.92-2.194-3.017-5.028-3.017-7.955
	c0-6.583,5.394-11.977,11.977-11.977S71.83,37.811,71.83,44.393c0,2.926-1.096,5.76-3.017,7.955
	c4.846,3.109,7.863,8.413,7.863,14.264C76.677,71.914,68.266,74.2,59.854,74.2z M59.854,34.611c-5.395,0-9.783,4.389-9.783,9.783
	c0,2.834,1.188,5.486,3.384,7.406c0.274,0.274,0.456,0.641,0.364,1.006c0,0.366-0.273,0.64-0.548,0.822
	c-4.938,2.469-7.954,7.498-7.954,12.983c0,3.107,6.308,5.394,14.629,5.394c8.32,0,14.628-2.286,14.628-5.394
	c0-5.485-3.018-10.515-7.954-12.983c-0.366-0.183-0.549-0.456-0.549-0.822c0-0.365,0.092-0.731,0.366-1.006
	c2.103-1.828,3.383-4.571,3.383-7.406C69.637,39,65.248,34.611,59.854,34.611z"/>
<path d="M87.725,74.578c-6.138,0-12.275-1.734-12.275-5.537c0-4.27,2.202-8.139,5.738-10.408c-1.401-1.602-2.202-3.668-2.202-5.803
	c0-4.805,3.936-8.74,8.739-8.74s8.739,3.936,8.739,8.74c0,2.135-0.8,4.201-2.201,5.803c3.535,2.27,5.737,6.139,5.737,10.408
	C100,72.91,93.862,74.578,87.725,74.578z M87.728,46.233c-3.78,0-6.854,3.076-6.854,6.855c0,1.986,0.832,3.844,2.37,5.19
	c0.192,0.191,0.32,0.447,0.256,0.704c0,0.256-0.192,0.449-0.384,0.576c-3.46,1.729-5.574,5.254-5.574,9.097
	c0,2.179,4.421,3.78,10.25,3.78c5.83,0,10.25-1.602,10.25-3.78c0-3.843-2.113-7.367-5.573-9.097
	c-0.256-0.127-0.384-0.32-0.384-0.576c0-0.257,0.063-0.513,0.256-0.704c1.474-1.281,2.369-3.204,2.369-5.19
	C94.582,49.309,91.507,46.233,87.728,46.233z"/>
<path fill-opacity="0.99" d="M22.643,74.2C11.321,74.2,0,70.999,0,63.986c0-7.875,4.062-15.012,10.585-19.199
	C8,41.833,6.522,38.02,6.522,34.082c0-8.861,7.26-16.12,16.121-16.12s16.12,7.259,16.12,16.12c0,3.938-1.475,7.751-4.06,10.706
	c6.521,4.187,10.583,11.324,10.583,19.199C45.286,71.123,33.964,74.2,22.643,74.2z M22.641,20.518c-7.375,0-13.375,6-13.375,13.375
	c0,3.879,1.624,7.5,4.626,10.126c0.375,0.377,0.625,0.876,0.5,1.375c0,0.502-0.377,0.875-0.752,1.127
	C6.891,49.894,2.766,56.771,2.766,64.269c0,4.247,8.627,7.374,20,7.374c11.375,0,20-3.127,20-7.374
	c0-7.498-4.124-14.375-10.874-17.748c-0.5-0.251-0.751-0.625-0.751-1.127c0-0.499,0.126-0.999,0.501-1.375
	c2.876-2.5,4.624-6.248,4.624-10.126C36.017,26.518,30.018,20.518,22.641,20.518z"/>
</svg>
