<?xml version="1.0" encoding="utf-8"?>
<!-- Generator: Adobe Illustrator 16.0.4, SVG Export Plug-In . SVG Version: 6.00 Build 0)  -->
<!DOCTYPE svg PUBLIC "-//W3C//DTD SVG 1.1//EN" "http://www.w3.org/Graphics/SVG/1.1/DTD/svg11.dtd">
<svg version="1.1" id="Layer_1" xmlns="http://www.w3.org/2000/svg" xmlns:xlink="http://www.w3.org/1999/xlink" x="0px" y="0px"
	 width="100px" height="100px" viewBox="0 0 100 100" enable-background="new 0 0 100 100" xml:space="preserve">
<g>
	<path d="M90.469,71.51c2.33-2.659,3.657-6.096,3.657-9.641c0-7.978-6.534-14.517-14.514-14.517c-0.326,0-0.646,0.028-0.967,0.05
		c0.05,0.564,0.087,1.133,0.087,1.71c0,0.558-0.028,1.111-0.076,1.663c0.317-0.028,0.637-0.05,0.962-0.05
		c6.181,0,11.21,5.153,11.419,11.484c0,3.327-1.467,6.547-3.876,8.691c-0.315,0.324-0.42,0.755-0.42,1.186
		c0,0.427,0.21,0.748,0.628,0.962c5.657,2.896,9.115,8.802,9.115,15.241c0,3.647-7.228,6.332-16.76,6.332
		c-0.222,0-0.434-0.009-0.65-0.012c-2.535,1.114-5.554,1.939-8.824,2.495c2.905,0.597,6.133,0.888,9.362,0.888
		c10.194,0,20.389-2.771,20.388-9.197C100,81.706,96.344,75.278,90.469,71.51z"/>
</g>
<path fill-opacity="0.99" d="M33.295,99.073c-16.72,0-33.439-4.728-33.439-15.083c0-11.63,5.999-22.171,15.632-28.353
	c-3.817-4.364-6-9.994-6-15.81c0-13.085,10.722-23.806,23.808-23.806c13.085,0,23.807,10.721,23.807,23.806
	c0,5.816-2.18,11.445-5.996,15.81c9.631,6.185,15.628,16.723,15.628,28.353C66.733,94.53,50.013,99.073,33.295,99.073z
	 M33.298,20.83c-10.553,0-19.138,8.619-19.138,19.211c0,5.572,2.324,10.773,6.619,14.544c0.536,0.541,0.894,1.259,0.716,1.977
	c0,0.721-0.54,1.255-1.076,1.617c-9.657,4.845-15.56,14.725-15.56,25.494c0,6.1,12.344,10.591,28.618,10.591
	c16.276,0,28.618-4.491,28.618-10.591c0-10.77-5.899-20.649-15.56-25.494c-0.716-0.36-1.075-0.896-1.075-1.617
	c0-0.718,0.181-1.436,0.717-1.977c4.115-3.591,6.616-8.973,6.616-14.544C52.437,29.449,43.853,20.83,33.298,20.83z"/>
<g>
	<path d="M73.784,62.158c3.153-3.599,4.948-8.248,4.948-13.045c0-10.793-8.843-19.643-19.639-19.643
		c-1.631,0-3.21,0.224-4.728,0.604c0.555,1.404,0.979,2.872,1.258,4.389c1.118-0.271,2.28-0.429,3.478-0.429
		c8.361,0,15.167,6.971,15.45,15.538c0,4.504-1.984,8.861-5.242,11.762c-0.428,0.439-0.569,1.021-0.569,1.603
		c0,0.579,0.285,1.013,0.851,1.303c7.654,3.921,12.331,11.91,12.331,20.623c0,4.935-9.778,8.568-22.677,8.568
		c-0.594,0-1.171-0.016-1.749-0.031c-3.104,1.521-6.908,2.64-11.07,3.395c3.931,0.807,8.298,1.198,12.667,1.198
		c13.795,0,27.588-3.748,27.586-12.443C86.68,75.954,81.733,67.257,73.784,62.158z"/>
</g>
</svg>
