<?xml version="1.0" encoding="utf-8"?>
<!-- Generator: Adobe Illustrator 16.0.4, SVG Export Plug-In . SVG Version: 6.00 Build 0)  -->
<!DOCTYPE svg PUBLIC "-//W3C//DTD SVG 1.1//EN" "http://www.w3.org/Graphics/SVG/1.1/DTD/svg11.dtd">
<svg version="1.1" id="Your_Icon" xmlns="http://www.w3.org/2000/svg" xmlns:xlink="http://www.w3.org/1999/xlink" x="0px" y="0px"
	 width="100px" height="100.002px" viewBox="0 0 100 100.002" enable-background="new 0 0 100 100.002" xml:space="preserve">
<path d="M88.713,47.936c-1.376-1.732-3.369-2.339-4.996-2.307c-0.7,0.004-1.341,0.114-1.95,0.248l0.002-0.01
	c0-5.904,1.42-11.337,1.42-16.351c0-5-2.976-13.621-12.143-14.53c0,0-6.02-17.076-41.488-12.496c0,0,3.433,2.147,4.291,2.999
	c0.857,0.862,0.857,0.862,0.857,0.862S25.98,5.918,20.831,9.639c0,0,3.579,1.005,4.292,3.002c0,0-10.083,0.646-14.018,4.579
	c0,0,5.006,0.569,5.006,13.586c0,3.954,1.166,10.138,3.023,14.789c-0.013,0.165-0.036,0.322-0.044,0.479
	c-0.815-0.242-1.767-0.438-2.804-0.447c-1.628-0.032-3.622,0.575-4.992,2.307c-1.376,1.725-2.065,4.192-2.065,7.747
	c0,11.965,8.357,15.67,11.411,16.621c5.344,15.141,16.236,25.932,29.372,25.992C63.124,98.231,74.018,87.44,79.36,72.302
	c3.058-0.951,11.411-4.656,11.411-16.621C90.775,52.127,90.086,49.631,88.713,47.936z M77.648,68.991l-1.078,0.18l-0.341,1.039
	c-4.977,14.801-15.105,24.463-26.216,24.416c-11.11,0.051-21.26-9.615-26.206-24.416l-0.369-1.039l-1.077-0.18
	c0.022-0.115-9.464-1.369-9.464-13.311c0.277-6.226,1.946-6.388,3.391-6.388c3.978,0,6.283,2.309,6.283,2.309l0.041-2.774
	c0.128-3.517,0.52-6.915,1.094-10.181c3.46-9.71,7.718-11.058,9.5-11.058c1.786,0,7.935,1.068,12.225,1.068
	c10.584,0,13.303-2.717,20.025-2.717c6.385,0,10.881,14.22,11.312,15.635c0.319,2.355,0.556,4.77,0.646,7.253l0.115,2.774
	c0,0,3.259-2.31,6.188-2.31c1.448,0,3.115,0.133,3.394,6.389C87.11,67.622,77.648,68.874,77.648,68.991z"/>
</svg>
