<?xml version="1.0" encoding="utf-8"?>
<!-- Generator: Adobe Illustrator 16.0.4, SVG Export Plug-In . SVG Version: 6.00 Build 0)  -->
<!DOCTYPE svg PUBLIC "-//W3C//DTD SVG 1.1//EN" "http://www.w3.org/Graphics/SVG/1.1/DTD/svg11.dtd">
<svg version="1.1" id="Layer_1" xmlns="http://www.w3.org/2000/svg" xmlns:xlink="http://www.w3.org/1999/xlink" x="0px" y="0px"
	 width="100px" height="100px" viewBox="0 0 100 100" enable-background="new 0 0 100 100" xml:space="preserve">
<g id="Captions">
	<path d="M0-6"/>
</g>
<g id="Your_Icon">
	<g>
		<g>
			<path d="M70.562,50.95H22.632V23.026h47.931V50.95L70.562,50.95z M26.017,47.566h41.161V26.411H26.017V47.566L26.017,47.566z"/>
		</g>
		<g>
			<g>
				<polygon points="64.068,34.951 29.129,34.951 29.129,31.566 64.068,31.566 				"/>
			</g>
			<g>
				<polygon points="64.068,42.41 29.129,42.41 29.129,39.027 64.068,39.027 				"/>
			</g>
		</g>
	</g>
	<path d="M84.42,7.678V7.675h-0.846v82.913H13.229l-0.269-0.265c0.401-0.237,0.86-0.384,1.356-0.384H82.93V0H14.317
		c-3.805,0-6.901,3.098-6.901,6.904v85.995h0.026c0.151,3.672,3.166,6.617,6.875,6.617h0.818l77.031-0.015V7.678H84.42z
		 M15.526,92.886h70.345V9.823l0.68,0.684v83.06H16.203L15.526,92.886z M84.42,91.436V8.359l0.604,0.61v83.069H14.681l-0.605-0.604
		H84.42V91.436z M11.646,6.904c0-1.474,1.197-2.673,2.672-2.673H78.7V85.71H11.646V6.904z M14.317,95.284
		c-1.475,0-2.672-1.195-2.672-2.67c0-0.671,0.255-1.276,0.665-1.745l4.419,4.415H14.317z M87.938,95.271l-70.012,0.013l-0.873-0.873
		h70.345V11.363l0.539,0.545V95.271z"/>
</g>
</svg>
