<?xml version="1.0" encoding="utf-8"?>
<!-- Generator: Adobe Illustrator 19.0.0, SVG Export Plug-In . SVG Version: 6.00 Build 0)  -->
<svg version="1.1" id="Layer_1" xmlns="http://www.w3.org/2000/svg" xmlns:xlink="http://www.w3.org/1999/xlink" x="0px" y="0px"
	 viewBox="0 0 500 500" style="enable-background:new 0 0 500 500;" xml:space="preserve">
<style type="text/css">
	.st0{fill:#010101;}
</style>
<path class="st0" d="M447,220.6C432.7,124,349.4,51,249.9,51S67.1,124,52.8,220.6c-27.5,3.8-48.3,27.5-48.3,55.9
	c0,31.3,24.6,55.9,55.9,55.9c2.8,0,5.7,0,8.5-0.9c32.2,72,102.3,117.5,181,117.5s148.7-45.5,181-117.5c2.8,0,5.7,0.9,8.5,0.9
	c31.3,0,55.9-24.6,55.9-55.9C495.3,248.1,474.4,224.4,447,220.6z M428,222.5c-22.7,8.5-45.5,12.3-70.1,12.3
	c-65.4,0-126-31.3-163-84.3v-72c17.1-5.7,36-8.5,54.9-8.5C339,70,413.8,134.4,428,222.5z M175.1,86.1v62.5
	c-25.6,31.3-62.5,55.9-102.3,68.2C84.1,158.1,122.9,109.8,175.1,86.1z M439.4,313.5c-3.8,0-6.6-0.9-11.4-1.9l-8.5-2.8l-2.8,8.5
	C389.2,385.5,323.8,430,249.9,430S110.6,385.5,83.2,317.3l-2.8-8.5l-8.5,2.8c-3.8,0.9-7.6,1.9-11.4,1.9c-19.9,0-36.9-16.1-36.9-36.9
	s17.1-36.9,36-36.9h7.6l0,0c44.5-11.4,86.2-36.9,116.5-71.1c41.7,54,105.2,86.2,173.4,86.2c26.5,0,52.1-4.7,76.7-14.2h3.8
	c0.9,0,0.9,0,0.9,0c20.8,0,36.9,17.1,36.9,36.9C475.4,297.4,460.2,313.5,439.4,313.5z"/>
<path id="XMLID_1_" class="st0" d="M249.9,366.5c-39.8,0-72.9-31.3-76.7-70.1c0-3.8,2.8-6.6,6.6-6.6h6.6c3.8,0,5.7,2.8,6.6,5.7
	c2.8,29.4,27.5,52.1,57.8,52.1s54.9-22.7,57.8-52.1c0-2.8,2.8-5.7,6.6-5.7h6.6c3.8,0,6.6,2.8,6.6,6.6
	C323.8,336.2,290.6,366.5,249.9,366.5z"/>
</svg>
