<?xml version="1.0" encoding="utf-8"?>
<!-- Generator: Adobe Illustrator 16.0.4, SVG Export Plug-In . SVG Version: 6.00 Build 0)  -->
<!DOCTYPE svg PUBLIC "-//W3C//DTD SVG 1.1//EN" "http://www.w3.org/Graphics/SVG/1.1/DTD/svg11.dtd">
<svg version="1.1" id="Layer_1" xmlns="http://www.w3.org/2000/svg" xmlns:xlink="http://www.w3.org/1999/xlink" x="0px" y="0px"
	 width="90px" height="90px" viewBox="0 0 90 90" enable-background="new 0 0 90 90" xml:space="preserve">
<path d="M32.487,10.775c-0.213-0.206-0.516-0.297-0.804-0.248c-0.293,0.05-0.544,0.238-0.674,0.506L1.113,72.609
	c-0.176,0.365-0.094,0.806,0.204,1.083l12.049,11.156c0.175,0.161,0.399,0.244,0.627,0.244c0.133,0,0.267-0.027,0.393-0.085
	l12.032-5.626l5.505,10.135C32.09,89.828,32.407,90,32.735,90c0.136,0,0.271-0.025,0.402-0.089l28.108-13.493
	c0.235-0.11,0.411-0.315,0.486-0.564c0.072-0.245,0.041-0.512-0.089-0.736l-5.632-9.568l20.846-9.746
	c0.272-0.128,0.467-0.385,0.519-0.685c0.05-0.299-0.052-0.604-0.266-0.814L32.487,10.775z M58.987,75.25l-25.49,12.236l-4.857-8.942
	l25.318-11.838L58.987,75.25z M27.092,75.687H27.09l0,0L15.579,81.07L5.122,71.388l27.383-56.396l40.307,39.319L27.092,75.687z"/>
<path d="M86.464,32.865c-0.133-0.462-0.612-0.734-1.077-0.596L71.523,36.26c-0.461,0.132-0.729,0.615-0.598,1.078
	c0.113,0.38,0.458,0.628,0.838,0.628c0.079,0,0.159-0.01,0.241-0.034l13.865-3.991C86.331,33.811,86.598,33.327,86.464,32.865z"/>
<path d="M62.102,25.991c0.194,0,0.391-0.065,0.551-0.199l16.594-13.654c0.373-0.304,0.426-0.853,0.12-1.224
	c-0.308-0.369-0.856-0.427-1.224-0.119L61.549,24.449c-0.373,0.305-0.425,0.853-0.119,1.224
	C61.602,25.882,61.85,25.991,62.102,25.991z"/>
<path d="M50.227,16.27c0.104,0.042,0.213,0.062,0.319,0.062c0.349,0,0.675-0.209,0.81-0.551l5.459-13.868
	c0.177-0.447-0.043-0.953-0.489-1.128c-0.444-0.173-0.95,0.043-1.13,0.492l-5.457,13.865C49.559,15.589,49.779,16.095,50.227,16.27z
	"/>
</svg>
