<?xml version="1.0" encoding="utf-8"?>
<!-- Generator: Adobe Illustrator 16.0.4, SVG Export Plug-In . SVG Version: 6.00 Build 0)  -->
<!DOCTYPE svg PUBLIC "-//W3C//DTD SVG 1.1//EN" "http://www.w3.org/Graphics/SVG/1.1/DTD/svg11.dtd">
<svg version="1.1" id="Layer_1" xmlns="http://www.w3.org/2000/svg" xmlns:xlink="http://www.w3.org/1999/xlink" x="0px" y="0px"
	 width="90px" height="90px" viewBox="0 0 90 90" enable-background="new 0 0 90 90" xml:space="preserve">
<path d="M32.487,10.775c-0.213-0.206-0.516-0.297-0.804-0.248c-0.293,0.05-0.544,0.238-0.674,0.506L1.113,72.609
	c-0.176,0.365-0.094,0.806,0.204,1.082l12.049,11.156c0.175,0.161,0.399,0.244,0.627,0.244c0.133,0,0.267-0.027,0.393-0.085
	l12.032-5.626l5.505,10.135C32.09,89.828,32.407,90,32.735,90c0.136,0,0.271-0.025,0.402-0.089l28.108-13.493
	c0.235-0.109,0.411-0.314,0.485-0.564c0.072-0.244,0.041-0.512-0.088-0.735L56.01,65.55l20.846-9.745
	c0.272-0.129,0.468-0.386,0.52-0.686c0.05-0.299-0.052-0.604-0.266-0.814L32.487,10.775z M58.813,75.319L33.615,87.096l-4.801-8.606
	l25.028-11.394L58.813,75.319z M27.388,75.236h-0.002l0,0l-11.223,5.295L5.967,71.008l26.699-55.477l39.301,38.677L27.388,75.236z"
	/>
<path d="M86.464,32.865c-0.111-0.389-0.368-1.007-1.077-0.796L71.324,36.06c-0.461,0.132-0.53,0.815-0.399,1.278
	c0.113,0.38,0.458,0.628,0.839,0.628c0.078,0,0.158-0.01,0.24-0.034l13.865-3.991C86.331,33.811,86.598,33.327,86.464,32.865z"/>
<path d="M62.201,26.091c0.194,0,0.491,0.035,0.65-0.099l16.595-13.654c0.373-0.304,0.227-1.053-0.079-1.424
	c-0.309-0.369-1.055-0.627-1.424-0.319L61.35,24.249c-0.373,0.305-0.226,1.053,0.08,1.424
	C61.602,25.882,61.949,26.091,62.201,26.091z"/>
<path d="M50.227,16.27c0.104,0.042,0.213,0.062,0.319,0.062c0.349,0,0.774-0.109,0.909-0.451l5.459-13.968
	c0.178-0.447-0.143-0.953-0.588-1.128c-0.444-0.173-1.05,0.043-1.23,0.492l-5.457,13.865C49.459,15.589,49.779,16.095,50.227,16.27z
	"/>
</svg>
