<svg xmlns="http://www.w3.org/2000/svg" xmlns:xlink="http://www.w3.org/1999/xlink" version="1.1" id="Layer_1" x="0px" y="0px" width="100px" height="100px" viewBox="0 0 100 100" enable-background="new 0 0 100 100" xml:space="preserve">
<g>
	<path d="M89.509,13.168h-7.154c-0.26-3.023-1.379-8.775-6.015-8.775c-4.632,0-5.751,5.752-6.012,8.775h-5.534   c-0.263-3.023-1.379-8.775-6.014-8.775c-4.632,0-5.752,5.752-6.013,8.775h-5.534c-0.261-3.023-1.381-8.775-6.015-8.775   c-4.634,0-5.751,5.752-6.013,8.775h-5.533c-0.261-3.023-1.38-8.775-6.014-8.775c-4.634,0-5.753,5.752-6.014,8.775H10.49   C6.861,13.168,0,15.363,0,23.658v4.393c0,0.942,0.763,1.705,1.705,1.705c0.941,0,1.715-0.763,1.715-1.705v-4.393   c0-6.819,6.349-7.07,7.07-7.07h8.775c0.942,0,1.705-0.764,1.705-1.704c0.011-2.47,0.806-7.082,2.688-7.082   c1.883,0,2.678,4.612,2.689,7.07c0,0.941,0.762,1.716,1.705,1.716h8.775c0.941,0,1.704-0.764,1.715-1.704   c0-2.47,0.795-7.082,2.677-7.082s2.677,4.612,2.677,7.07c0,0.941,0.774,1.716,1.716,1.716h8.775c0.941,0,1.705-0.764,1.705-1.704   c0.012-2.47,0.807-7.082,2.688-7.082c1.883,0,2.678,4.612,2.688,7.07c0,0.941,0.762,1.716,1.705,1.716h8.773   c0.942,0,1.706-0.764,1.716-1.704c0-2.47,0.795-7.082,2.677-7.082c1.884,0,2.679,4.612,2.679,7.07c0,0.941,0.775,1.716,1.715,1.716   h8.775c0.294,0,7.081,0.073,7.081,7.07v4.393c0,0.942,0.765,1.705,1.705,1.705S100,28.993,100,28.051v-4.393   C100,15.363,93.141,13.168,89.509,13.168z"/>
	<path d="M98.295,35.121c-0.94,0-1.705,0.763-1.705,1.704v48.289c0,0.296-0.084,7.082-7.081,7.082H10.49   c-0.292,0-7.07-0.084-7.07-7.082V36.825c0-0.941-0.774-1.704-1.715-1.704C0.763,35.121,0,35.884,0,36.825v48.289   c0,8.307,6.861,10.493,10.49,10.493h79.019c8.293,0,10.491-6.862,10.491-10.493V36.825C100,35.884,99.235,35.121,98.295,35.121z"/>
	<path d="M35.121,67.555c0,0.951,0.765,1.715,1.706,1.715h8.785c0.942,0,1.704-0.764,1.704-1.715c0-0.941-0.762-1.704-1.704-1.704   H39.18c0.752-1.173,2.05-2.469,3.252-3.671c2.396-2.405,4.883-4.887,4.883-7.793c0-4.477-3.649-6.098-6.097-6.098   s-6.098,1.621-6.098,6.098c0,0.941,0.765,1.705,1.706,1.705s1.715-0.764,1.715-1.705c0-2.375,1.882-2.667,2.677-2.678   c0.451,0,2.677,0.127,2.677,2.678c0,1.485-2.06,3.556-3.879,5.376C37.611,62.169,35.121,64.658,35.121,67.555z"/>
	<path d="M91.214,32.433c0-0.94-0.765-1.704-1.705-1.704H10.49c-0.941,0-1.715,0.764-1.715,1.704c0,0.953,0.773,1.716,1.715,1.716   h79.019C90.449,34.148,91.214,33.386,91.214,32.433z"/>
	<path d="M30.729,76.341c0,0.941,0.764,1.704,1.705,1.704h35.12c0.952,0,1.718-0.763,1.718-1.704s-0.766-1.705-1.718-1.705h-35.12   C31.493,74.636,30.729,75.399,30.729,76.341z"/>
	<path d="M58.78,69.27c4.478,0,6.1-3.649,6.1-6.097c0-1.376-0.51-3.124-1.744-4.395c1.234-1.272,1.744-3.021,1.744-4.392   c0-2.446-1.622-6.098-6.1-6.098c-4.477,0-6.097,3.651-6.097,6.098c0,1.371,0.51,3.119,1.743,4.392   c-1.233,1.271-1.743,3.019-1.743,4.395C52.684,65.62,54.304,69.27,58.78,69.27z M58.78,65.851c-2.374,0-2.668-1.883-2.688-2.668   c0.021-0.805,0.314-2.697,2.688-2.697s2.667,1.893,2.688,2.668C61.447,63.968,61.154,65.851,58.78,65.851z M58.78,51.709   c2.374,0,2.667,1.883,2.688,2.668c-0.021,0.805-0.314,2.697-2.688,2.697s-2.668-1.893-2.688-2.665   C56.112,53.592,56.406,51.709,58.78,51.709z"/>
</g>
</svg>