<?xml version="1.0" encoding="utf-8"?>
<!-- Generator: Adobe Illustrator 19.0.0, SVG Export Plug-In . SVG Version: 6.00 Build 0)  -->
<svg version="1.1" id="Layer_1" xmlns="http://www.w3.org/2000/svg" xmlns:xlink="http://www.w3.org/1999/xlink" x="0px" y="0px"
	 viewBox="0 0 500 500" style="enable-background:new 0 0 500 500;" xml:space="preserve">
<style type="text/css">
	.st0{fill:#010101;}
</style>
<path id="XMLID_5_" class="st0" d="M493.8,229.8c0-29.8,6-61.7-9.9-88c-13.4-22.9-39.3-28.8-63.6-28.8c-36.8,0-73.6,0-110.9,0
	c-41.8,0-83.5,0-124.8,0c-1.5-14.9-9-25.4-21.4-33.3c-9-6-17.9-5.5-28.3-5.5c-18.4,0-35.8-1.5-49.2,12.9c-6,7-10.4,16.4-12.4,25.9
	C35.4,115.4,5.5,144.3,5,184.5c-0.5,54.2-1,108.9,0,163.1c1.5,91,110.4,75.1,170.6,75.1c56.7,0,113.4,0,170.1,0
	c36.8,0,89,8,121.3-13.9c28.3-19.4,26.4-55.2,26.4-85.5C493.8,292.4,493.8,261.1,493.8,229.8z M125.9,106.5c6.5,0,12.4,0,18.9,0
	c0.5,0,1,1.5,1.5,1.5c1.5,1,3.5,3,4.5,5c-13.4,0-27.3,0-40.8,0C112.9,107,117.4,106.5,125.9,106.5z M462.5,354.6
	c-7,44.3-77.1,29.8-109.9,29.8c-91,0-182,0-273,0c-55.7,0-40.3-94.5-40.3-132.3c0-35.3-13.4-99.9,39.3-106.4c77.1,0,154.1,0,231.2,0
	c36.8,0,73.6,0,110.9,0c45.2,0,42.3,38.3,42.3,75.6C463,264.1,469,311.8,462.5,354.6z"/>
<path id="XMLID_2_" class="st0" d="M341.7,272.5c0-2,0-3.5-0.5-5c-5-48.7-40.8-83-90-85.5c-51.2-3-88,43.3-90.5,90.5
	c-3,51.2,43.3,88,90.5,90.5c49.2,2.5,85-40.3,90-85.5C341.7,276,341.7,274.5,341.7,272.5z M194.5,272.5c-4-73.1,109.4-72.6,113.4,0
	C303.9,345.6,198.5,345.6,194.5,272.5z"/>
</svg>
