<?xml version="1.0" encoding="utf-8"?>
<!-- Generator: Adobe Illustrator 19.0.0, SVG Export Plug-In . SVG Version: 6.00 Build 0)  -->
<svg version="1.1" id="Layer_1" xmlns="http://www.w3.org/2000/svg" xmlns:xlink="http://www.w3.org/1999/xlink" x="0px" y="0px"
	 viewBox="0 0 1000 1000" enable-background="new 0 0 1000 1000" xml:space="preserve">
<g>
	<path id="XMLID_4_" fill="#201D1D" d="M527.2,264.7c-57.7-3.8-112.8,16.2-151,55.3l50.3,64.6c22.4-23.5,51.7-38.3,85.1-36.2
		c36.9,2.4,51.2,20.9,49.7,41.7c-3.1,46.3-101.5,49.1-106.8,128.9c-1.5,23.5,5.1,44.1,18.2,60.4l74.5-16.7
		c-6.3-6.5-10.9-18.2-10.3-29c3.7-56.3,116.2-56.3,122.6-154.1C663.6,317.6,613.6,270.5,527.2,264.7z"/>
	<path id="XMLID_3_" fill="#201D1D" d="M502.4,617.2c-29.5-1.9-55.9,21.2-57.8,50.6c-1.9,29.5,21.2,55.9,50.6,57.8
		c29.5,1.9,55.9-21.2,57.8-50.6C555.1,645.6,531.9,619.1,502.4,617.2z"/>
	<path fill="#201D1D" d="M500,7.7C228.6,7.7,7.7,228.6,7.7,500S228.6,992.3,500,992.3S992.3,771.4,992.3,500S771.4,7.7,500,7.7z
		 M500,961.2C245.8,961.2,38.8,754.2,38.8,500S245.8,38.8,500,38.8S961.2,245.8,961.2,500S754.2,961.2,500,961.2z"/>
</g>
</svg>
