<?xml version="1.0" encoding="utf-8"?>
<!-- Generator: Adobe Illustrator 19.0.1, SVG Export Plug-In . SVG Version: 6.00 Build 0)  -->
<svg version="1.1" id="Calque_1" xmlns="http://www.w3.org/2000/svg" xmlns:xlink="http://www.w3.org/1999/xlink" x="0px" y="0px"
	 viewBox="0 0 1024 768" style="enable-background:new 0 0 1024 768;" xml:space="preserve">
<style type="text/css">
	.st0{fill:#201D1D;}
</style>
<g>
	<path class="st0" d="M533.2,200.5c-45-3-88,12.6-117.8,43.1l39.2,50.4c17.5-18.3,40.3-29.9,66.4-28.2c28.8,1.9,39.9,16.3,38.8,32.5
		c-2.4,36.1-79.2,38.3-83.3,100.5c-1.2,18.3,4,34.4,14.2,47.1l58.1-13c-4.9-5.1-8.5-14.2-8-22.6c2.9-43.9,90.6-43.9,95.6-120.2
		C639.6,241.7,600.6,205,533.2,200.5z"/>
	<path class="st0" d="M513.9,475.4c-23-1.5-43.6,16.5-45.1,39.5c-1.5,23,16.5,43.6,39.5,45.1c23,1.5,43.6-16.5,45.1-39.5
		C555,497.6,536.9,476.9,513.9,475.4z"/>
	<path class="st0" d="M512,0C300.3,0,128,172.3,128,384s172.3,384,384,384c211.7,0,384-172.3,384-384S723.7,0,512,0z M512,743.7
		c-198.3,0-359.7-161.4-359.7-359.7S313.7,24.3,512,24.3c198.3,0,359.7,161.4,359.7,359.7S710.3,743.7,512,743.7z"/>
</g>
</svg>
