<?xml version="1.0" encoding="utf-8"?>
<!-- Generator: Adobe Illustrator 19.0.0, SVG Export Plug-In . SVG Version: 6.00 Build 0)  -->
<svg version="1.1" id="Layer_1" xmlns="http://www.w3.org/2000/svg" xmlns:xlink="http://www.w3.org/1999/xlink" x="0px" y="0px"
	 viewBox="0 0 1000 1000" enable-background="new 0 0 1000 1000" xml:space="preserve">
<g>
	<g>
		<path fill="#201D1D" d="M242.7,381c-35.6,0-64.3,28.8-64.3,64.3c0,35.4,28.8,64.3,64.3,64.3c35.6,0,64.3-28.8,64.3-64.3
			S278.3,381,242.7,381z M757.2,381c-35.6,0-64.3,28.8-64.3,64.3c0,35.4,28.8,64.3,64.3,64.3s64.3-28.8,64.3-64.3
			C821.5,409.8,792.7,381,757.2,381z M500,381c-35.6,0-64.3,28.8-64.3,64.3c0,35.4,28.8,64.3,64.3,64.3c35.6,0,64.3-28.8,64.3-64.3
			S535.6,381,500,381z"/>
	</g>
</g>
<path fill="#201D1D" d="M500,17.4C228.7,17.4,7.8,210.7,7.8,448.2c0,144.3,68.9,270.3,189.3,347v171.7c0,5.4,2.8,10.4,7.4,13.3
	c2.5,1.6,5.5,2.5,8.4,2.5c2.3,0,4.7-0.5,6.8-1.5L435.6,879c6.2,0,22.4,0,64.5,0c271.3,0,492.1-193.2,492.1-430.7
	C992.1,210.7,771.3,17.4,500,17.4z M500,847.2h-57.6c-2.8,0-5.8,0-8.5,0.1c-0.6-0.1-1.4-0.1-2.1-0.1v0.4c-2.3,0.3-4.5,0.6-6.5,1.4
	v-0.1l-196.4,93V793.9c0-1.3-0.1-2.5-0.5-3.8c1.6-6.5-1.1-13.6-7.2-17.2C104,701.6,39.5,586.2,39.5,448.2
	C39.5,228,246.1,49.1,500,49.1s460.5,179.1,460.5,399.1S753.9,847.2,500,847.2z"/>
</svg>
