<?xml version="1.0" encoding="utf-8"?>
<!-- Generator: Adobe Illustrator 19.0.1, SVG Export Plug-In . SVG Version: 6.00 Build 0)  -->
<svg version="1.1" id="Calque_1" xmlns="http://www.w3.org/2000/svg" xmlns:xlink="http://www.w3.org/1999/xlink" x="0px" y="0px"
	 viewBox="0 0 1024 768" style="enable-background:new 0 0 1024 768;" xml:space="preserve">
<style type="text/css">
	.st0{fill-rule:evenodd;clip-rule:evenodd;fill:#201D1D;}
	.st1{fill:#201D1D;}
</style>
<g>
	<g>
		<path class="st0" d="M307.3,289.3c-28.3,0-51.2,22.9-51.2,51.2c0,28.2,22.9,51.2,51.2,51.2c28.3,0,51.2-22.9,51.2-51.2
			C358.5,312.2,335.6,289.3,307.3,289.3z M716.7,289.3c-28.3,0-51.2,22.9-51.2,51.2c0,28.2,22.9,51.2,51.2,51.2
			c28.3,0,51.2-22.9,51.2-51.2C767.8,312.2,744.9,289.3,716.7,289.3z M512,289.3c-28.3,0-51.2,22.9-51.2,51.2
			c0,28.2,22.9,51.2,51.2,51.2c28.3,0,51.2-22.9,51.2-51.2C563.2,312.2,540.3,289.3,512,289.3z"/>
	</g>
</g>
<path class="st1" d="M512,0C296.1,0,120.4,153.8,120.4,342.8c0,114.8,54.8,215.1,150.6,276.1v136.6c0,4.3,2.2,8.3,5.9,10.6
	c2,1.3,4.4,2,6.7,2c1.8,0,3.7-0.4,5.4-1.2l171.8-81.3c4.9,0,17.8,0,51.3,0c215.9,0,391.6-153.7,391.6-342.7
	C903.6,153.8,727.9,0,512,0z M512,660.3l-45.8,0c-2.2,0-4.6,0-6.8,0.1c-0.5-0.1-1.1-0.1-1.7-0.1l0,0.3c-1.8,0.2-3.6,0.5-5.2,1.1
	l0-0.1l-156.3,74V617.9c0-1-0.1-2-0.4-3c1.3-5.2-0.9-10.8-5.7-13.7c-93.2-56.8-144.5-148.6-144.5-258.4
	C145.6,167.6,310,25.2,512,25.2c202,0,366.4,142.5,366.4,317.6C878.4,517.9,714,660.3,512,660.3z"/>
</svg>
