<?xml version="1.0" encoding="utf-8"?>
<!-- Generator: Adobe Illustrator 19.0.0, SVG Export Plug-In . SVG Version: 6.00 Build 0)  -->
<svg version="1.1" id="Layer_1" xmlns="http://www.w3.org/2000/svg" xmlns:xlink="http://www.w3.org/1999/xlink" x="0px" y="0px"
	 viewBox="0 0 1000 1000" enable-background="new 0 0 1000 1000" xml:space="preserve">
<g id="Page-1">
	<g id="clock">
		<path id="Shape" fill="#010101" d="M499.9,978.8c-263.3,0-476.8-214.5-476.8-479.2
			S236.6,20.4,499.9,20.4s476.8,214.5,476.8,479.2S763.2,978.8,499.9,978.8L499.9,978.8z M499.9,100.8
			c-218.9,0-396.8,179-396.8,398.8s178.1,398.8,396.8,398.8s396.8-179,396.8-398.8S718.7,100.8,499.9,100.8L499.9,100.8z
			 M615.7,661.1c-10.7,0-21.5-4.2-29.5-12.6L458.7,516.3V250.4c0-22.8,18.3-41.3,41.1-41.3c22.7,0,41.1,18.5,41.1,41.3V483
			L645,591.2c15.7,16.3,15.3,42.6-0.9,58.4C636.3,657.2,625.9,661.1,615.7,661.1L615.7,661.1z"/>
	</g>
</g>
</svg>
