<?xml version="1.0" encoding="utf-8"?>
<!-- Generator: Adobe Illustrator 16.0.4, SVG Export Plug-In . SVG Version: 6.00 Build 0)  -->
<!DOCTYPE svg PUBLIC "-//W3C//DTD SVG 1.1//EN" "http://www.w3.org/Graphics/SVG/1.1/DTD/svg11.dtd">
<svg version="1.1" id="Layer_1" xmlns="http://www.w3.org/2000/svg" xmlns:xlink="http://www.w3.org/1999/xlink" x="0px" y="0px"
	 width="128px" height="133.168px" viewBox="0 0 128 133.168" enable-background="new 0 0 128 133.168" xml:space="preserve">
<path d="M82.023,45.986l2.438,9.75c4.391,0.796,8.454,2.509,11.984,4.956l8.609-5.166l4.352,4.35l-5.166,8.612
	c2.445,3.529,4.16,7.594,4.955,11.981l9.75,2.439v6.153l-9.75,2.437c-0.795,4.39-2.51,8.455-4.955,11.983l5.166,8.609l-4.352,4.352
	l-8.609-5.166c-3.53,2.447-7.596,4.16-11.984,4.955l-2.438,9.752H75.87l-2.438-9.752c-4.39-0.795-8.453-2.508-11.982-4.955
	l-8.611,5.166l-4.351-4.352l5.167-8.609c-2.447-3.528-4.16-7.596-4.957-11.983l-9.75-2.437V82.91l9.75-2.439
	c0.796-4.389,2.51-8.453,4.957-11.981l-5.167-8.612l4.351-4.35l8.611,5.166c3.529-2.447,7.595-4.16,11.982-4.956l2.438-9.75
	L82.023,45.986 M78.945,108.799c12.601,0,22.812-10.215,22.812-22.812c0-12.6-10.214-22.812-22.812-22.812
	c-12.598,0-22.812,10.213-22.812,22.812C56.133,98.584,66.348,108.799,78.945,108.799 M82.232,39.986h-6.573
	c-1.507,0-2.822,1.026-3.188,2.488l-2.104,8.422c-3.607,0.874-7.017,2.283-10.174,4.206l-7.435-4.461
	c-0.525-0.314-1.109-0.467-1.69-0.467c-0.85,0-1.691,0.329-2.324,0.963l-4.646,4.646c-1.066,1.065-1.27,2.721-0.494,4.013
	l4.461,7.435c-1.924,3.16-3.333,6.566-4.206,10.176l-8.421,2.104c-1.463,0.365-2.49,1.68-2.49,3.188v6.572
	c0,1.507,1.027,2.822,2.49,3.187l8.421,2.106c0.874,3.607,2.284,7.016,4.206,10.175l-4.461,7.435
	c-0.776,1.294-0.572,2.95,0.494,4.016l4.646,4.644c0.633,0.635,1.475,0.963,2.324,0.963c0.581,0,1.165-0.152,1.69-0.469l7.435-4.46
	c3.157,1.919,6.566,3.332,10.174,4.206l2.104,8.421c0.366,1.462,1.682,2.491,3.188,2.491h6.573c1.508,0,2.822-1.029,3.188-2.491
	l2.105-8.421c3.609-0.874,7.016-2.287,10.176-4.206l7.434,4.46c0.524,0.314,1.111,0.469,1.692,0.469
	c0.851,0,1.689-0.328,2.324-0.963l4.646-4.644c1.067-1.068,1.27-2.722,0.492-4.016l-4.46-7.435
	c1.922-3.159,3.334-6.567,4.205-10.175l8.423-2.106c1.463-0.364,2.489-1.68,2.489-3.187V82.7c0-1.509-1.026-2.823-2.489-3.188
	l-8.423-2.104c-0.871-3.609-2.283-7.016-4.205-10.176l4.46-7.435c0.777-1.292,0.573-2.948-0.492-4.013l-4.646-4.646
	c-0.633-0.633-1.474-0.963-2.324-0.963c-0.581,0-1.166,0.153-1.692,0.467l-7.434,4.461c-3.159-1.923-6.566-3.332-10.176-4.206
	l-2.105-8.422C85.055,41.013,83.74,39.986,82.232,39.986L82.232,39.986z M78.945,103.986c-9.924,0-18-8.074-18-18s8.074-18,18-18
	c9.927,0,18,8.074,18,18S88.872,103.986,78.945,103.986L78.945,103.986z M23.793,4.889l2.953,4.826
	c2.49-0.313,4.964-0.078,7.271,0.64l3.753-4.226l3.07,1.603l-1.322,5.495c1.911,1.483,3.516,3.377,4.683,5.6l5.648-0.336
	l1.039,3.306l-4.826,2.951c0.312,2.491,0.079,4.965-0.641,7.272l4.228,3.753l-1.602,3.07l-5.496-1.321
	c-1.483,1.91-3.376,3.513-5.6,4.684l0.338,5.647l-3.305,1.038l-2.955-4.826c-2.491,0.312-4.963,0.079-7.271-0.641l-3.753,4.227
	l-3.07-1.603l1.322-5.496c-1.911-1.483-3.515-3.377-4.683-5.6l-5.647,0.337l-1.039-3.305l4.826-2.954
	c-0.313-2.491-0.078-4.964,0.641-7.272l-4.228-3.753l1.603-3.069l5.495,1.321c1.483-1.91,3.376-3.514,5.599-4.683l-0.334-5.648
	L23.793,4.889 M32.851,39.506c6.969-2.189,10.845-9.613,8.655-16.581c-2.188-6.968-9.612-10.843-16.582-8.654
	c-6.968,2.189-10.844,9.612-8.654,16.582C18.459,37.821,25.882,41.695,32.851,39.506 M22.763,1.087l-3.604,1.132
	c-0.828,0.26-1.372,1.049-1.32,1.915l0.296,4.982c-1.829,1.102-3.456,2.461-4.857,4.062L8.43,12.011
	c-0.342-0.082-0.689-0.066-1.007,0.035c-0.467,0.146-0.872,0.472-1.11,0.929l-1.748,3.35c-0.402,0.768-0.228,1.712,0.42,2.287
	l3.729,3.311C8.203,23.986,8.017,26.1,8.16,28.23l-4.257,2.606c-0.74,0.453-1.076,1.351-0.816,2.178l1.132,3.604
	c0.26,0.828,1.049,1.372,1.915,1.32l4.983-0.296c1.101,1.829,2.461,3.456,4.062,4.857l-1.167,4.848
	c-0.203,0.843,0.195,1.717,0.964,2.117l3.35,1.749c0.456,0.238,0.975,0.273,1.441,0.127c0.318-0.1,0.613-0.285,0.846-0.549
	l3.31-3.728c2.065,0.51,4.177,0.697,6.307,0.555l2.606,4.256c0.453,0.74,1.351,1.076,2.178,0.816l3.604-1.132
	c0.828-0.26,1.372-1.05,1.32-1.915l-0.295-4.982c1.83-1.101,3.455-2.462,4.858-4.061l4.847,1.166
	c0.343,0.083,0.689,0.066,1.008-0.034c0.466-0.146,0.871-0.472,1.109-0.928l1.749-3.35c0.402-0.769,0.228-1.711-0.42-2.288
	l-3.729-3.311c0.51-2.065,0.696-4.177,0.555-6.307l4.257-2.607c0.739-0.452,1.076-1.35,0.816-2.177l-1.132-3.605
	c-0.26-0.827-1.049-1.372-1.915-1.32l-4.983,0.296c-1.102-1.829-2.462-3.457-4.062-4.857l1.167-4.848
	c0.202-0.843-0.194-1.717-0.963-2.117l-3.351-1.749c-0.457-0.238-0.975-0.273-1.441-0.127c-0.319,0.1-0.613,0.285-0.847,0.548
	l-3.309,3.729c-2.064-0.511-4.177-0.697-6.308-0.555l-2.607-4.257C24.489,1.163,23.591,0.827,22.763,1.087L22.763,1.087z
	 M31.734,35.951c-4.997,1.569-10.338-1.219-11.909-6.216c-1.57-4.997,1.219-10.34,6.216-11.909
	c4.997-1.569,10.338,1.218,11.909,6.215C39.521,29.038,36.732,34.382,31.734,35.951L31.734,35.951z"/>
</svg>
