<?xml version="1.0" encoding="utf-8"?>
<!-- Generator: Adobe Illustrator 16.0.4, SVG Export Plug-In . SVG Version: 6.00 Build 0)  -->
<!DOCTYPE svg PUBLIC "-//W3C//DTD SVG 1.1//EN" "http://www.w3.org/Graphics/SVG/1.1/DTD/svg11.dtd">
<svg version="1.1" id="Layer_1" xmlns="http://www.w3.org/2000/svg" xmlns:xlink="http://www.w3.org/1999/xlink" x="0px" y="0px"
	 width="128px" height="133.168px" viewBox="0 0 128 133.168" enable-background="new 0 0 128 133.168" xml:space="preserve">
<path d="M82.024,45.986l2.437,9.75c4.39,0.796,8.454,2.509,11.984,4.956l8.61-5.166l4.351,4.35l-5.166,8.612
	c2.446,3.529,4.161,7.594,4.956,11.982l9.75,2.439v6.154l-9.75,2.436c-0.795,4.389-2.51,8.455-4.956,11.984l5.166,8.609
	l-4.351,4.352l-8.61-5.166c-3.53,2.447-7.595,4.16-11.984,4.955l-2.437,9.752H75.87l-2.438-9.752
	c-4.39-0.795-8.454-2.508-11.983-4.955l-8.611,5.166l-4.351-4.352l5.167-8.609c-2.447-3.529-4.16-7.596-4.957-11.984l-9.75-2.436
	V82.91l9.75-2.439c0.796-4.389,2.51-8.453,4.957-11.982l-5.167-8.612l4.351-4.35l8.611,5.166c3.529-2.447,7.595-4.16,11.983-4.956
	l2.438-9.75H82.024 M78.946,108.799c12.6,0,22.812-10.215,22.812-22.812c0-12.6-10.214-22.813-22.812-22.813
	S56.133,73.387,56.133,85.986C56.133,98.584,66.348,108.799,78.946,108.799 M82.206,40.359h-6.52c-1.494,0-2.799,1.018-3.162,2.468
	l-2.088,8.354c-3.579,0.867-6.96,2.265-10.092,4.172l-7.375-4.425c-0.521-0.312-1.1-0.464-1.676-0.464
	c-0.843,0-1.678,0.326-2.305,0.955l-4.609,4.609c-1.058,1.057-1.26,2.699-0.49,3.981l4.425,7.375
	c-1.908,3.133-3.306,6.512-4.172,10.092l-8.353,2.088c-1.451,0.363-2.469,1.666-2.469,3.162v6.52c0,1.494,1.018,2.799,2.469,3.16
	l8.353,2.09c0.867,3.578,2.265,6.959,4.172,10.092l-4.425,7.375c-0.77,1.283-0.567,2.926,0.49,3.982l4.609,4.607
	c0.627,0.629,1.462,0.955,2.305,0.955c0.576,0,1.155-0.152,1.676-0.465l7.375-4.424c3.132,1.904,6.513,3.305,10.092,4.172
	l2.088,8.352c0.363,1.451,1.668,2.471,3.162,2.471h6.52c1.495,0,2.799-1.02,3.161-2.471l2.089-8.352
	c3.58-0.867,6.959-2.268,10.094-4.172l7.373,4.424c0.521,0.311,1.102,0.465,1.678,0.465c0.844,0,1.677-0.326,2.306-0.955
	l4.608-4.607c1.059-1.059,1.26-2.699,0.489-3.982l-4.424-7.375c1.906-3.133,3.306-6.514,4.171-10.092l8.354-2.09
	c1.451-0.361,2.47-1.666,2.47-3.16v-6.52c0-1.496-1.019-2.799-2.47-3.162l-8.354-2.088c-0.865-3.58-2.265-6.959-4.171-10.092
	l4.424-7.375c0.771-1.282,0.568-2.924-0.489-3.981l-4.608-4.609c-0.628-0.628-1.462-0.955-2.306-0.955
	c-0.576,0-1.155,0.152-1.678,0.464l-7.373,4.425c-3.134-1.907-6.514-3.305-10.094-4.172l-2.089-8.354
	C85.005,41.377,83.701,40.359,82.206,40.359L82.206,40.359z M78.946,103.986c-9.925,0-18-8.074-18-18s8.073-18,18-18
	c9.926,0,18,8.074,18,18S88.872,103.986,78.946,103.986L78.946,103.986z M23.721,4.577l2.995,4.894
	c2.525-0.317,5.034-0.079,7.374,0.649l3.806-4.286l3.114,1.625l-1.341,5.573c1.938,1.504,3.566,3.425,4.749,5.679l5.729-0.341
	l1.053,3.353l-4.894,2.993c0.317,2.526,0.08,5.035-0.65,7.375l4.288,3.806l-1.625,3.114l-5.574-1.34
	c-1.504,1.937-3.424,3.563-5.679,4.75l0.342,5.727L34.056,49.2l-2.997-4.894c-2.526,0.317-5.033,0.08-7.374-0.65l-3.806,4.287
	l-3.114-1.625l1.341-5.574c-1.938-1.504-3.565-3.425-4.75-5.679l-5.727,0.342l-1.054-3.352l4.894-2.996
	c-0.317-2.526-0.079-5.034,0.65-7.375l-4.288-3.806l1.626-3.113l5.573,1.34c1.504-1.937,3.424-3.564,5.678-4.749l-0.339-5.728
	L23.721,4.577 M32.851,39.506c6.969-2.189,10.845-9.613,8.655-16.581c-2.188-6.968-9.612-10.843-16.582-8.654
	c-6.968,2.189-10.844,9.612-8.654,16.582C18.459,37.821,25.882,41.695,32.851,39.506 M22.763,1.087l-3.604,1.132
	c-0.828,0.26-1.372,1.049-1.32,1.915l0.296,4.982c-1.829,1.102-3.456,2.461-4.857,4.062L8.43,12.011
	c-0.342-0.082-0.689-0.066-1.007,0.035c-0.467,0.146-0.872,0.472-1.11,0.929l-1.748,3.35c-0.402,0.768-0.228,1.712,0.42,2.287
	l3.729,3.311C8.203,23.986,8.017,26.1,8.16,28.23l-4.257,2.606c-0.74,0.453-1.076,1.351-0.816,2.178l1.132,3.604
	c0.26,0.828,1.049,1.372,1.915,1.32l4.983-0.296c1.101,1.829,2.461,3.456,4.062,4.857l-1.167,4.848
	c-0.203,0.843,0.195,1.717,0.964,2.117l3.35,1.749c0.456,0.238,0.975,0.273,1.441,0.127c0.318-0.1,0.613-0.285,0.846-0.549
	l3.31-3.728c2.065,0.51,4.177,0.697,6.307,0.555l2.606,4.256c0.453,0.74,1.351,1.076,2.178,0.816l3.604-1.132
	c0.828-0.26,1.372-1.05,1.32-1.915l-0.295-4.982c1.83-1.101,3.455-2.462,4.858-4.061l4.847,1.166
	c0.343,0.083,0.689,0.066,1.008-0.034c0.466-0.146,0.871-0.472,1.109-0.928l1.749-3.35c0.402-0.769,0.228-1.711-0.42-2.288
	l-3.729-3.311c0.51-2.065,0.696-4.177,0.555-6.307l4.257-2.607c0.739-0.452,1.076-1.35,0.816-2.177l-1.132-3.605
	c-0.26-0.827-1.049-1.372-1.915-1.32l-4.983,0.296c-1.102-1.829-2.462-3.457-4.062-4.857l1.167-4.848
	c0.202-0.843-0.194-1.717-0.963-2.117l-3.351-1.749c-0.457-0.238-0.975-0.273-1.441-0.127c-0.319,0.1-0.613,0.285-0.847,0.548
	l-3.309,3.729c-2.064-0.511-4.177-0.697-6.308-0.555l-2.607-4.257C24.489,1.163,23.591,0.827,22.763,1.087L22.763,1.087z
	 M31.884,36.428c-5.26,1.652-10.883-1.283-12.536-6.543c-1.652-5.26,1.283-10.884,6.543-12.536
	c5.26-1.652,10.883,1.282,12.536,6.542C40.08,29.151,37.145,34.776,31.884,36.428L31.884,36.428z"/>
</svg>
