<?xml version="1.0" encoding="UTF-8" standalone="no"?>
<svg width="22px" height="20px" viewBox="0 0 22 20" version="1.1" xmlns="http://www.w3.org/2000/svg" xmlns:xlink="http://www.w3.org/1999/xlink" xmlns:sketch="http://www.bohemiancoding.com/sketch/ns">
    <!-- Generator: Sketch 3.2.2 (9983) - http://www.bohemiancoding.com/sketch -->
    <title>comment</title>
    <desc>Created with Sketch.</desc>
    <defs></defs>
    <g id="Page-1" stroke="none" stroke-width="1" fill="none" fill-rule="evenodd" sketch:type="MSPage">
        <g id="comment" sketch:type="MSLayerGroup" fill="#000000">
            <g id="miu" sketch:type="MSShapeGroup">
                <g id="bubble_talk_chat_">
                    <path d="M21.328,9.074 C21.328,14.001 16.704,17.993 11,17.993 C9.383,17.993 7.854,17.674 6.491,17.101 L1.391,19.434 C1.391,19.434 1.5416032,18.8261064 1.6169048,18.5221596 C1.63163124,18.4627179 1.6469844,18.4007465 1.66288428,18.3365684 C2.02058883,16.8927324 2.655,14.332 2.655,14.332 C1.407,12.857 0.671,11.04 0.671,9.073 C0.672,4.148 5.296,0.155 11,0.155 C16.704,0.155 21.328,4.148 21.328,9.074 Z M20.4602616,9.13453207 C20.4602616,13.6475952 16.2247424,17.2190184 10.9999582,17.2190184 C9.51880876,17.2190184 7.68844764,16.7128229 6.43995869,16.1879629 L2.52212101,18.1302103 L3.53445947,14.0335049 C2.39130891,12.6824255 1.53873837,10.9353606 1.53873837,9.13361608 C1.53965435,4.62238492 5.77517372,0.964852738 10.999958,0.964852738 C16.2247423,0.964852738 20.4602616,4.62238492 20.4602616,9.13453207 Z" id="path-1"></path>
                </g>
            </g>
        </g>
    </g>
</svg>