<?xml version="1.0" encoding="utf-8"?>
<!-- Generator: Adobe Illustrator 16.0.4, SVG Export Plug-In . SVG Version: 6.00 Build 0)  -->
<!DOCTYPE svg PUBLIC "-//W3C//DTD SVG 1.1//EN" "http://www.w3.org/Graphics/SVG/1.1/DTD/svg11.dtd">
<svg version="1.1" id="Layer_1" xmlns:sketch="http://www.bohemiancoding.com/sketch/ns"
	 xmlns="http://www.w3.org/2000/svg" xmlns:xlink="http://www.w3.org/1999/xlink" x="0px" y="0px" width="22px" height="22px"
	 viewBox="0 0 22 22" enable-background="new 0 0 22 22" xml:space="preserve">
<title>bubble_talk_chat_</title>
<description>Created with Sketch.</description>
<g id="miu" sketch:type="MSPage">
	<g id="bubble_talk_chat_">
		<g sketch:type="MSShapeGroup">
			<path id="path-1" d="M11,1.466c6.075,0,11,4.253,11,9.5c0,5.247-4.925,9.5-11,9.5c-1.722,0-3.351-0.341-4.802-0.95L0.766,22
				l1.347-5.434C0.784,14.996,0,13.061,0,10.966C0,5.719,4.925,1.466,11,1.466z M11,2.466c-5.523,0-10,3.806-10,8.5
				c0,2.01,0.82,3.856,2.192,5.312l-1.124,4.219l4.008-2.131C7.529,19.066,9.21,19.466,11,19.466c5.523,0,10-3.806,10-8.5
				S16.523,2.466,11,2.466z"/>
		</g>
		<g>
			<path id="path-1_1_" fill="none" d="M11,1.466c6.075,0,11,4.253,11,9.5c0,5.247-4.925,9.5-11,9.5
				c-1.722,0-3.351-0.341-4.802-0.95L0.766,22l1.347-5.434C0.784,14.996,0,13.061,0,10.966C0,5.719,4.925,1.466,11,1.466z M11,2.466
				c-5.523,0-10,3.806-10,8.5c0,2.01,0.82,3.856,2.192,5.312l-1.124,4.219l4.008-2.131C7.529,19.066,9.21,19.466,11,19.466
				c5.523,0,10-3.806,10-8.5S16.523,2.466,11,2.466z"/>
		</g>
	</g>
</g>
</svg>
