<?xml version="1.0" encoding="utf-8"?>
<!-- Generator: Adobe Illustrator 16.0.4, SVG Export Plug-In . SVG Version: 6.00 Build 0)  -->
<!DOCTYPE svg PUBLIC "-//W3C//DTD SVG 1.1//EN" "http://www.w3.org/Graphics/SVG/1.1/DTD/svg11.dtd">
<svg version="1.1" id="Layer_1" xmlns:sketch="http://www.bohemiancoding.com/sketch/ns"
	 xmlns="http://www.w3.org/2000/svg" xmlns:xlink="http://www.w3.org/1999/xlink" x="0px" y="0px" width="22px" height="20px"
	 viewBox="0 0 22 20" enable-background="new 0 0 22 20" xml:space="preserve">
<title>comment</title>
<desc>Created with Sketch.</desc>
<path id="Page-1" sketch:type="MSPage" d="M21.328,9.074c0,4.927-4.624,8.919-10.328,8.919
	c-1.617,0-3.146-0.319-4.509-0.892l-5.1,2.332c0,0,0.15-0.607,0.226-0.912c0.015-0.059,0.03-0.121,0.046-0.186
	c0.357-1.443,0.992-4.004,0.992-4.004c-1.248-1.475-1.984-3.292-1.984-5.259C0.672,4.148,5.296,0.155,11,0.155
	S21.328,4.148,21.328,9.074z M20.461,9.135c0,4.513-4.236,8.084-9.461,8.084c-1.481,0-3.312-0.506-4.56-1.031l-3.918,1.943
	l1.013-4.098c-1.144-1.351-1.996-3.098-1.996-4.899C1.54,4.623,5.775,0.965,11,0.965S20.461,4.623,20.461,9.135z"/>
</svg>
