<?xml version="1.0" encoding="utf-8"?>
<!-- Generator: Adobe Illustrator 16.0.4, SVG Export Plug-In . SVG Version: 6.00 Build 0)  -->
<!DOCTYPE svg PUBLIC "-//W3C//DTD SVG 1.1//EN" "http://www.w3.org/Graphics/SVG/1.1/DTD/svg11.dtd">
<svg version="1.1" id="Layer_1" xmlns="http://www.w3.org/2000/svg" xmlns:xlink="http://www.w3.org/1999/xlink" x="0px" y="0px"
	 width="100px" height="100px" viewBox="0 0 100 100" enable-background="new 0 0 100 100" xml:space="preserve">
<path d="M83.527,1.342H24.565c-6.712,0-12.172,5.46-12.172,12.171c0,0.708,0.808,1.375,2.361,1.375c2.065,0,2.718-0.667,2.718-1.375
	c0-5.298,1.795-7.092,7.093-7.092h58.962c5.298,0,7.092,1.794,7.092,7.092v72.975c0,5.297-1.794,7.092-7.092,7.092H24.565
	c-5.298,0-7.093-1.795-7.093-7.092c0-0.708-0.299-1.508-2.58-1.508c-2.32,0-2.499,0.8-2.499,1.508
	c0,6.711,5.46,12.171,12.172,12.171h58.962c6.711,0,12.171-5.46,12.171-12.171V13.513C95.698,6.802,90.238,1.342,83.527,1.342z
	 M5.582,25.931h16.184c0.707,0,1.28-0.894,1.28-2c0-1.105-0.573-2-1.28-2H5.582c-0.708,0-1.28,0.894-1.28,2
	C4.302,25.037,4.874,25.931,5.582,25.931z M5.582,43.31h16.184c0.707,0,1.28-0.895,1.28-2c0-1.105-0.573-2-1.28-2H5.582
	c-0.708,0-1.28,0.893-1.28,2C4.302,42.415,4.874,43.31,5.582,43.31z M5.582,60.69h16.184c0.707,0,1.28-0.895,1.28-1.999
	c0-1.104-0.573-2.001-1.28-2.001H5.582c-0.708,0-1.28,0.895-1.28,2.001C4.302,59.796,4.874,60.69,5.582,60.69z M23.047,76.073
	c0-1.104-0.572-2-1.28-2H5.582c-0.708,0-1.28,0.895-1.28,2s0.572,2,1.28,2h16.184C22.475,78.073,23.047,77.179,23.047,76.073z
	 M33.28,70.846c0.092,0.631,0.633,1.098,1.269,1.098h40.936c0.637,0,1.178-0.469,1.27-1.098c0.062-0.44,1.501-10.89-3.936-17.168
	c-2.596-2.998-6.291-4.519-10.978-4.519c-0.338,0-0.626,0.167-0.858,0.396l-0.033-0.035c-0.023,0.023-2.266,2.139-5.93,2.139
	s-5.908-2.115-5.924-2.133l-0.033,0.034c-0.235-0.232-0.524-0.401-0.865-0.401c-4.687,0-8.382,1.521-10.978,4.519
	C31.779,59.958,33.217,70.407,33.28,70.846z M55.018,54.221c1.508,0,2.799-0.289,3.896-0.672l-3.896,8.073l-3.898-8.074
	C52.218,53.932,53.51,54.221,55.018,54.221z M47.746,52.562l6.171,12.141c0.407,0.805,1.799,0.801,2.201,0l6.17-12.141
	c3.366,0.143,6.01,1.24,7.866,3.274c3.563,3.903,3.474,10.281,3.29,12.726H36.588c-0.189-2.44-0.285-8.803,3.286-12.72
	C41.728,53.802,44.375,52.702,47.746,52.562z M66.984,35.062c0-6.599-5.368-11.966-11.967-11.966
	c-6.598,0-11.969,5.368-11.969,11.966c0,6.6,5.371,11.97,11.969,11.97C61.616,47.032,66.984,41.662,66.984,35.062z M46.517,35.062
	c0-4.686,3.813-8.499,8.5-8.499c4.685,0,8.5,3.813,8.5,8.499c0,4.688-3.814,8.501-8.5,8.501
	C50.329,43.565,46.517,39.751,46.517,35.062z"/>
</svg>
