<?xml version="1.0" encoding="utf-8"?>
<!-- Generator: Adobe Illustrator 16.0.4, SVG Export Plug-In . SVG Version: 6.00 Build 0)  -->
<!DOCTYPE svg PUBLIC "-//W3C//DTD SVG 1.1//EN" "http://www.w3.org/Graphics/SVG/1.1/DTD/svg11.dtd">
<svg version="1.1" id="Layer_1" xmlns="http://www.w3.org/2000/svg" xmlns:xlink="http://www.w3.org/1999/xlink" x="0px" y="0px"
	 width="100px" height="100px" viewBox="0 0 100 100" enable-background="new 0 0 100 100" xml:space="preserve">
<path d="M83.527,1.342H24.565c-6.712,0-12.172,5.46-12.172,12.171c0,0.708,0.808,1.375,2.361,1.375c2.065,0,2.718-0.667,2.718-1.375
	c0-5.298,1.795-7.092,7.093-7.092h58.962c5.298,0,7.092,1.794,7.092,7.092v72.975c0,5.297-1.794,7.092-7.092,7.092H24.565
	c-5.298,0-7.093-1.795-7.093-7.092c0-0.708-0.299-1.508-2.58-1.508c-2.32,0-2.499,0.8-2.499,1.508
	c0,6.711,5.46,12.171,12.172,12.171h58.962c6.711,0,12.171-5.46,12.171-12.171V13.513C95.698,6.802,90.238,1.342,83.527,1.342z
	 M5.582,25.21h16.184c0.707,0,1.28-0.572,1.28-1.28c0-0.707-0.573-1.279-1.28-1.279H5.582c-0.708,0-1.28,0.572-1.28,1.279
	C4.302,24.638,4.874,25.21,5.582,25.21z M5.582,42.59h16.184c0.707,0,1.28-0.573,1.28-1.28c0-0.708-0.573-1.281-1.28-1.281H5.582
	c-0.708,0-1.28,0.572-1.28,1.281C4.302,42.017,4.874,42.59,5.582,42.59z M5.582,59.971h16.184c0.707,0,1.28-0.572,1.28-1.279
	s-0.573-1.282-1.28-1.282H5.582c-0.708,0-1.28,0.573-1.28,1.282C4.302,59.398,4.874,59.971,5.582,59.971z M23.047,76.073
	c0-0.707-0.572-1.28-1.28-1.28H5.582c-0.708,0-1.28,0.572-1.28,1.28s0.572,1.281,1.28,1.281h16.184
	C22.475,77.354,23.047,76.781,23.047,76.073z M33.28,70.846c0.092,0.631,0.633,1.098,1.269,1.098h40.936
	c0.636,0,1.177-0.469,1.269-1.098c0.062-0.441,1.501-10.89-3.935-17.168c-2.596-2.999-6.291-4.519-10.978-4.519
	c-0.338,0-0.626,0.167-0.859,0.396l-0.033-0.035c-0.023,0.023-2.266,2.139-5.929,2.139c-3.664,0-5.908-2.115-5.925-2.133
	l-0.033,0.034c-0.235-0.232-0.524-0.401-0.865-0.401c-4.687,0-8.382,1.52-10.978,4.519C31.779,59.958,33.217,70.407,33.28,70.846z
	 M55.018,54.221c1.507,0,2.799-0.29,3.896-0.672l-3.896,8.073l-3.899-8.074C52.218,53.931,53.51,54.221,55.018,54.221z
	 M47.596,52.38l6.299,12.416c0.416,0.823,1.835,0.819,2.245,0l6.297-12.416c3.436,0.145,6.133,1.268,8.028,3.349
	c3.636,3.992,3.545,10.514,3.357,13.014H36.21c-0.193-2.496-0.291-9.003,3.353-13.009C41.455,53.649,44.157,52.524,47.596,52.38z
	 M66.984,35.062c0-6.599-5.368-11.966-11.967-11.966c-6.597,0-11.968,5.368-11.968,11.966c0,6.6,5.371,11.97,11.968,11.97
	C61.616,47.032,66.984,41.662,66.984,35.062z M46.206,35.062c0-4.857,3.953-8.81,8.812-8.81c4.856,0,8.81,3.953,8.81,8.81
	c0,4.86-3.953,8.812-8.81,8.812C50.157,43.876,46.206,39.923,46.206,35.062z"/>
</svg>
