<?xml version="1.0" encoding="utf-8"?>
<!-- Generator: Adobe Illustrator 19.0.0, SVG Export Plug-In . SVG Version: 6.00 Build 0)  -->
<svg version="1.1" id="Layer_1" xmlns="http://www.w3.org/2000/svg" xmlns:xlink="http://www.w3.org/1999/xlink" x="0px" y="0px"
	 viewBox="0 0 500 500" style="enable-background:new 0 0 500 500;" xml:space="preserve">
<style type="text/css">
	.st0{fill:#010101;}
</style>
<path id="XMLID_2_" class="st0" d="M249.9,494.7c-7.6,0-15.1-3-20.6-9c-10.5-11.4-9.8-29.1,1.6-39.6l1.2-1.1
	c106.2-97.9,160-177,160-235.1c0-82.2-64.2-149.1-143-149.1s-143,66.9-143,149.1c0,63.6,52,112.9,100.6,137.8
	c13.8,7.1,19.2,24,12.2,37.7c-7.1,13.8-23.9,19.2-37.7,12.2C100.2,356.2,49.9,284.3,49.9,209.9C49.9,96.7,139.3,4.7,249.1,4.7
	c109.8,0,199.1,92.1,199.1,205.2c0,100.5-101.6,205.8-178.1,276.3l-1.2,1.1C263.5,492.3,256.7,494.7,249.9,494.7z M261.9,267.7
	c-39.8,6.5-73.8-27.4-67.3-67.3c4-24.1,23.4-43.6,47.5-47.5c39.8-6.5,73.8,27.4,67.3,67.3C305.5,244.3,286.1,263.7,261.9,267.7z"/>
</svg>
