<?xml version="1.0" encoding="utf-8"?>
<!-- Generator: Adobe Illustrator 19.0.0, SVG Export Plug-In . SVG Version: 6.00 Build 0)  -->
<svg version="1.1" id="Layer_1" xmlns="http://www.w3.org/2000/svg" xmlns:xlink="http://www.w3.org/1999/xlink" x="0px" y="0px"
	 viewBox="0 0 1000 1000" enable-background="new 0 0 1000 1000" xml:space="preserve">
<g>
	<path id="XMLID_6_" fill="#010101" d="M579.9,594.8c-79.2-92.7-162.7-196.9-286.1-227.9c-38.6-9.7-78.7-14.7-109.2-42.7
		c-32.5-29.9-56.1-68.5-77.1-107c-15.9-29.1-60.5-3.1-44.5,26c35.5,65.1,80.2,132.9,153.8,157.2c35.3,11.7,72.5,15.9,107.1,30
		c24.1,9.8,45.5,23.6,65.6,40.3C494.9,558.8,580,673.5,666,779.9c47.9,59.3,95.3,119.3,145.4,176.8c21.9,25.1,58.2-11.6,36.5-36.5
		C755.6,814.2,671.2,701.5,579.9,594.8z"/>
	<path id="XMLID_5_" fill="#010101" d="M237.5,324.1c19.4,26.6,64.2,0.9,44.5-26c-31.5-43.2-61.6-87.3-93.1-130.5
		c-19.4-26.6-64.2-0.9-44.5,26C175.8,236.9,206.1,280.9,237.5,324.1z"/>
	<path id="XMLID_4_" fill="#010101" d="M319,282.2c19.4,26.5,64.3,0.7,44.5-26c-34.2-46.5-69.3-92.6-103.5-139.2
		c-19.4-26.5-64.3-0.7-44.5,26C249.7,189.5,284.8,235.5,319,282.2z"/>
	<path id="XMLID_3_" fill="#010101" d="M356,199.4c20.9,30.5,62.9,73.8,50.9,113.7c-9.7,31.8,40.2,45.4,49.8,13.7
		c14.6-48-12.6-89.8-38.8-128.1C386,152.3,354.2,106,322.4,59.6c-18.7-27.2-63.4-1.5-44.5,26C304,123.6,330,161.5,356,199.4z"/>
	<path id="XMLID_2_" fill="#010101" d="M464.7,619.4c-61.1,84.1-169.1,230.8-230.3,314.9c-19.5,26.9,25.3,52.6,44.5,26
		c74.3-102.1,166-232.3,214.6-299.2C513.2,634.2,484,592.8,464.7,619.4z"/>
	<path id="XMLID_1_" fill="#010101" d="M877.2,16.3c-34.6-2.1-60.1,28.9-76.1,55.4c-25.8,42.7-50.8,85.8-76.1,128.8
		c-57.7,97.7-115.4,195.3-173.2,292.8c-16.9,28.6,27.6,54.6,44.5,26c52.5-88.7,104.9-177.5,157.4-266.2
		c26.2-44.4,52.5-88.7,78.7-133.1c3.9-6.6,27.6-55.9,39.9-51.8c7.5,2.5,1.4,40.7,0.9,46.9C858.7,273.6,765,421.4,630.4,505.2
		c-28.1,17.5-2.2,62.2,26,44.5c127.5-79.5,220.8-208.9,255.6-355C922.9,149.4,955.2,21.2,877.2,16.3z"/>
</g>
</svg>
