<?xml version="1.0" encoding="utf-8"?>
<!-- Generator: Adobe Illustrator 16.0.4, SVG Export Plug-In . SVG Version: 6.00 Build 0)  -->
<!DOCTYPE svg PUBLIC "-//W3C//DTD SVG 1.1//EN" "http://www.w3.org/Graphics/SVG/1.1/DTD/svg11.dtd">
<svg version="1.1" id="Layer_1" xmlns="http://www.w3.org/2000/svg" xmlns:xlink="http://www.w3.org/1999/xlink" x="0px" y="0px"
	 width="45.124px" height="42.549px" viewBox="0 0 45.124 42.549" enable-background="new 0 0 45.124 42.549" xml:space="preserve">
<path d="M44.935,10.941c0.854-3.45-1.256-6.94-4.709-7.792c-3.299-0.813-6.627,1.078-7.658,4.261C31.263,3.121,27.276,0,22.562,0
	c-4.717,0-8.7,3.121-10.007,7.41c-1.031-3.184-4.358-5.074-7.657-4.261C1.444,4.001-0.664,7.491,0.19,10.941l5.688,23.047
	c0.18,0.725,0.481,1.386,0.866,1.979C5.68,36.572,4.96,37.716,4.96,39.03c0,1.942,1.574,3.519,3.519,3.519h28.167
	c1.943,0,3.518-1.576,3.518-3.519c0-1.316-0.719-2.458-1.787-3.063c0.389-0.593,0.689-1.254,0.869-1.979L44.935,10.941z
	 M28.3,32.894l2.617-23.337c0.055-0.497,0.502-0.855,0.998-0.798c0.498,0.054,0.857,0.503,0.801,0.999l-2.615,23.337
	c-0.053,0.461-0.445,0.803-0.9,0.803c-0.035,0-0.068,0-0.102-0.003C28.604,33.838,28.245,33.392,28.3,32.894z M12.603,8.759
	c0.497-0.059,0.945,0.301,1,0.798l2.616,23.337c0.056,0.498-0.302,0.944-0.798,1.001c-0.034,0.003-0.07,0.003-0.103,0.003
	c-0.456,0-0.848-0.342-0.898-0.803L11.806,9.758C11.749,9.262,12.105,8.812,12.603,8.759z"/>
</svg>
