<?xml version="1.0" encoding="utf-8"?>
<!-- Generator: Adobe Illustrator 16.0.4, SVG Export Plug-In . SVG Version: 6.00 Build 0)  -->
<!DOCTYPE svg PUBLIC "-//W3C//DTD SVG 1.1//EN" "http://www.w3.org/Graphics/SVG/1.1/DTD/svg11.dtd">
<svg version="1.1" id="Layer_1" xmlns="http://www.w3.org/2000/svg" xmlns:xlink="http://www.w3.org/1999/xlink" x="0px" y="0px"
	 width="43.861px" height="54.676px" viewBox="0 0 43.861 54.676" enable-background="new 0 0 43.861 54.676" xml:space="preserve">
<path d="M11.055,2.377l-1.099,4.94c0,0,1.234,0.412,4.939,1.783c3.706,1.372,4.393,1.511,4.393,1.511l1.646-4.529L11.055,2.377z
	 M6.251,13.218l9.881,13.174l0.412-6.724L8.585,8.689L6.251,13.218z M18.74,12.395l-15.782,8.37l-1.783,5.902l17.291-7.822
	L18.74,12.395z M16.271,28.04c0,0-0.687,14.684-7.41,14.819C2.135,42.997,1.45,28.452,1.862,27.078
	C0.488,27.215-1.846,48.76,2.546,54.523c5.902,0.411,9.332-0.138,9.332-0.138S18.74,42.584,16.271,28.04z M25.327,0.455
	l-1.922,10.156c0,0,11.664-3.568,13.174-3.568c0.275-3.705,0.275-6.451,0.275-6.451S33.149-0.643,25.327,0.455z M22.721,15.551
	l-0.276,6.037l4.804,2.608l1.783-3.431L22.721,15.551z M37.129,8.826c0,0,6.588,2.743,6.726,6.175
	c0.137,3.433-1.646,8.921-6.726,11.803c0.273,3.704,2.472,17.702,1.783,19.349c-0.686,1.646-1.236,3.432-8.098,3.432
	c-4.527-5.625-7.271-15.646-5.898-20.722C26.288,23.785,34.934,9.1,37.129,8.826z"/>
</svg>
