<?xml version="1.0" encoding="utf-8"?>
<!-- Generator: Adobe Illustrator 16.0.4, SVG Export Plug-In . SVG Version: 6.00 Build 0)  -->
<!DOCTYPE svg PUBLIC "-//W3C//DTD SVG 1.1//EN" "http://www.w3.org/Graphics/SVG/1.1/DTD/svg11.dtd">
<svg version="1.1" id="Layer_1" xmlns="http://www.w3.org/2000/svg" xmlns:xlink="http://www.w3.org/1999/xlink" x="0px" y="0px"
	 width="43.861px" height="54.677px" viewBox="0 0 43.861 54.677" enable-background="new 0 0 43.861 54.677" xml:space="preserve">
<path d="M11.055,2.377l-1.098,4.94c0,0,1.234,0.412,4.939,1.783c3.706,1.372,4.393,1.511,4.393,1.511l1.646-4.529L11.055,2.377z"/>
<polygon points="6.251,13.218 16.132,26.392 16.544,19.668 8.585,8.689 "/>
<polygon points="18.74,12.395 2.958,20.765 1.175,26.667 18.466,18.845 "/>
<path d="M16.271,28.039c0,0-0.686,14.684-7.41,14.82c-6.726,0.137-7.411-14.407-6.999-15.781C0.488,27.215-1.846,48.76,2.546,54.523
	c5.902,0.411,9.332-0.137,9.332-0.137S18.74,42.584,16.271,28.039z"/>
<path d="M25.327,0.455l-1.922,10.156c0,0,11.664-3.568,13.174-3.568c0.275-3.705,0.275-6.451,0.275-6.451S33.149-0.643,25.327,0.455
	z"/>
<polygon points="22.721,15.551 22.445,21.588 27.249,24.196 29.032,20.765 "/>
<path d="M37.129,8.826c0,0,6.588,2.743,6.725,6.175c0.137,3.433-1.646,8.921-6.725,11.803c0.273,3.705,2.471,17.702,1.783,19.349
	c-0.686,1.647-1.236,3.431-8.098,3.431c-4.527-5.625-7.271-15.645-5.898-20.721C26.288,23.785,34.934,9.1,37.129,8.826z"/>
</svg>
