<svg xmlns="http://www.w3.org/2000/svg" xmlns:xlink="http://www.w3.org/1999/xlink" xmlns:sketch="http://www.bohemiancoding.com/sketch/ns" width="100px" height="100px" viewBox="0 0 100 100" version="1.1">
    <title>meter_speedometer</title>
    <description>Created with Sketch (http://www.bohemiancoding.com/sketch)</description>
    <defs/>
    <g id="Vehicle" stroke="none" stroke-width="1" fill="none" fill-rule="evenodd" sketch:type="MSPage">
        <path d="M50,100 C77.6142389,100 100,77.6142389 100,50 C100,22.3857611 77.6142389,0 50,0 C22.3857611,0 0,22.3857611 0,50 C0,77.6142389 22.3857611,100 50,100 Z M50,95 C74.852815,95 95,74.852815 95,50 C95,25.147185 74.852815,5 50,5 C25.147185,5 5,25.147185 5,50 C5,74.852815 25.147185,95 50,95 Z M49.5,88 L63,75.9014716 L49.5,32 L36,75.9014716 L49.5,88 Z M49.5,82 L57.5,74.6544649 L49.5,48 L41.5,74.6544649 L49.5,82 Z M50.5,22 C52.9852815,22 55,19.9852815 55,17.5 C55,15.0147185 52.9852815,13 50.5,13 C48.0147185,13 46,15.0147185 46,17.5 C46,19.9852815 48.0147185,22 50.5,22 Z M27.5,29 C29.4329967,29 31,27.4329967 31,25.5 C31,23.5670033 29.4329967,22 27.5,22 C25.5670033,22 24,23.5670033 24,25.5 C24,27.4329967 25.5670033,29 27.5,29 Z M73.5,29 C75.4329967,29 77,27.4329967 77,25.5 C77,23.5670033 75.4329967,22 73.5,22 C71.5670033,22 70,23.5670033 70,25.5 C70,27.4329967 71.5670033,29 73.5,29 Z M81.5,44 C83.4329967,44 85,42.4329967 85,40.5 C85,38.5670033 83.4329967,37 81.5,37 C79.5670033,37 78,38.5670033 78,40.5 C78,42.4329967 79.5670033,44 81.5,44 Z M16.5,44 C18.4329967,44 20,42.4329967 20,40.5 C20,38.5670033 18.4329967,37 16.5,37 C14.5670033,37 13,38.5670033 13,40.5 C13,42.4329967 14.5670033,44 16.5,44 Z M16.5,44" id="meter_speedometer" fill="#000000" sketch:type="MSShapeGroup"/>
    </g>
</svg>