<?xml version="1.0" encoding="UTF-8" standalone="no"?>
<svg width="100px" height="100px" viewBox="0 0 100 100" version="1.1" xmlns="http://www.w3.org/2000/svg" xmlns:xlink="http://www.w3.org/1999/xlink" xmlns:sketch="http://www.bohemiancoding.com/sketch/ns">
    <!-- Generator: Sketch 3.2.2 (9983) - http://www.bohemiancoding.com/sketch -->
    <title>dashboard</title>
    <desc>Created with Sketch.</desc>
    <defs></defs>
    <g id="Page-1" sketch:type="MSPage">
        <g id="dashboard" sketch:type="MSLayerGroup">
            <path d="M50,100 C77.6142375,100 100,77.6142375 100,50 C100,22.3857625 77.6142375,0 50,0 C22.3857625,0 0,22.3857625 0,50 C0,77.6142375 22.3857625,100 50,100 Z M50,95 C74.8528137,95 95,74.8528137 95,50 C95,25.1471863 74.8528137,5 50,5 C25.1471863,5 5,25.1471863 5,50 C5,74.8528137 25.1471863,95 50,95 Z M49.5,88 L63,75.901 L49.5,32 L36,75.901 L49.5,88 Z M49.5,82 L57.5,74.654 L49.5,48 L41.5,74.654 L49.5,82 Z M50.5,22 C52.9852814,22 55,19.9852814 55,17.5 C55,15.0147186 52.9852814,13 50.5,13 C48.0147186,13 46,15.0147186 46,17.5 C46,19.9852814 48.0147186,22 50.5,22 Z M27.5,29 C29.4329966,29 31,27.4329966 31,25.5 C31,23.5670034 29.4329966,22 27.5,22 C25.5670034,22 24,23.5670034 24,25.5 C24,27.4329966 25.5670034,29 27.5,29 Z M73.5,29 C75.4329966,29 77,27.4329966 77,25.5 C77,23.5670034 75.4329966,22 73.5,22 C71.5670034,22 70,23.5670034 70,25.5 C70,27.4329966 71.5670034,29 73.5,29 Z M81.5,44 C83.4329966,44 85,42.4329966 85,40.5 C85,38.5670034 83.4329966,37 81.5,37 C79.5670034,37 78,38.5670034 78,40.5 C78,42.4329966 79.5670034,44 81.5,44 Z M16.5,44 C18.4329966,44 20,42.4329966 20,40.5 C20,38.5670034 18.4329966,37 16.5,37 C14.5670034,37 13,38.5670034 13,40.5 C13,42.4329966 14.5670034,44 16.5,44 Z" id="Oval" sketch:type="MSShapeGroup"></path>
        </g>
    </g>
</svg>
