<?xml version="1.0" encoding="utf-8"?>
<!-- Generator: Adobe Illustrator 19.0.0, SVG Export Plug-In . SVG Version: 6.00 Build 0)  -->
<svg version="1.1" id="Layer_1" xmlns="http://www.w3.org/2000/svg" xmlns:xlink="http://www.w3.org/1999/xlink" x="0px" y="0px"
	 viewBox="0 0 1000 1000" enable-background="new 0 0 1000 1000" xml:space="preserve">
<g id="Page-1">
	<g id="deco-mode-bricolage">
		<g id="Group">
			<path id="Shape" fill="#010101" d="M988.5,712.7l0.4-608.1c0-9.1,0-33.6-16.9-49c-4.1-11.5-15.1-21.3-28.1-21.3h-0.6l-880,18
				c-37.2-1.2-50.7,14.4-50.7,45.1c-2.5,200.4-0.7,403.2,5.3,603c0.5,16.3,13.8,29.2,30,29.2h1c16.6-0.5,29.6-14.4,29.2-31
				c-5.9-193.9-7.6-390.4-5.4-584.9l855-16.1c0.4,0.5,0.7,1,1.2,1.5c0.1,1.2,0.1,2.9,0.1,5.4l-0.4,601.3
				c-35.7,2.3-66.3,4.5-93.1,6.3C665,723.8,647.2,725,395.7,715.7c-16.6-0.6-30.5,12.3-31.1,28.9c-0.6,16.6,12.3,30.5,28.9,31.1
				c112.9,4.2,179.3,6.3,233.4,6.3c67.9,0,116.3-3.3,212.6-9.9c29.3-2.1,63.3-2.9,103.6-5.4C988.9,768.8,990.1,733.7,988.5,712.7
				L988.5,712.7z"/>
			<path id="Shape_1_" fill="#010101" d="M820,587.8c16.6-1.3,28.9-15.7,27.6-32.3c0-0.2-0.1-0.4-0.1-0.6c3.8-9,3.3-19.5-2.5-28.2
				c-65-99.6-121.5-205.6-167.7-315.1c-4-9.6-12.6-16.3-22.8-17.9c-10.2-1.7-20.5,1.9-27.3,9.7c-43.2,48.8-83.7,100.4-120.8,154.2
				c-42.7-33.5-84.2-69.2-123.6-106.2c-6.2-5.8-14.5-8.7-23-8.1c-8.5,0.7-16.2,5-21.4,11.6c-68,88.5-125.6,184.9-171.4,286.6
				c-6.8,15.1-0.1,32.9,15,39.7c4,1.8,8.2,2.7,12.3,2.7c11.5,0,22.4-6.5,27.5-17.7c39.3-87.5,87.9-170.9,144.5-248.3
				c41.4,37.5,84.6,73.5,129,107.1c6.7,5,15,7,23.2,5.7c8.2-1.5,15.4-6.2,20-13.1c31.5-47.8,66-94.1,102.6-138.3
				c39.1,86.8,84.3,171,135.2,251.5c-139.6,9.4-280.9,10.5-420.4,3.1c-16.5-1-30.7,11.9-31.6,28.4c-0.8,16.6,11.9,30.7,28.4,31.6
				c62.3,3.3,125,5,187.7,5C633.8,598.7,727.4,595.1,820,587.8L820,587.8z"/>
			<path id="Shape_2_" fill="#010101" d="M275.7,623.4c-1.3-1.3-2.8-2.5-4.5-3.8c-13.1-8.8-43,9.7-52.6,22.1L187,682.4
				c-5,6.3-7.1,14.3-6.1,22.3c0.4,2.9,1.1,5.7,2.1,8.3c-47.7,69.1-98,136.9-150.2,202.2c-10.4,12.9-8.2,31.8,4.7,42.2
				c5.6,4.5,12.2,6.5,18.8,6.5c8.8,0,17.5-3.9,23.5-11.3c54.6-68.1,107-139.2,156.7-211.3c11.9-2.2,22.8-8.3,30.1-17.8
				c16.8-21.2,13.8-47.7,12.2-61.8C277.5,651.9,283.8,628,275.7,623.4L275.7,623.4z"/>
		</g>
	</g>
</g>
</svg>
