<?xml version="1.0" encoding="utf-8"?>
<!-- Generator: Adobe Illustrator 16.0.4, SVG Export Plug-In . SVG Version: 6.00 Build 0)  -->
<!DOCTYPE svg PUBLIC "-//W3C//DTD SVG 1.1//EN" "http://www.w3.org/Graphics/SVG/1.1/DTD/svg11.dtd">
<svg version="1.1" id="Layer_1" xmlns="http://www.w3.org/2000/svg" xmlns:xlink="http://www.w3.org/1999/xlink" x="0px" y="0px"
	 width="79.852px" height="81.273px" viewBox="0 0 79.852 81.273" enable-background="new 0 0 79.852 81.273" xml:space="preserve">
<path d="M44.952,38.558L25.56,0.306c0,0-1.677-1.134-1.792,0.959L37.312,35.39L44.952,38.558z"/>
<path d="M48.14,54.43c-0.649-1.917-1.509-4.026-1.68-6.501l-0.243-1.321l-6.438-1.146l0.079,0.222
	c1.568,4.238,3.268,7.579,4.635,10.143L48.14,54.43z"/>
<g>
	<path d="M46.765,62.739c-1.391,1.17-2.173-0.37-5.648,2.853c-3.332,3.103-2.817,8.914,0.337,12.183
		c2.9,3.474,8.565,4.854,12.227,1.849c3.881-2.804,4.671-8.743,1.817-12.604c-2.163-3.492-5.386-6.978-7.245-12.241l-3.562,1.445
		C46.63,59.848,47.805,61.877,46.765,62.739z M51.065,66.246c4.086,2.433,4.477,9.591-0.153,11.584
		c-3.576,1.891-8.093-1.189-8.813-4.844C41.044,67.642,46.803,63.345,51.065,66.246z"/>
</g>
<g>
	<path d="M7.487,31.374l28.562,12.38l7.098,1.854L46.575,46c2.602,0.293,4.84,0.903,6.8,1.696l1.521-3.531
		c-2.544-1.513-5.881-3.423-10.197-5.241L36.642,35.6L0,20.466C-0.031,25.944,3.669,29.404,7.487,31.374z M41.213,40.57
		c0.386,0.624,0.189,1.449-0.44,1.838c-0.63,0.39-1.449,0.19-1.835-0.435c-0.389-0.63-0.199-1.452,0.432-1.841
		C39.998,39.742,40.823,39.939,41.213,40.57z"/>
</g>
<g>
	<path d="M61.429,46.573c-0.893,0.969-2.785-0.196-6.159-2.196l-1.567,3.457c5.011,2.096,8.284,5.386,11.612,7.648
		c3.727,3.021,9.695,2.496,12.666-1.251c3.163-3.536,2.038-9.256-1.31-12.309c-3.117-3.291-8.91-4.061-12.145-0.864
		C61.146,44.381,62.649,45.238,61.429,46.573z M71.858,42.359c3.62,0.893,6.504,5.536,4.456,9.02
		c-2.198,4.532-9.321,3.836-11.575-0.354C62.025,46.624,66.571,41.069,71.858,42.359z"/>
</g>
<rect x="41.903" y="40.194" transform="matrix(0.9997 0.024 -0.024 0.9997 0.9989 -0.9976)" width="0.407" height="1.935"/>
</svg>
