<?xml version="1.0" encoding="utf-8"?>
<!-- Generator: Adobe Illustrator 16.0.4, SVG Export Plug-In . SVG Version: 6.00 Build 0)  -->
<!DOCTYPE svg PUBLIC "-//W3C//DTD SVG 1.1//EN" "http://www.w3.org/Graphics/SVG/1.1/DTD/svg11.dtd">
<svg version="1.1" id="Layer_1" xmlns="http://www.w3.org/2000/svg" xmlns:xlink="http://www.w3.org/1999/xlink" x="0px" y="0px"
	 width="64.55px" height="57.137px" viewBox="0 0 64.55 57.137" enable-background="new 0 0 64.55 57.137" xml:space="preserve">
<path d="M64.05,0.504c0,0-7.977-0.373-11.975,5.948c-3.994,6.319,3.742,10.185,6.4,7.396C61.136,11.066,59.771,3.309,64.05,0.504z
	 M27.337,54.446l3.855,2.191l21.153-33.432l-6.799-3.866L27.337,54.446z M46.642,17.446l6.799,3.865l2.082-4.001l-6.451-3.719
	L46.642,17.446z M46.277,14.907c-6.922-8.146-16.574-8.07-20.605-8.07c-5.833,0-21.667,3.167-25.167,22.834
	s12.333,24.833,12.333,24.833c7.834,2.5,10.334-2.833,15.334-5.667C29.07,48.327,46.277,14.907,46.277,14.907z M13.505,19.502
	c3.222,0,5.834,2.612,5.834,5.834s-2.612,5.834-5.834,5.834c-3.222,0-5.834-2.612-5.834-5.834S10.283,19.502,13.505,19.502z
	 M14.338,45.336c-2.945,0-5.332-2.388-5.332-5.333s2.387-5.333,5.332-5.333c2.945,0,5.334,2.388,5.334,5.333
	S17.283,45.336,14.338,45.336z M27.672,24.503c-2.67,0-4.833-2.164-4.833-4.833s2.163-4.833,4.833-4.833s4.833,2.164,4.833,4.833
	S30.342,24.503,27.672,24.503z M52.671,25.668L37.189,50.219c3.746,0.947,6.389,1.024,6.482,1.117
	c0.168,0.166,11.166,2.5,9.834-19.5C53.328,28.931,53.443,27.948,52.671,25.668z"/>
</svg>
