<?xml version="1.0" encoding="utf-8"?>
<!-- Generator: Adobe Illustrator 19.0.0, SVG Export Plug-In . SVG Version: 6.00 Build 0)  -->
<svg version="1.1" id="Layer_1" xmlns="http://www.w3.org/2000/svg" xmlns:xlink="http://www.w3.org/1999/xlink" x="0px" y="0px"
	 viewBox="0 0 1000 1000" enable-background="new 0 0 1000 1000" xml:space="preserve">
<g id="Page-1">
	<g id="dessin-peinture-arts-plastiques">
		<g id="Group">
			<path id="Shape" fill="#010101" d="M462.4,691.4c5.6-46.1,8.9-98.9-18.6-139.2c-18.4-27-46.7-39.5-76.9-48.1
				c-1.7-52.4-18.4-100.6-46-146.9c-31.6-53.2-71-102.8-110.1-150.6c-40.3-49.1-85.3-93.8-140.2-126.3c-23.6-14-45,22.8-21.4,36.7
				c56.1,33.1,100.2,80.4,140.5,130.9c22.1,27.8,45,56.1,65.7,85.7c-27.2,11.7-51.8,27.6-73.5,47.8c-2.2-4.1-4.4-8.1-6.7-12.1
				c-34.2-61.9-64.4-125.9-90.4-191.6c-10-25.1-51.1-14.2-41,11.3c23.5,59.3,49.7,117.3,79.6,173.7c25.4,48.1,51.2,102.8,96.9,134.9
				c31.2,22,67.3,30.1,103.2,38.9c-1.6,21.1-3.4,42.1,0.1,63.2c9.7,57.1,58.6,86.8,106.7,110.1C446,717.3,460.4,707.9,462.4,691.4
				L462.4,691.4z M225.7,446.7c-8.1-8.3-15.2-17.7-21.8-27.5c21.4-21.8,46.5-38.6,75-49.5c8.4,13.9,16.2,28,23.1,42.5
				c12.2,25.9,20.5,53.3,22.4,81.6c-7.4-1.8-14.8-3.6-21.9-5.7C274,479.9,246.8,468.4,225.7,446.7L225.7,446.7z M382.1,627.8
				c-19.6-23.1-19.2-51.6-17.1-79.9c2.2,0.8,4.6,1.6,6.8,2.3c48.2,17.2,54.1,63.8,51.3,108.6C407.8,650.5,393.1,640.8,382.1,627.8
				L382.1,627.8z"/>
			<path id="Shape_1_" fill="#010101" d="M575.8,770.4c-27.6-18.3-68.6,3.3-88.1-25.1c-15.4-22.4-52.3-1.1-36.7,21.4
				c9.7,14,20.8,24.8,36.6,31.3c17.9,7.4,32,2.2,49.8,3.8c25.1,2.2,14.8,13.9-3.8,17.5c-8.4,1.7-18,0.3-26.6,0.8
				c-23.9,1.3-47.7,5-70.9,11.2c-30.1,8-62.2,24.9-50.3,61.8c12.4,38.5,53.2,39.6,86.7,34.6c27-4,15.5-45-11.3-41
				c-2.8,0.4-38.4,7-28.5-10.2c1.8-3.1,26.2-7.2,29.5-7.9c19.5-4.2,39.2-5.9,59.1-6.5c27.5-0.9,58.1-4.9,71.8-32.6
				C604,807.8,595.5,783.3,575.8,770.4L575.8,770.4z"/>
			<path id="Shape_2_" fill="#010101" d="M313.7,682.7c-96.4,35-189.3,77.9-283.8,117.2c-24.9,10.3-14,51.5,11.3,41
				c94.6-39.3,187.5-82.3,283.8-117.2C350.6,714.4,339.6,673.3,313.7,682.7L313.7,682.7z"/>
			<path id="Shape_3_" fill="#010101" d="M969.1,664.3C874.4,633.3,779.8,596,682.4,574c-21.1-4.8-33,3.2-52,12.1
				c-33.6,15.9-67.5,31.7-102.2,44.8c-25.3,9.5-14.3,50.6,11.3,41c44.2-16.7,87.3-36.7,129.8-57.4c97.8,24.2,192.9,59.3,288.5,90.7
				C983.9,713.9,995,672.9,969.1,664.3L969.1,664.3z"/>
			<path id="Shape_4_" fill="#010101" d="M740.5,697.9c-0.4,0.1-0.9,0.2-1.3,0.3c-32.7-1.7-66.3,16.2-68.7,53.1
				c-2.7,40.5,38.4,61.9,73.2,65.4c38.5,3.8,73.9-22.4,72.9-63.1C815.7,713.7,776.4,691,740.5,697.9L740.5,697.9z M774,758.3
				c-2.1,15.4-18,17.5-30.7,15.5c-9-1.4-29.2-6-30.5-17.9c-1.9-16.2,20.5-17,30.5-14.5c6.4,1.6,11.9,0.3,16.2-2.4
				C768.2,740.7,775.2,748.6,774,758.3L774,758.3z"/>
		</g>
	</g>
</g>
</svg>
