<?xml version="1.0" encoding="utf-8"?>
<!-- Generator: Adobe Illustrator 16.0.4, SVG Export Plug-In . SVG Version: 6.00 Build 0)  -->
<!DOCTYPE svg PUBLIC "-//W3C//DTD SVG 1.1//EN" "http://www.w3.org/Graphics/SVG/1.1/DTD/svg11.dtd">
<svg version="1.1" id="Layer_1" xmlns="http://www.w3.org/2000/svg" xmlns:xlink="http://www.w3.org/1999/xlink" x="0px" y="0px"
	 width="100px" height="100px" viewBox="0 0 100 100" enable-background="new 0 0 100 100" xml:space="preserve">
<g id="Captions">
</g>
<path d="M50,100.318c-27.795,0-50.409-22.613-50.409-50.409C-0.409,22.114,22.205-0.5,50-0.5c27.796,0,50.409,22.614,50.409,50.409
	C100.409,77.705,77.796,100.318,50,100.318z M50,5.115c-24.7,0-44.794,20.094-44.794,44.794S25.3,94.703,50,94.703
	c24.701,0,44.794-20.094,44.794-44.794S74.701,5.115,50,5.115z M50,41.92c4.45,0,8.08,3.63,8.08,8.08s-3.63,8.08-8.08,8.08
	s-8.08-3.63-8.08-8.08S45.55,41.92,50,41.92z"/>
</svg>
