<?xml version="1.0" encoding="utf-8"?>
<!-- Generator: Adobe Illustrator 16.0.4, SVG Export Plug-In . SVG Version: 6.00 Build 0)  -->
<!DOCTYPE svg PUBLIC "-//W3C//DTD SVG 1.1//EN" "http://www.w3.org/Graphics/SVG/1.1/DTD/svg11.dtd">
<svg version="1.1" id="Your_Icon" xmlns="http://www.w3.org/2000/svg" xmlns:xlink="http://www.w3.org/1999/xlink" x="0px" y="0px"
	 width="100px" height="100px" viewBox="0 0 100 100" enable-background="new 0 0 100 100" xml:space="preserve">
<g>
	<g>
		<g>
			<path d="M40.821,98.194c-7.819,0-13.388-4.11-15.99-7.957c-1.785-2.636-3.574-7.392-3.282-11.608
				c0.071-1.04,0.976-1.82,2.015-1.753c1.042,0.071,1.826,0.972,1.755,2.016c-0.218,3.14,1.198,7.098,2.642,9.229
				c1.966,2.905,6.514,6.296,12.861,6.296c0.001,0,0.001,0,0.002,0c1.218,0,2.464-0.125,3.704-0.378
				c8.743-1.76,11.33-8.736,14.324-16.814c1.294-3.494,2.623-7.076,4.556-10.608c1.639-3.006,3.678-5.91,5.65-8.715
				c3.021-4.303,6.117-8.711,7.674-13.355c3.457-10.341,1.897-20.656-4.285-28.301c-6.281-7.77-16.617-11.67-27.628-10.433
				c-11.102,1.248-17.333,5.36-21.508,14.197c-0.401,0.846-1.716,3.808-1.854,6.419c-0.054,1.042-0.942,1.854-1.984,1.788
				c-1.042-0.054-1.843-0.943-1.789-1.985c0.167-3.213,1.602-6.552,2.211-7.838c4.687-9.921,12.245-14.96,24.501-16.337
				C56.708,0.671,68.288,5.09,75.387,13.868c7.008,8.668,8.804,20.286,4.927,31.877c-1.729,5.165-4.988,9.805-8.138,14.29
				c-1.937,2.757-3.914,5.571-5.455,8.392c-1.798,3.29-3.079,6.742-4.316,10.083c-3.113,8.397-6.323,17.058-17.13,19.234
				c-1.485,0.299-2.982,0.45-4.451,0.45C40.823,98.194,40.821,98.194,40.821,98.194z"/>
		</g>
	</g>
</g>
<path d="M34.658,69.506c-0.498,0-0.995-0.195-1.366-0.583c-0.722-0.754-0.694-1.952,0.06-2.673
	c0.079-0.076,8.038-7.718,11.69-13.255c0.037-0.058,0.076-0.11,0.119-0.16c0.022-0.026,2.535-3.17,1.914-6.179
	c-0.335-1.627-1.6-3.026-3.758-4.156c-0.071-0.039-7.191-3.743-11.751-4.395c-1.033-0.146-1.751-1.105-1.604-2.137
	c0.148-1.032,1.11-1.747,2.139-1.603c5.207,0.742,12.656,4.623,12.972,4.788c3.223,1.686,5.142,3.964,5.712,6.769
	c0.907,4.468-2.109,8.556-2.631,9.226c-3.907,5.888-11.85,13.512-12.187,13.834C35.598,69.332,35.127,69.506,34.658,69.506z"/>
<path d="M39.7,53.392c-0.45,0-0.905-0.161-1.265-0.486c-0.423-0.383-10.296-9.423-9.502-19.25c0.014-0.903,0.272-7.566,4.907-12.212
	c2.909-2.915,6.863-4.391,11.754-4.391c0.009,0,0.019,0,0.027,0c2.773,0.002,12.228,0.828,17.572,11.313
	c3.474,6.818,3.098,14.094-1.15,22.244c-0.48,0.927-1.622,1.287-2.548,0.804c-0.927-0.482-1.285-1.625-0.803-2.549
	c4.85-9.309,2.97-15.178,1.134-18.783c-4.247-8.339-11.353-9.247-14.208-9.251c-0.01,0-0.017,0-0.024,0
	c-12.706,0-12.882,12.384-12.883,12.91c0,0.053-0.003,0.111-0.008,0.164c-0.69,8.007,8.174,16.113,8.263,16.194
	c0.775,0.698,0.835,1.895,0.135,2.67C40.731,53.181,40.216,53.392,39.7,53.392z"/>
</svg>
