<?xml version="1.0" encoding="utf-8"?>
<!-- Generator: Adobe Illustrator 16.0.4, SVG Export Plug-In . SVG Version: 6.00 Build 0)  -->
<!DOCTYPE svg PUBLIC "-//W3C//DTD SVG 1.1//EN" "http://www.w3.org/Graphics/SVG/1.1/DTD/svg11.dtd">
<svg version="1.1" id="Your_Icon" xmlns="http://www.w3.org/2000/svg" xmlns:xlink="http://www.w3.org/1999/xlink" x="0px" y="0px"
	 width="100px" height="100px" viewBox="0 0 100 100" enable-background="new 0 0 100 100" xml:space="preserve">
<path d="M40.821,98.193c-7.819,0-13.388-4.109-15.99-7.957c-1.785-2.635-3.574-7.392-3.282-11.607
	c0.071-1.04,0.976-1.82,2.015-1.753c1.042,0.071,1.826,0.972,1.755,2.017c-0.218,3.14,1.198,7.098,2.642,9.229
	c1.966,2.904,6.514,6.296,12.861,6.296c0.001,0,0.001,0,0.002,0c1.218,0,2.464-0.125,3.704-0.378
	c8.744-1.76,11.33-8.736,14.324-16.814c1.295-3.494,2.623-7.076,4.557-10.607c1.639-3.006,3.678-5.91,5.65-8.715
	c3.021-4.303,6.116-8.711,7.674-13.355c3.457-10.341,1.896-20.656-4.285-28.301C66.166,8.476,55.83,4.576,44.819,5.813
	c-11.102,1.248-17.333,5.36-21.508,14.197c-0.401,0.846-1.716,3.808-1.854,6.419c-0.054,1.042-0.942,1.854-1.984,1.788
	c-1.042-0.054-1.843-0.943-1.789-1.985c0.167-3.213,1.602-6.552,2.211-7.838C24.582,8.473,32.14,3.434,44.396,2.057
	C56.708,0.671,68.288,5.09,75.387,13.868c7.008,8.668,8.805,20.286,4.928,31.877c-1.729,5.165-4.988,9.805-8.139,14.29
	c-1.938,2.757-3.914,5.57-5.455,8.392c-1.798,3.29-3.078,6.742-4.316,10.083c-3.112,8.397-6.322,17.059-17.129,19.234
	c-1.485,0.299-2.982,0.449-4.451,0.449C40.823,98.193,40.821,98.193,40.821,98.193z M34.658,69.506
	c-0.498,0-0.995-0.195-1.366-0.583c-0.722-0.754-0.694-1.952,0.06-2.673c0.079-0.076,8.038-7.718,11.69-13.255
	c0.037-0.058,0.076-0.11,0.119-0.16c0.022-0.026,2.535-3.17,1.914-6.179c-0.335-1.627-1.6-3.026-3.758-4.156
	c-0.071-0.039-7.191-3.743-11.751-4.395c-1.033-0.146-1.751-1.105-1.604-2.137c0.148-1.032,1.11-1.747,2.139-1.603
	c5.207,0.742,12.656,4.623,12.972,4.788c3.223,1.686,5.142,3.964,5.712,6.769c0.906,4.468-2.109,8.557-2.631,9.227
	c-3.907,5.888-11.85,13.512-12.187,13.834C35.598,69.332,35.127,69.506,34.658,69.506z M39.7,53.393
	c-0.45,0-0.905-0.162-1.265-0.486c-0.423-0.383-10.296-9.423-9.502-19.25c0.014-0.903,0.272-7.566,4.907-12.212
	c2.909-2.915,6.863-4.391,11.754-4.391c0.009,0,0.019,0,0.027,0c2.773,0.002,12.229,0.828,17.572,11.313
	c3.474,6.818,3.098,14.094-1.15,22.243c-0.48,0.928-1.622,1.287-2.548,0.805c-0.927-0.482-1.285-1.625-0.804-2.549
	c4.851-9.309,2.971-15.178,1.135-18.783c-4.247-8.339-11.353-9.247-14.208-9.251c-0.01,0-0.017,0-0.024,0
	c-12.706,0-12.882,12.384-12.883,12.91c0,0.053-0.003,0.111-0.008,0.164c-0.69,8.007,8.174,16.113,8.263,16.194
	c0.775,0.698,0.835,1.895,0.135,2.67C40.731,53.182,40.216,53.393,39.7,53.393z"/>
</svg>
