<?xml version="1.0" encoding="utf-8"?>
<!-- Generator: Adobe Illustrator 16.0.4, SVG Export Plug-In . SVG Version: 6.00 Build 0)  -->
<!DOCTYPE svg PUBLIC "-//W3C//DTD SVG 1.1//EN" "http://www.w3.org/Graphics/SVG/1.1/DTD/svg11.dtd">
<svg version="1.1" id="Layer_1" xmlns="http://www.w3.org/2000/svg" xmlns:xlink="http://www.w3.org/1999/xlink" x="0px" y="0px"
	 width="100px" height="100px" viewBox="0 0 100 100" enable-background="new 0 0 100 100" xml:space="preserve">
<path d="M99.571,23.032c-0.005-0.019-0.003-0.038-0.007-0.057c-0.007-0.021-0.022-0.036-0.028-0.056
	c-0.063-0.192-0.148-0.375-0.264-0.538c-0.014-0.018-0.027-0.032-0.041-0.049c-0.11-0.149-0.24-0.281-0.388-0.396
	c-0.023-0.02-0.046-0.041-0.072-0.06c-0.155-0.113-0.328-0.201-0.512-0.268c-0.038-0.014-0.075-0.023-0.112-0.035
	c-0.192-0.059-0.393-0.099-0.605-0.099H2.458c-0.211,0-0.412,0.041-0.604,0.099c-0.037,0.011-0.075,0.021-0.112,0.035
	c-0.185,0.067-0.358,0.155-0.514,0.268c-0.026,0.019-0.048,0.041-0.073,0.06c-0.146,0.116-0.277,0.248-0.389,0.397
	c-0.012,0.016-0.026,0.029-0.038,0.047c-0.116,0.164-0.201,0.348-0.267,0.542c-0.005,0.02-0.021,0.034-0.025,0.054
	c-0.006,0.018-0.002,0.036-0.007,0.054c-0.049,0.178-0.083,0.363-0.083,0.558v52.824c0,1.167,0.946,2.113,2.113,2.113h95.084
	c1.167,0,2.112-0.946,2.112-2.113V23.588C99.654,23.394,99.621,23.211,99.571,23.032z M90.565,25.701L50,52.742L9.437,25.701H90.565
	z M4.571,74.3V27.535L48.829,57.04c0.354,0.237,0.763,0.355,1.171,0.355c0.41,0,0.816-0.118,1.173-0.354l44.256-29.506V74.3H4.571z"
	/>
</svg>
