<?xml version="1.0" encoding="utf-8"?>
<!-- Generator: Adobe Illustrator 16.0.4, SVG Export Plug-In . SVG Version: 6.00 Build 0)  -->
<!DOCTYPE svg PUBLIC "-//W3C//DTD SVG 1.1//EN" "http://www.w3.org/Graphics/SVG/1.1/DTD/svg11.dtd">
<svg version="1.1" id="Layer_1" xmlns="http://www.w3.org/2000/svg" xmlns:xlink="http://www.w3.org/1999/xlink" x="0px" y="0px"
	 width="100px" height="100px" viewBox="0 0 100 100" enable-background="new 0 0 100 100" xml:space="preserve">
<path d="M99.57,17.699c-0.004-0.023-0.002-0.045-0.006-0.068c-0.008-0.025-0.022-0.043-0.028-0.067
	c-0.063-0.23-0.147-0.449-0.265-0.645c-0.014-0.021-0.026-0.038-0.041-0.059c-0.109-0.178-0.239-0.336-0.388-0.474
	c-0.022-0.024-0.046-0.049-0.071-0.072c-0.155-0.135-0.328-0.241-0.513-0.321c-0.038-0.017-0.075-0.027-0.112-0.042
	c-0.191-0.071-0.393-0.119-0.604-0.119H2.458c-0.211,0-0.412,0.049-0.604,0.119c-0.037,0.013-0.075,0.024-0.112,0.042
	c-0.185,0.08-0.358,0.186-0.514,0.321c-0.026,0.022-0.048,0.049-0.073,0.072c-0.146,0.139-0.277,0.297-0.389,0.476
	c-0.012,0.019-0.026,0.034-0.038,0.056c-0.116,0.196-0.201,0.417-0.267,0.649c-0.005,0.024-0.021,0.041-0.025,0.065
	c-0.006,0.022-0.002,0.043-0.007,0.065c-0.049,0.213-0.083,0.435-0.083,0.668v63.271c0,1.397,0.946,2.531,2.113,2.531h95.084
	c1.167,0,2.111-1.134,2.111-2.531V18.364C99.654,18.132,99.621,17.913,99.57,17.699z M90.564,20.896L50,53.284L9.437,20.896H90.564z
	 M4.571,79.105V23.092l44.258,35.34c0.354,0.284,0.763,0.425,1.171,0.425c0.41,0,0.816-0.141,1.173-0.424L95.43,23.092v56.013H4.571
	z"/>
</svg>
