<?xml version="1.0" encoding="utf-8"?>
<!-- Generator: Adobe Illustrator 16.0.4, SVG Export Plug-In . SVG Version: 6.00 Build 0)  -->
<!DOCTYPE svg PUBLIC "-//W3C//DTD SVG 1.1//EN" "http://www.w3.org/Graphics/SVG/1.1/DTD/svg11.dtd">
<svg version="1.1" id="Layer_1" xmlns="http://www.w3.org/2000/svg" xmlns:xlink="http://www.w3.org/1999/xlink" x="0px" y="0px"
	 width="100px" height="100px" viewBox="0 0 100 100" enable-background="new 0 0 100 100" xml:space="preserve">
<path d="M1.779,45.964h12.335C13.89,47.309,13.89,48.656,13.89,50c0,1.343,0,2.689,0.224,4.04H5.368l-3.589,8.071H15.46
	c5.607,20.637,24.783,36.334,46.875,36.334c12.224,0,23.663-4.818,32.298-12.672V74.111c-7.404,9.867-19.178,16.261-32.298,16.261
	c-17.943,0-33.306-11.886-38.464-28.261h54.615l3.584-8.071H22.188c-0.224-1.351-0.224-2.696-0.224-4.04c0-1.12,0-2.691,0.224-4.036
	h63.475l3.586-8.076H23.872C28.917,21.741,44.169,9.629,62.336,9.629c14.131,0,24.895,6.393,32.298,16.149l3.587-7.963
	C89.249,7.834,76.467,1.554,62.336,1.554c-22.204,0-41.381,15.925-46.875,36.335H5.368L1.779,45.964z"/>
</svg>
