<svg xmlns="http://www.w3.org/2000/svg" xmlns:xlink="http://www.w3.org/1999/xlink" version="1.1" id="Layer_1" x="0px" y="0px" width="100px" height="100px" viewBox="0 0 100 100" enable-background="new 0 0 100 100" xml:space="preserve">
<g>
	<path fill="#000000" d="M1.779,45.964h12.335C13.89,47.309,13.89,48.656,13.89,50c0,1.343,0,2.69,0.224,4.04H5.368l-3.589,8.071   H15.46c5.607,20.637,24.783,36.335,46.875,36.335c12.224,0,23.663-4.819,32.298-12.672V74.112   c-7.404,9.867-19.178,16.26-32.298,16.26c-17.943,0-33.306-11.885-38.464-28.261h54.615l3.585-8.071H22.188   c-0.224-1.35-0.224-2.696-0.224-4.04c0-1.12,0-2.691,0.224-4.036h63.475l3.586-8.076H23.872   C28.917,21.741,44.169,9.629,62.336,9.629c14.131,0,24.894,6.393,32.298,16.149l3.587-7.963   C89.249,7.834,76.467,1.554,62.336,1.554c-22.204,0-41.381,15.925-46.875,36.335H5.368L1.779,45.964z"/>
</g>
</svg>