<?xml version="1.0" encoding="utf-8"?>
<!-- Generator: Adobe Illustrator 16.0.4, SVG Export Plug-In . SVG Version: 6.00 Build 0)  -->
<!DOCTYPE svg PUBLIC "-//W3C//DTD SVG 1.1//EN" "http://www.w3.org/Graphics/SVG/1.1/DTD/svg11.dtd">
<svg version="1.1" id="Layer_1" xmlns="http://www.w3.org/2000/svg" xmlns:xlink="http://www.w3.org/1999/xlink" x="0px" y="0px"
	 width="100px" height="100px" viewBox="0 0 100 100" enable-background="new 0 0 100 100" xml:space="preserve">
<g id="Layer_1_1_">
</g>
<path id="Layer_2" d="M99.797,48.281c-1.9-5.652-15.663-27.501-49.81-27.501c-32.356,0-46.596,19.149-49.373,27.468
	c-0.32,0.532,0.416,1.204,0.948,1.523s1.171,0.213,1.49-0.319c0.106-0.213,11.708-17.986,34.59-23.095
	c-6.918,4.15-11.494,11.707-11.494,20.328c0,13.198,10.75,23.84,23.84,23.84c13.091,0,23.841-10.645,23.841-23.84
	c0-8.621-4.577-16.178-11.495-20.435c22.989,5.109,34.482,22.883,34.695,23.096c0.215,0.319,0.533,0.532,0.853,0.532
	c0.214,0,0.427-0.106,0.532-0.213C98.945,49.452,100.115,48.707,99.797,48.281z M69.986,46.685c0,11.079-9.02,20-20,20
	s-20-8.922-20-20c0-11.079,8.922-20,20-20S69.986,35.606,69.986,46.685z M81.406,63.016c-0.532-0.32-1.336-1.433-1.73-0.744
	c0,0-9.999,15.447-29.688,15.447c-19.583,0-29.481-15.219-29.587-15.324c-0.635-0.77-0.928,0.013-1.698,0.578
	c-0.5,0.368-1.495,1.062-1.176,1.592c0.106,0.213,11.708,17.455,32.461,17.455c20.754,0,32.355-17.242,32.461-17.455
	C82.768,64.033,81.831,63.336,81.406,63.016z M47.859,61.159c9.259,0,16.709-7.45,16.709-16.709c0-0.639-0.426-1.064-1.064-1.064
	c-0.638,0-1.062,0.425-1.062,1.064c0,8.089-6.492,14.581-14.583,14.581c-0.639,0-1.064,0.426-1.064,1.062
	C46.794,60.734,47.22,61.159,47.859,61.159z"/>
</svg>
