<svg xmlns="http://www.w3.org/2000/svg" xmlns:xlink="http://www.w3.org/1999/xlink" version="1.1" x="0px" y="0px" viewBox="0 0 100 100" enable-background="new 0 0 100 100" xml:space="preserve" height="100px" width="100px">
<g id="Layer_1">
</g>
<g id="Layer_2">
	<g>
		<path d="M95.8,48.5C95.7,48.2,80.4,24.6,50,24.6S4.3,48.2,4.2,48.5c-0.3,0.5-0.2,1.1,0.3,1.4c0.5,0.3,1.1,0.2,1.4-0.3    c0.1-0.2,11-16.9,32.5-21.7C31.9,31.8,27.6,38.9,27.6,47c0,12.4,10.1,22.4,22.4,22.4S72.4,59.4,72.4,47c0-8.1-4.3-15.2-10.8-19.2    C83.2,32.6,94,49.3,94.2,49.5c0.2,0.3,0.5,0.5,0.8,0.5c0.2,0,0.4-0.1,0.5-0.2C96,49.6,96.1,48.9,95.8,48.5z M70.4,47    c0,11.3-9.2,20.4-20.4,20.4S29.6,58.3,29.6,47S38.7,26.6,50,26.6S70.4,35.7,70.4,47z"/>
		<path d="M79.2,62.4c-0.5-0.3-1.1-0.2-1.4,0.3c-0.1,0.1-9.3,14.4-27.8,14.4c-18.4,0-27.7-14.3-27.8-14.4c-0.3-0.5-0.9-0.6-1.4-0.3    c-0.5,0.3-0.6,0.9-0.3,1.4C20.6,64,30.5,79.2,50,79.2S79.4,64,79.5,63.8C79.8,63.3,79.6,62.7,79.2,62.4z"/>
		<path d="M48,60.6c8.7,0,15.7-7,15.7-15.7c0-0.6-0.4-1-1-1s-1,0.4-1,1c0,7.6-6.1,13.7-13.7,13.7c-0.6,0-1,0.4-1,1    S47.4,60.6,48,60.6z"/>
	</g>
</g>
</svg>