<?xml version="1.0" encoding="utf-8"?>
<!-- Generator: Adobe Illustrator 16.0.4, SVG Export Plug-In . SVG Version: 6.00 Build 0)  -->
<!DOCTYPE svg PUBLIC "-//W3C//DTD SVG 1.1//EN" "http://www.w3.org/Graphics/SVG/1.1/DTD/svg11.dtd">
<svg version="1.1" id="Your_Icon" xmlns="http://www.w3.org/2000/svg" xmlns:xlink="http://www.w3.org/1999/xlink" x="0px" y="0px"
	 width="100px" height="100px" viewBox="0 0 100 100" enable-background="new 0 0 100 100" xml:space="preserve">
<path d="M77.164,4.052c-0.124-0.77-0.658-1.415-1.389-1.683c-4.458-1.627-10.348-3.239-16.671-3.243
	c-4.96-0.001-10.214,1.011-15.099,3.859l0,0c-2.459,1.43-4.397,3.237-5.874,5.272c-2.222,3.057-3.404,6.574-4.07,10.145
	c-0.538,2.888-0.74,5.83-0.849,8.683c-1.273,0.03-2.717,0.039-4.03,0.039c-1.15,0-2.201-0.007-2.967-0.015
	c-0.382-0.005-0.691-0.007-0.906-0.01c-0.214-0.004-0.329-0.005-0.332-0.005c-0.577-0.008-1.143,0.22-1.554,0.624
	c-0.411,0.407-0.645,0.971-0.641,1.55l0.086,14.364c0.008,1.197,0.977,2.25,2.171,2.25c0.001,0,0.576,0,1.508,0
	c2.115,0,6.062-0.091,9.097-0.031c0.449,9.866,0.554,24.653,0.554,36.128c0,4.836-0.02,9.051-0.036,12.088
	c-0.011,1.515-0.02,2.718-0.027,3.554c-0.007,0.832-0.011,1.278-0.011,1.281c-0.005,0.577,0.221,1.135,0.63,1.545
	c0.408,0.408,0.965,0.637,1.543,0.634l19.226-0.097c0.577-0.003,1.122-0.234,1.527-0.646c0.406-0.411,0.628-0.959,0.623-1.54
	c0,0-0.102-11.821-0.22-24.573C59.356,63.26,59.245,51.62,59.18,46.2c1.187-0.021,2.568-0.029,3.912-0.027
	c1.571,0,3.101,0.01,4.235,0.02c0.565,0.004,1.034,0.009,1.36,0.014c0.326,0.004,0.51,0.005,0.51,0.005
	c0.578,0.008,1.135-0.216,1.546-0.622c0.412-0.406,0.646-0.958,0.646-1.536l0.025-13.305c0.001-0.578-0.226-1.319-0.635-1.726
	c-0.408-0.407-0.958-0.823-1.537-0.823c0,0-0.259,0-0.719,0c-0.459,0-1.114,0.196-1.898,0.196c-2.412,0-6.06,0.085-8.947,0.036
	c0.053-1.476,0.186-2.731,0.404-3.843c0.209-1.083,0.496-1.96,0.836-2.683c0.257-0.542,0.541-0.968,0.846-1.326
	c0.462-0.536,0.964-0.897,1.608-1.167c0.643-0.267,1.452-0.426,2.489-0.427c1.84-0.005,4.367,0.539,7.533,1.761
	c0.022,0.009,0.048,0.013,0.072,0.022c0.025,0.008,0.047,0.023,0.072,0.03c0.047,0.014,0.093,0.017,0.14,0.027
	c0.073,0.018,0.145,0.034,0.218,0.043c0.07,0.008,0.14,0.011,0.207,0.014c0.072,0.001,0.141,0.003,0.214-0.001
	c0.07-0.005,0.14-0.016,0.206-0.027c0.069-0.011,0.138-0.025,0.204-0.042s0.131-0.041,0.194-0.065
	c0.066-0.023,0.132-0.049,0.194-0.08c0.061-0.03,0.118-0.064,0.176-0.099c0.061-0.037,0.121-0.076,0.177-0.119
	c0.055-0.04,0.104-0.084,0.153-0.13c0.055-0.049,0.106-0.098,0.152-0.151c0.045-0.052,0.087-0.106,0.129-0.162
	c0.041-0.057,0.084-0.115,0.121-0.178c0.034-0.061,0.066-0.127,0.099-0.193c0.02-0.044,0.045-0.083,0.063-0.129
	c0.011-0.025,0.013-0.05,0.023-0.078c0.006-0.023,0.021-0.043,0.028-0.068c0.437-1.439,1.187-3.851,1.829-6.396
	c0.321-1.276,0.619-2.587,0.84-3.851c0.219-1.265,0.366-2.473,0.369-3.598C77.273,5.017,77.243,4.534,77.164,4.052z M59.03,15.741
	c-1.071,0.554-2.003,1.335-2.75,2.274c-1.125,1.414-1.849,3.149-2.304,5.123c-0.454,1.978-0.647,4.219-0.647,6.747
	c0,0.258,0.002,0.521,0.005,0.786c0.019,1.155,0.94,1.774,2.095,1.812c3.075,0.098,8.115-0.203,11.194-0.203
	c0.162,0,0.312,0,0.462,0l-0.016,9.267c-1.105-0.008-2.519,0.142-3.978,0.142c-2.303,0-4.687,0.1-6.208,0.174
	c-1.167,0.059-2.072,1.065-2.057,2.232c0.059,3.694,0.188,17.4,0.307,30.15c0.059,6.374,0.113,12.528,0.153,17.077
	c0.02,2.207,0.035,4.039,0.048,5.34l-14.866,0.079c0.023-2.866,0.054-8.303,0.054-14.817c0-12.314-0.117-28.438-0.658-38.399
	c-0.06-1.121-0.96-2.004-2.082-2.043c-2.928-0.104-7.795-0.123-10.602-0.125l-0.06-9.916c0.612,0.005,1.317,0.009,2.062,0.009
	c2.114-0.001,4.538-0.023,6.25-0.123c1.121-0.063,2.008-0.979,2.036-2.1c0.117-4.549,0.376-9.168,1.585-13.097
	c0.603-1.967,1.431-3.757,2.575-5.331c1.147-1.572,2.604-2.94,4.554-4.078l0,0c4.098-2.386,8.536-3.269,12.922-3.27
	c4.993-0.004,9.877,1.167,13.829,2.505c-0.03,0.676-0.132,1.51-0.29,2.415c-0.291,1.67-0.764,3.572-1.243,5.313
	c-0.221,0.797-0.44,1.556-0.649,2.255c-2.551-0.825-4.822-1.271-6.893-1.274C62.099,14.663,60.461,14.997,59.03,15.741z"/>
</svg>
