<?xml version="1.0" encoding="utf-8"?>
<!-- Generator: Adobe Illustrator 16.0.4, SVG Export Plug-In . SVG Version: 6.00 Build 0)  -->
<!DOCTYPE svg PUBLIC "-//W3C//DTD SVG 1.1//EN" "http://www.w3.org/Graphics/SVG/1.1/DTD/svg11.dtd">
<svg version="1.1" id="Layer_1" xmlns:sketch="http://www.bohemiancoding.com/sketch/ns"
	 xmlns="http://www.w3.org/2000/svg" xmlns:xlink="http://www.w3.org/1999/xlink" x="0px" y="0px" width="100px" height="100px"
	 viewBox="0 0 100 100" enable-background="new 0 0 100 100" xml:space="preserve">
<title>face-happy</title>
<path id="Page-1" sketch:type="MSPage" d="M49.717,100c-6.423,0-12.739-1.293-18.774-3.842
	c-5.133-2.168-9.978-5.236-14.012-8.873c-4.799-4.328-8.623-9.077-11.365-14.118c-3.152-5.794-4.98-12.174-5.436-18.963
	c-0.513-7.657,0.495-14.946,2.994-21.665c2.096-5.633,5.236-10.882,9.333-15.602c3.798-4.375,8.621-8.189,13.948-11.032
	c6.11-3.261,12.692-5.188,19.564-5.725C47.495,0.061,49.025,0,50.516,0c10.123,0,19.289,2.714,27.24,8.068
	c6.898,4.644,12.645,11.168,16.617,18.865c3.281,6.359,5.141,12.845,5.521,19.274c1.066,17.973-6.207,30.042-12.498,37.003
	c-4.235,4.688-8.984,8.429-14.115,11.116c-5.729,3.004-12.215,4.848-19.272,5.48C52.583,99.936,51.139,100,49.717,100L49.717,100z
	 M50.103,4.18c-1.436,0-2.908,0.061-4.375,0.182c-6.201,0.51-11.667,2.142-17.201,5.136C12.709,18.057,4.019,32.482,4.057,50.117
	c0.059,26.863,19.461,38.262,27.8,41.915c5.909,2.589,12.05,3.901,18.253,3.901c21.523,0.002,41.333-16.541,45.099-37.66
	c1.746-9.797,0.208-20.133-4.331-29.104C87.91,23.309,76.199,4.18,50.103,4.18L50.103,4.18z M35.526,29.623
	c8.451-0.591,7.938,13.844-0.699,12.378C28.66,40.954,28.261,30.131,35.526,29.623L35.526,29.623z M63.438,29.659
	c8.004-1.009,8.74,12.445,0.699,12.445C56.963,42.104,56.246,30.565,63.438,29.659L63.438,29.659z M76.042,60.544
	c0,1.438-11.659,18.229-26.042,18.229c-14.382,0-26.042-16.791-26.042-18.229S35.618,71.586,50,71.586
	C64.383,71.586,76.042,59.105,76.042,60.544L76.042,60.544z"/>
</svg>
