<?xml version="1.0" encoding="utf-8"?>
<!-- Generator: Adobe Illustrator 19.0.0, SVG Export Plug-In . SVG Version: 6.00 Build 0)  -->
<svg version="1.1" id="Layer_1" xmlns="http://www.w3.org/2000/svg" xmlns:xlink="http://www.w3.org/1999/xlink" x="0px" y="0px"
	 viewBox="0 0 500 500" style="enable-background:new 0 0 500 500;" xml:space="preserve">
<g>
	<path d="M375.5,302.1c11.1-3.2,19.2-13.4,19.2-25.5c0-14.7-11.9-26.6-26.6-26.6c-14.7,0-26.6,11.9-26.6,26.6
		c0,12.1,8.1,22.3,19.2,25.5c-13.3,3.3-23.2,15.3-23.2,29.6v41.1h7.2h4V431h14.4v-58.2h9.9V431h14.4v-58.2h4h7.2v-41.1
		C398.7,317.4,388.8,305.4,375.5,302.1z M368.2,288.8c-6.7,0-12.2-5.5-12.2-12.2c0-6.7,5.5-12.2,12.2-12.2c6.7,0,12.2,5.5,12.2,12.2
		C380.4,283.3,374.9,288.8,368.2,288.8z"/>
	<path d="M481,350.1v-22.7c0-11.8-8-21.7-18.9-24.8c11.2-3.1,19.6-13.3,19.6-25.5c0-14.6-11.9-26.5-26.5-26.5
		c-14.6,0-26.5,11.9-26.5,26.5c0,4.1,1,8,2.7,11.5c-0.8-0.4-1.8-0.8-3.2-0.8c-6.4-0.2-9.9,9.8-11.5,12.5c4.6,2.7,17.8,3,17.8-6.2
		c0-0.1,0-0.3,0-0.6c3.5,4.4,8.3,7.6,13.8,9.1c-10.9,3.1-18.9,12.9-18.9,24.8l0,22.5L418,393.8h17.9V431h14.4v-37.2h9.8V431h14.4
		v-37.2h17.9L481,350.1z M443.1,277.8c3.3-1.4,7.8-3.7,11.5-7.3c3.3,2.7,7.6,5,12.5,5.7c0,0.4,0.1,0.7,0.1,1.1
		c0,6.7-5.4,12.1-12.1,12.1C448.7,289.2,443.4,284.1,443.1,277.8z M436.6,379.4l6.8-26.4l0.3-25.6c0-6.3,5.1-11.4,11.4-11.4
		c6.3,0,11.4,5.1,11.4,11.4l0,23.4l7.1,28.6C473.7,379.4,436.6,379.4,436.6,379.4z"/>
	<path d="M45.3,302.1c11.1-3.2,19.2-13.4,19.2-25.5c0-14.7-11.9-26.6-26.6-26.6S11.4,262,11.4,276.6c0,12.1,8.1,22.3,19.2,25.5
		c-13.3,3.3-23.2,15.3-23.2,29.6v41.1h11.2V431H33v-58.2H21.8v-41.1c0-8.9,7.2-16.1,16.1-16.1S54,322.8,54,331.7v41.1H42.9V431h14.4
		v-58.2h11.2v-41.1C68.4,317.4,58.5,305.4,45.3,302.1z M25.7,276.6c0-6.7,5.5-12.2,12.2-12.2s12.2,5.5,12.2,12.2
		c0,6.7-5.5,12.2-12.2,12.2C31.2,288.8,25.7,283.3,25.7,276.6z"/>
	<path d="M153.8,327.4c0-11.8-8-21.7-18.9-24.8c11.2-3.1,19.6-13.3,19.6-25.5c0-14.6-11.9-26.5-26.5-26.5s-26.5,11.9-26.5,26.5
		c0,4.1,1,8,2.7,11.5c-0.8-0.4-1.8-0.8-3.2-0.8c-6.4-0.2-9.9,9.8-11.5,12.5c4.6,2.7,17.8,3,17.8-6.2c0-0.1,0-0.3,0-0.6
		c3.5,4.4,8.3,7.6,13.8,9.1c-10.8,3.1-18.9,12.9-18.9,24.8l0,22.5l-11.3,43.9h17.9V431h14.4v-37.2h9.8V431h14.4v-37.2h17.9
		l-11.3-43.7L153.8,327.4L153.8,327.4z M128,289.2c-6.5,0-11.7-5.1-12-11.5c3.3-1.4,7.8-3.7,11.5-7.3c3.3,2.7,7.6,5,12.5,5.7
		c0,0.4,0.1,0.7,0.1,1.1C140.1,283.8,134.7,289.2,128,289.2z"/>
	<path d="M301.3,258.7v-49.2c0-28.9-23.6-52.5-52.5-52.5c-28.9,0-52.5,23.5-52.5,52.5v49.2h13.8l-18.9,99.5h36.4V431h14.4v-72.8
		h14.4V431h14.4v-72.8h35.8l-18.9-99.5C287.5,258.7,301.3,258.7,301.3,258.7z M248.8,171.3c2.4,0,4.8,0.3,7.1,0.7
		c-0.4,3.6-3.4,6.5-7.1,6.5c-3.7,0-6.8-2.9-7.1-6.5C244,171.6,246.4,171.3,248.8,171.3z M286.9,258.3h-76.2v-48.9
		c0-13.4,7-25.2,17.5-32c2.7,8.9,10.8,15.5,20.6,15.5c9.8,0,17.9-6.6,20.6-15.5c10.5,6.8,17.5,18.6,17.5,32L286.9,258.3L286.9,258.3
		z"/>
	<path d="M320.1,117.1c-4.7-6.6-12.5-17.6-24-17.6c-1.1,0-2.2,0.1-3.3,0.3c-0.6,0.1-1.1,0.3-1.6,0.5c-4.9-19.1-22.3-33.4-42.9-33.4
		c-24.5,0-44.4,19.9-44.4,44.4c0,24.5,19.9,44.4,44.4,44.4c16.5,0,30.8-9,38.5-22.4c3.6,2.3,8,3.5,13.3,3.5c7.7,0,16.2-2.7,21.1-6.7
		l5.8-4.7l-4.8-5.6C321.5,119.2,320.9,118.3,320.1,117.1z M257.9,82.9c5.5,1.9,10.2,5.2,13.7,9.6c-6.4-0.7-12.5-2.5-16.4-4.2
		C256.3,86.3,257.1,84.5,257.9,82.9z M218.3,111.3c0-14.5,10.4-26.7,24.2-29.4c-6.2,11.7-15.2,24.4-24.1,29.8
		C218.3,111.6,218.3,111.4,218.3,111.3z M248.3,141.3c-11.2,0-21-6.2-26.1-15.3c10.4-4.9,19.2-15.2,25.8-25.2
		c7.5,3.7,18.5,6.5,28.7,6.5c0.5,0,0.9,0,1.4-0.1c0.2,1.4,0.3,2.7,0.3,4.1C278.2,127.8,264.8,141.3,248.3,141.3z M300.1,122.4
		c-6.8,0-7.3-3.2-7.6-4.5c-0.5-3.3,1.8-3.7,3-3.9c0.2,0,0.4-0.1,0.5-0.1c2.9,0,6.7,4.2,9.5,7.8C303.9,122.1,302,122.4,300.1,122.4z"
		/>
</g>
</svg>
