<?xml version="1.0" encoding="utf-8"?>
<!-- Generator: Adobe Illustrator 16.0.4, SVG Export Plug-In . SVG Version: 6.00 Build 0)  -->
<!DOCTYPE svg PUBLIC "-//W3C//DTD SVG 1.1//EN" "http://www.w3.org/Graphics/SVG/1.1/DTD/svg11.dtd">
<svg version="1.1" id="Layer_1" xmlns:sketch="http://www.bohemiancoding.com/sketch/ns"
	 xmlns="http://www.w3.org/2000/svg" xmlns:xlink="http://www.w3.org/1999/xlink" x="0px" y="0px" width="50px" height="67px"
	 viewBox="0 0 50 67" enable-background="new 0 0 50 67" xml:space="preserve">
<title>flag_notification</title>
<path id="Page-1" sketch:type="MSPage" d="M6.423,67H3.53V6.008l2.893-0.006C6.616,6.215,6.825,6.426,7.047,6.63
	c3.377,3.094,8.247,3.53,15.236-0.622c8.512-5.057,15.385-5.62,20.472-3.432c1.062,0.457,1.798,0.931,2.212,1.286l0.504,0.433
	v23.969v3.15L43.08,29.36c-0.199-0.172-0.689-0.488-1.467-0.822c-4.219-1.815-10.122-1.332-17.854,3.26
	c-5.349,3.179-9.825,4.021-13.549,3.062v-3.007c3.074,1.064,7.019,0.461,12.072-2.541c8.512-5.056,15.385-5.619,20.472-3.431V6.008
	c0,0-0.364-0.44-1.142-0.774C37.395,3.42,31.491,3.903,23.76,8.495C16.479,12.82,10.669,12.788,6.423,9.83V67z"/>
</svg>
