<?xml version="1.0" encoding="utf-8"?>
<!-- Generator: Adobe Illustrator 16.0.4, SVG Export Plug-In . SVG Version: 6.00 Build 0)  -->
<!DOCTYPE svg PUBLIC "-//W3C//DTD SVG 1.1//EN" "http://www.w3.org/Graphics/SVG/1.1/DTD/svg11.dtd">
<svg version="1.1" id="Layer_1" xmlns:sketch="http://www.bohemiancoding.com/sketch/ns"
	 xmlns="http://www.w3.org/2000/svg" xmlns:xlink="http://www.w3.org/1999/xlink" x="0px" y="0px" width="44px" height="44px"
	 viewBox="0 0 44 44" enable-background="new 0 0 44 44" xml:space="preserve">
<title>forbidden</title>
<path id="circle" sketch:type="MSPage" d="M35.418,36.832C31.869,40.043,27.163,42,22,42C10.954,42,2,33.046,2,22
	c0-5.163,1.957-9.869,5.168-13.417L35.418,36.832z M36.832,35.418C40.043,31.869,42,27.163,42,22c0-11.046-8.954-20-20-20
	c-5.163,0-9.869,1.957-13.417,5.168L36.832,35.418z M22,44c12.15,0,22-9.85,22-22S34.15,0,22,0S0,9.85,0,22S9.85,44,22,44z"/>
</svg>
