<?xml version="1.0" encoding="utf-8"?>
<!-- Generator: Adobe Illustrator 16.0.4, SVG Export Plug-In . SVG Version: 6.00 Build 0)  -->
<!DOCTYPE svg PUBLIC "-//W3C//DTD SVG 1.1//EN" "http://www.w3.org/Graphics/SVG/1.1/DTD/svg11.dtd">
<svg version="1.1" id="Layer_1" xmlns="http://www.w3.org/2000/svg" xmlns:xlink="http://www.w3.org/1999/xlink" x="0px" y="0px"
	 width="100px" height="100px" viewBox="0 0 100 100" enable-background="new 0 0 100 100" xml:space="preserve">
<path d="M86.133,28.812H69.188c7.59-2.169,15.331-5.975,19.185-12.647c0.354-0.61,0.146-1.391-0.466-1.742
	c-0.608-0.354-1.389-0.145-1.742,0.466c-5.748,9.948-21.883,12.951-30.809,13.857c7.512-3.572,19.926-10.47,21.712-17.776
	c0.618-2.522-0.005-4.886-1.854-7.018C73.514,1.992,71.574,1,69.442,1c-8.352,0-16.955,16.068-20.214,24.599
	C45.975,17.072,37.375,1,29.02,1c-2.134,0-4.074,0.992-5.771,2.952c-1.848,2.131-2.474,4.494-1.855,7.018
	c1.787,7.309,14.208,14.208,21.719,17.78c-8.922-0.902-25.06-3.901-30.815-13.861c-0.354-0.613-1.134-0.823-1.742-0.466
	c-0.611,0.352-0.821,1.132-0.466,1.742c3.854,6.672,11.594,10.478,19.185,12.647H12.206c-3.145,0-5.702,2.557-5.702,5.701v58.155
	c0,3.145,2.557,5.701,5.702,5.701h73.927c3.145,0,5.701-2.557,5.701-5.701V34.513C91.833,31.369,89.275,28.812,86.133,28.812z
	 M69.442,3.553c1.379,0,2.635,0.679,3.841,2.069c1.294,1.494,1.719,3.044,1.304,4.743c-1.648,6.745-15.858,14.199-23.521,17.547
	C53.562,20.479,62.377,3.553,69.442,3.553z M23.875,10.365c-0.416-1.697,0.01-3.249,1.303-4.743c1.207-1.39,2.463-2.069,3.841-2.069
	c7.064,0,15.88,16.928,18.375,24.359C39.731,24.566,25.524,17.114,23.875,10.365z M9.056,92.668V34.513
	c0-1.734,1.414-3.148,3.15-3.148h31.173c0.706,0.065,1.36,0.118,1.961,0.159v64.293H12.206C10.469,95.816,9.056,94.402,9.056,92.668
	z M89.28,92.668c0,1.734-1.413,3.148-3.147,3.148H52.995V31.533c0.633-0.043,1.329-0.098,2.085-0.167h31.05
	c1.734,0,3.15,1.413,3.15,3.149V92.668L89.28,92.668z"/>
</svg>
