<?xml version="1.0" encoding="utf-8"?>
<!-- Generator: Adobe Illustrator 16.0.4, SVG Export Plug-In . SVG Version: 6.00 Build 0)  -->
<!DOCTYPE svg PUBLIC "-//W3C//DTD SVG 1.1//EN" "http://www.w3.org/Graphics/SVG/1.1/DTD/svg11.dtd">
<svg version="1.1" id="Layer_1" xmlns="http://www.w3.org/2000/svg" xmlns:xlink="http://www.w3.org/1999/xlink" x="0px" y="0px"
	 width="100px" height="100px" viewBox="0 0 100 100" enable-background="new 0 0 100 100" xml:space="preserve">
<path d="M49.296,99.09c-14.045,0-28.087-3.971-28.087-12.671c0-9.769,5.037-18.623,13.127-23.812
	c-3.205-3.663-5.038-8.395-5.038-13.28c0-10.99,9.007-19.996,19.997-19.996c10.99,0,19.994,9.006,19.994,19.996
	c0,4.886-1.83,9.617-5.035,13.28c8.09,5.189,13.127,14.044,13.127,23.812C77.384,95.273,63.34,99.09,49.296,99.09z M49.303,33.922
	c-8.572,0-15.546,7.109-15.546,15.846c0,4.593,1.889,8.888,5.375,11.999c0.436,0.445,0.727,1.038,0.582,1.627
	c0,0.595-0.437,1.039-0.873,1.336c-7.845,4.001-12.639,12.146-12.639,21.03c0,5.035,10.026,8.74,23.246,8.74
	c13.221,0,23.245-3.705,23.245-8.74c0-8.885-4.792-17.029-12.64-21.03c-0.58-0.297-0.868-0.741-0.868-1.336
	c0-0.589,0.144-1.182,0.58-1.627c3.34-2.963,5.375-7.403,5.375-11.999C64.85,41.031,57.877,33.922,49.303,33.922z M-8142,23.91H8241
	 M-8142,23.91H8241 M-8142,23.91H8241 M83.107,52.213c-8.217,0-16.433-2.322-16.433-7.413c0-5.714,2.947-10.895,7.68-13.931
	c-1.876-2.144-2.947-4.91-2.947-7.769c0-6.43,5.27-11.698,11.699-11.698c6.429,0,11.696,5.269,11.696,11.698
	c0,2.858-1.07,5.625-2.945,7.769c4.733,3.036,7.68,8.217,7.68,13.931C99.538,49.98,91.323,52.213,83.107,52.213z M83.112,14.088
	c-5.018,0-9.096,4.159-9.096,9.271c0,2.687,1.104,5.2,3.145,7.02c0.256,0.261,0.425,0.607,0.34,0.952
	c0,0.348-0.254,0.607-0.51,0.781c-4.59,2.341-7.395,7.105-7.395,12.304c0,2.945,5.865,5.112,13.599,5.112
	c7.734,0,13.599-2.167,13.599-5.112c0-5.198-2.803-9.963-7.394-12.304c-0.34-0.174-0.509-0.434-0.509-0.781
	c0-0.345,0.085-0.691,0.34-0.952c1.953-1.733,3.145-4.331,3.145-7.02C92.206,18.247,88.126,14.088,83.112,14.088z M-8118,0.91H8265
	 M-8118,0.91H8265 M-8118,0.91H8265 M16.894,52.213c-8.216,0-16.433-2.322-16.433-7.413c0-5.714,2.947-10.895,7.68-13.93
	c-1.875-2.144-2.947-4.911-2.947-7.771c0-6.429,5.27-11.697,11.698-11.697c6.429,0,11.697,5.269,11.697,11.697
	c0,2.859-1.07,5.627-2.945,7.771c4.732,3.035,7.68,8.216,7.68,13.93C33.324,49.98,25.11,52.213,16.894,52.213z M16.897,14.088
	c-5.016,0-9.096,4.159-9.096,9.271c0,2.687,1.105,5.2,3.146,7.02c0.256,0.261,0.425,0.607,0.34,0.952
	c0,0.348-0.255,0.607-0.511,0.781c-4.59,2.342-7.394,7.105-7.394,12.304c0,2.945,5.865,5.112,13.599,5.112
	c7.735,0,13.598-2.167,13.598-5.112c0-5.198-2.802-9.962-7.394-12.304c-0.339-0.174-0.509-0.434-0.509-0.781
	c0-0.345,0.085-0.691,0.34-0.952c1.954-1.733,3.145-4.331,3.145-7.02C25.991,18.247,21.912,14.088,16.897,14.088z M-8165,0.91H8218
	 M-8165,0.91H8218 M-8165,0.91H8218"/>
</svg>
