<?xml version="1.0" encoding="utf-8"?>
<!-- Generator: Adobe Illustrator 16.0.4, SVG Export Plug-In . SVG Version: 6.00 Build 0)  -->
<!DOCTYPE svg PUBLIC "-//W3C//DTD SVG 1.1//EN" "http://www.w3.org/Graphics/SVG/1.1/DTD/svg11.dtd">
<svg version="1.1" id="Layer_1" xmlns="http://www.w3.org/2000/svg" xmlns:xlink="http://www.w3.org/1999/xlink" x="0px" y="0px"
	 width="100px" height="100px" viewBox="0 0 100 100" enable-background="new 0 0 100 100" xml:space="preserve">
<path d="M50,76.291c-9.969,0-19.937-2.818-19.937-8.994c0-6.934,3.575-13.219,9.318-16.903c-2.275-2.6-3.576-5.959-3.576-9.426
	c0-7.801,6.393-14.194,14.194-14.194s14.193,6.393,14.193,14.194c0,3.467-1.299,6.826-3.575,9.426
	c5.742,3.684,9.319,9.969,9.319,16.903C69.938,73.582,59.969,76.291,50,76.291z M50,29.374c-6.393,0-11.594,5.201-11.594,11.594
	c0,3.359,1.409,6.501,4.009,8.777c0.325,0.325,0.542,0.759,0.433,1.191c0,0.434-0.325,0.76-0.65,0.977
	c-5.851,2.926-9.426,8.885-9.426,15.385c0,3.684,7.477,6.393,17.336,6.393c9.86,0,17.336-2.709,17.336-6.393
	c0-6.5-3.575-12.459-9.426-15.385c-0.434-0.217-0.65-0.543-0.65-0.977c0-0.432,0.108-0.866,0.434-1.191
	c2.491-2.167,4.009-5.417,4.009-8.777C61.594,34.575,56.394,29.374,50,29.374z M90.74,42.051c1.951-2.275,3.034-5.093,3.034-8.018
	c0-6.827-5.526-12.353-12.353-12.353s-12.353,5.526-12.353,12.353c0,2.925,1.084,5.851,3.035,8.018
	c-3.468,2.167-5.96,5.526-7.152,9.318c0.759,0.76,1.518,1.518,2.167,2.275c0.867-4.334,3.685-8.126,7.693-10.185
	c0.434-0.216,0.65-0.542,0.65-0.975c0-0.434-0.108-0.867-0.434-1.192c-2.168-1.842-3.359-4.551-3.359-7.368
	c0-5.418,4.335-9.752,9.752-9.752c5.418,0,9.752,4.334,9.752,9.752c0,2.817-1.191,5.526-3.358,7.368
	c-0.326,0.325-0.542,0.758-0.434,1.192c0,0.433,0.324,0.759,0.649,0.975c4.984,2.492,8.019,7.476,8.019,13.003
	c0,2.924-6.394,5.309-14.628,5.309c-4.441,0-8.343-0.65-11.052-1.842c0.324,0.975,0.542,1.951,0.65,3.033
	c3.034,0.975,6.717,1.408,10.401,1.408c8.561,0,17.229-2.49,17.229-7.908C98.65,50.611,95.725,45.193,90.74,42.051z M29.63,60.037
	c-2.708,1.084-6.609,1.844-11.052,1.844c-8.235,0-14.628-2.385-14.628-5.311c0-5.525,3.034-10.51,8.018-13.002
	c0.434-0.217,0.65-0.542,0.65-0.975c0-0.434-0.108-0.867-0.433-1.192c-2.167-1.842-3.359-4.551-3.359-7.368
	c0-5.418,4.334-9.752,9.752-9.752c5.417,0,9.751,4.334,9.751,9.752c0,2.816-1.192,5.525-3.359,7.368
	c-0.325,0.325-0.542,0.758-0.434,1.192c0,0.433,0.325,0.758,0.65,0.975c4.117,2.059,6.826,5.851,7.693,10.186
	c0.649-0.867,1.3-1.625,2.167-2.275c-1.192-3.793-3.685-7.151-7.151-9.319c1.95-2.275,3.034-5.093,3.034-8.018
	c0-6.826-5.526-12.352-12.352-12.352c-6.826,0-12.352,5.417-12.352,12.244c0,2.925,1.083,5.851,3.034,8.018
	c-4.984,3.142-7.91,8.56-7.91,14.519c0,5.418,8.668,7.91,17.228,7.91c3.684,0,7.368-0.434,10.402-1.408
	C29.088,62.096,29.413,61.012,29.63,60.037z"/>
</svg>
