<?xml version="1.0" encoding="utf-8"?>
<!-- Generator: Adobe Illustrator 16.0.4, SVG Export Plug-In . SVG Version: 6.00 Build 0)  -->
<!DOCTYPE svg PUBLIC "-//W3C//DTD SVG 1.1//EN" "http://www.w3.org/Graphics/SVG/1.1/DTD/svg11.dtd">
<svg version="1.1" id="Layer_1" xmlns="http://www.w3.org/2000/svg" xmlns:xlink="http://www.w3.org/1999/xlink" x="0px" y="0px"
	 width="100px" height="100px" viewBox="0 0 100 100" enable-background="new 0 0 100 100" xml:space="preserve">
<path d="M49.542,89.547c-15.924,0-31.845-4.502-31.845-14.367c0-11.076,5.711-21.115,14.884-26.997
	c-3.635-4.154-5.713-9.52-5.713-15.057c0-12.461,10.212-22.672,22.673-22.672c12.46,0,22.668,10.211,22.668,22.672
	c0,5.539-2.073,10.903-5.707,15.057c9.172,5.882,14.883,15.921,14.883,26.997C81.389,85.219,65.464,89.547,49.542,89.547z M49.54,14
	c-10.326,0-18.726,8.45-18.726,18.833c0,5.46,2.276,10.565,6.476,14.263c0.524,0.528,0.875,1.232,0.699,1.933
	c0,0.71-0.526,1.236-1.05,1.59c-9.451,4.752-15.225,14.436-15.225,24.993C21.714,81.597,33.791,86,49.715,86
	s27.999-4.403,27.999-10.388c0-10.56-5.775-20.241-15.225-24.993c-0.7-0.354-1.048-0.88-1.048-1.59c0-0.701,0.177-1.405,0.699-1.933
	c4.024-3.521,6.477-8.798,6.477-14.263C68.265,22.45,59.868,14,49.54,14z M84.452,59.736c-7.757,0-15.515-2.191-15.515-6.998
	c0-5.395,2.781-10.285,7.25-13.151c-1.771-2.025-2.782-4.636-2.782-7.335c0-6.07,4.975-11.043,11.045-11.043
	c6.068,0,11.041,4.975,11.041,11.043c0,2.7-1.009,5.311-2.779,7.335c4.468,2.867,7.25,7.756,7.25,13.151
	C99.962,57.629,92.207,59.736,84.452,59.736z M84.457,23.973c-4.611,0-8.359,3.873-8.359,8.634c0,2.501,1.014,4.841,2.89,6.536
	c0.235,0.244,0.392,0.565,0.312,0.886c0,0.325-0.234,0.566-0.469,0.728c-4.219,2.18-6.798,6.616-6.798,11.457
	c0,2.743,5.393,4.76,12.502,4.76c7.108,0,12.498-2.017,12.498-4.76c0-4.84-2.575-9.277-6.795-11.457
	c-0.312-0.162-0.468-0.404-0.468-0.728c0-0.321,0.078-0.642,0.311-0.886c1.797-1.613,2.891-4.033,2.891-6.536
	C92.817,27.846,89.066,23.973,84.457,23.973z M15.553,59.736c-7.758,0-15.515-2.191-15.515-6.998c0-5.395,2.781-10.285,7.25-13.151
	c-1.771-2.025-2.782-4.636-2.782-7.335c0-6.07,4.975-11.043,11.045-11.043c6.068,0,11.041,4.975,11.041,11.043
	c0,2.7-1.009,5.311-2.779,7.335c4.468,2.867,7.25,7.756,7.25,13.151C31.062,57.629,23.308,59.736,15.553,59.736z M15.558,23.973
	c-4.611,0-8.36,3.873-8.36,8.634c0,2.501,1.014,4.841,2.89,6.536c0.235,0.244,0.392,0.565,0.313,0.886
	c0,0.325-0.234,0.566-0.469,0.728c-4.219,2.18-6.798,6.616-6.798,11.457c0,2.743,5.392,4.76,12.502,4.76
	c7.108,0,12.498-2.017,12.498-4.76c0-4.84-2.576-9.277-6.795-11.457c-0.313-0.162-0.468-0.404-0.468-0.728
	c0-0.321,0.078-0.642,0.311-0.886c1.796-1.613,2.891-4.033,2.891-6.536C23.917,27.846,20.167,23.973,15.558,23.973z"/>
</svg>
