<?xml version="1.0" encoding="utf-8"?>
<!-- Generator: Adobe Illustrator 19.0.0, SVG Export Plug-In . SVG Version: 6.00 Build 0)  -->
<svg version="1.1" id="Layer_1" xmlns="http://www.w3.org/2000/svg" xmlns:xlink="http://www.w3.org/1999/xlink" x="0px" y="0px"
	 viewBox="0 0 1000 1000" enable-background="new 0 0 1000 1000" xml:space="preserve">
<g id="Page-1">
	<g id="heart-o">
		<path id="Shape" fill="#010101" d="M695.5,157.5c29.6,0,59.4,6.2,88,19.4
			c103.3,48,147.6,169.3,98.9,271.2C833.7,550,499.5,842,499.5,842s0-0.3-0.1-0.9c0,0.6-0.1,0.9-0.1,0.9s-334-292-382.7-393.8
			C68,346.4,112.3,225,215.5,177c28.4-13.2,58.4-19.4,88-19.4c77.6,0,151.9,43.2,187.1,117c3.3,7.1,6.3,15.9,8.9,26.2
			c2.6-10.3,5.6-19.2,8.9-26.2C543.6,200.8,617.9,157.5,695.5,157.5L695.5,157.5z M695.5,73.1c-54.2,0-107.3,15-153.6,43.2
			c-15.2,9.3-29.4,19.9-42.4,31.7c-13.1-11.8-27.3-22.4-42.4-31.7C410.8,88,357.8,73,303.5,73c-42.9,0-84.4,9.2-123.6,27.3
			c-70.9,33.1-124.3,91.3-150.6,164.3C3.4,337,7.3,415.1,40.5,484.6c15.9,33.3,56.8,96.4,227.4,259.7
			c82.3,78.7,158.3,145.8,173.3,159c7.4,7.1,16.3,12.9,26.2,17c10.2,4.2,21.1,6.2,31.8,6.2c20.1,0,40-7.2,55.8-21
			c3.4-3,86-75.2,176-161.2C901.7,581,942.6,517.9,958.5,484.6c33.2-69.4,37.1-147.6,11.1-219.9c-26.3-73-79.8-131.3-150.7-164.2
			C779.9,82.4,738.4,73.1,695.5,73.1L695.5,73.1L695.5,73.1z"/>
	</g>
</g>
</svg>
