<?xml version="1.0" encoding="utf-8"?>
<!-- Generator: Adobe Illustrator 16.0.4, SVG Export Plug-In . SVG Version: 6.00 Build 0)  -->
<!DOCTYPE svg PUBLIC "-//W3C//DTD SVG 1.1//EN" "http://www.w3.org/Graphics/SVG/1.1/DTD/svg11.dtd">
<svg version="1.1" id="Layer_3" xmlns="http://www.w3.org/2000/svg" xmlns:xlink="http://www.w3.org/1999/xlink" x="0px" y="0px"
	 width="100px" height="100px" viewBox="0 0 100 100" enable-background="new 0 0 100 100" xml:space="preserve">
<g>
	<path d="M50.002,90.182c-0.539,0-1.055-0.213-1.436-0.594L8.184,49.197c-4.583-4.581-7.106-10.672-7.106-17.149
		c0-6.478,2.523-12.571,7.106-17.152c4.582-4.583,10.673-7.106,17.152-7.106c6.479,0,12.57,2.523,17.152,7.106l7.514,7.511
		l7.518-7.511c4.583-4.581,10.674-7.104,17.148-7.104c6.479,0,12.572,2.523,17.153,7.106c9.456,9.458,9.456,24.844,0,34.301
		L51.439,89.588C51.059,89.969,50.542,90.182,50.002,90.182z M25.336,11.853c-5.393,0-10.464,2.101-14.28,5.916
		c-3.814,3.815-5.916,8.885-5.916,14.28c0,5.394,2.101,10.463,5.916,14.277l38.946,38.95l38.945-38.952
		c7.872-7.874,7.872-20.683,0-28.557c-3.812-3.814-8.886-5.916-14.279-5.916c-5.391,0-10.462,2.101-14.276,5.916l-8.955,8.949
		c-0.793,0.793-2.079,0.792-2.873,0l-8.949-8.947C35.801,13.954,30.73,11.853,25.336,11.853z"/>
</g>
</svg>
