<?xml version="1.0" encoding="utf-8"?>
<!-- Generator: Adobe Illustrator 16.0.0, SVG Export Plug-In . SVG Version: 6.00 Build 0)  -->
<!DOCTYPE svg PUBLIC "-//W3C//DTD SVG 1.1//EN" "http://www.w3.org/Graphics/SVG/1.1/DTD/svg11.dtd">
<svg version="1.1" id="Layer_3" xmlns="http://www.w3.org/2000/svg" xmlns:xlink="http://www.w3.org/1999/xlink" x="0px" y="0px"
	 width="100px" height="100px" viewBox="0 0 100 100" enable-background="new 0 0 100 100" xml:space="preserve">
<g>
	<path d="M50.006,91.195c-0.539,0-1.055-0.213-1.436-0.594L8.188,50.211C3.605,45.63,1.083,39.539,1.083,33.062
		c0-6.478,2.523-12.571,7.106-17.152c4.582-4.583,10.673-7.106,17.152-7.106s12.57,2.523,17.152,7.106l7.514,7.511l7.517-7.511
		c4.584-4.581,10.675-7.104,17.148-7.104c6.479,0,12.572,2.523,17.152,7.106c9.457,9.458,9.457,24.844,0,34.301L51.443,90.602
		C51.062,90.982,50.547,91.195,50.006,91.195z"/>
</g>
</svg>
