<?xml version="1.0" encoding="utf-8"?>
<!-- Generator: Adobe Illustrator 16.0.4, SVG Export Plug-In . SVG Version: 6.00 Build 0)  -->
<!DOCTYPE svg PUBLIC "-//W3C//DTD SVG 1.1//EN" "http://www.w3.org/Graphics/SVG/1.1/DTD/svg11.dtd">
<svg version="1.1" id="Layer_3" xmlns="http://www.w3.org/2000/svg" xmlns:xlink="http://www.w3.org/1999/xlink" x="0px" y="0px"
	 width="100px" height="100px" viewBox="0 0 100 100" enable-background="new 0 0 100 100" xml:space="preserve">
<g>
	<path d="M50.002,90.182c-0.539,0-1.055-0.213-1.436-0.594L8.184,49.197c-4.583-4.581-7.106-10.672-7.106-17.149
		c0-6.478,2.523-12.571,7.106-17.152c4.582-4.583,10.673-7.106,17.152-7.106s12.57,2.523,17.152,7.106l7.514,7.511l7.518-7.511
		c4.584-4.581,10.674-7.104,17.148-7.104c6.479,0,12.572,2.523,17.152,7.106c9.457,9.458,9.457,24.844,0,34.301L51.439,89.588
		C51.059,89.969,50.542,90.182,50.002,90.182z M26.12,13.02c-5.222,0-10.131,2.034-13.826,5.728
		c-3.693,3.694-5.728,8.603-5.728,13.826c0,5.223,2.034,10.131,5.728,13.824l37.708,37.712L87.71,46.396
		c7.621-7.624,7.621-20.026,0-27.65c-3.691-3.693-8.604-5.728-13.826-5.728c-5.219,0-10.129,2.034-13.821,5.728l-8.671,8.665
		c-0.768,0.768-2.014,0.767-2.782,0l-8.665-8.663C36.252,15.054,31.342,13.02,26.12,13.02z"/>
</g>
</svg>
