<?xml version="1.0" encoding="utf-8"?>
<!-- Generator: Adobe Illustrator 19.0.0, SVG Export Plug-In . SVG Version: 6.00 Build 0)  -->
<svg version="1.1" id="Layer_1" xmlns="http://www.w3.org/2000/svg" xmlns:xlink="http://www.w3.org/1999/xlink" x="0px" y="0px"
	 viewBox="0 0 500 500" style="enable-background:new 0 0 500 500;" xml:space="preserve">
<style type="text/css">
	.st0{fill:#020202;}
</style>
<g id="Page-1">
	<g id="heart-o">
		<path id="Shape" class="st0" d="M348.4,34.4c-27.4,0-54.2,7.6-77.5,21.8c-7.7,4.7-14.8,10-21.4,16c-6.6-6-13.8-11.3-21.4-16
			c-23.4-14.3-50.1-21.9-77.5-21.9c-21.7,0-42.6,4.6-62.4,13.8c-35.8,16.7-62.7,46.1-76,82.9c-13.1,36.5-11.1,76,5.7,111
			c8,16.8,28.7,48.7,114.8,131.1c41.5,39.7,79.9,73.6,87.5,80.3c3.7,3.6,8.2,6.5,13.2,8.6c5.1,2.1,10.7,3.1,16.1,3.1
			c10.1,0,20.2-3.6,28.2-10.6c1.7-1.5,43.4-38,88.8-81.4c86.2-82.4,106.8-114.3,114.8-131.1c16.8-35,18.7-74.5,5.6-111
			c-13.3-36.8-40.3-66.3-76.1-82.9C391,39.1,370.1,34.4,348.4,34.4L348.4,34.4L348.4,34.4z"/>
	</g>
</g>
</svg>
