<?xml version="1.0" encoding="utf-8"?>
<!-- Generator: Adobe Illustrator 16.0.4, SVG Export Plug-In . SVG Version: 6.00 Build 0)  -->
<!DOCTYPE svg PUBLIC "-//W3C//DTD SVG 1.1//EN" "http://www.w3.org/Graphics/SVG/1.1/DTD/svg11.dtd">
<svg version="1.1" id="Ebene_1" xmlns="http://www.w3.org/2000/svg" xmlns:xlink="http://www.w3.org/1999/xlink" x="0px" y="0px"
	 width="92.639px" height="100.816px" viewBox="0 0 92.639 100.816" enable-background="new 0 0 92.639 100.816"
	 xml:space="preserve">
<path d="M46.767,11.752c0.701,0,1.409,0.256,1.921,0.694l16.445,14.227c0.392,0.384,0.769,0.512,1.024,0.512
	c0.529,0,0.879-0.488,0.879-1.386v-3.432c0-1.415,1.148-2.562,2.562-2.562h6.399c1.415,0,2.562,1.154,2.562,2.562v13.4
	c0,1.409,0.896,3.331,1.922,4.228l7.987,6.911c1.071,0.896,0.769,1.677-0.624,1.677h-6.739c-1.414,0-2.562,1.016-2.562,2.269
	c0,1.253,0,2.306,0,2.269v33.679c0,1.413-1.147,2.562-2.562,2.562H17.485c-1.414,0-2.562-1.148-2.562-2.562V51.145
	c0-1.414-1.147-2.562-2.562-2.562H5.62c-1.415,0-1.695-0.75-0.624-1.676l39.833-34.458c0.534-0.52,1.208-0.647,1.977-0.647
	 M46.767,7.908c-1.654,0-3.235,0.579-4.453,1.63L2.482,43.956c-2.619,2.265-1.969,4.73-1.708,5.432
	c0.261,0.641,1.408,2.947,4.868,2.994h5.459v34.372c0,3.587,2.817,6.405,6.406,6.405h58.565c3.531,0,6.405-2.873,6.405-6.405V53.116
	v-0.692h5.458c3.463,0,4.586-2.291,4.847-2.994c0.262-0.702,0.911-3.169-1.709-5.434l-7.986-6.91
	c-0.243-0.231-0.595-0.998-0.609-1.34V22.354c0-3.532-2.874-6.405-6.405-6.405h-6.399c-2.796,0-5.178,1.799-6.052,4.3L51.242,9.54
	c-1.241-1.068-2.77-1.582-4.437-1.631H46.767z"/>
</svg>
