<?xml version="1.0" encoding="UTF-8" standalone="no"?>
<svg width="98px" height="98px" viewBox="0 0 98 98" version="1.1" xmlns="http://www.w3.org/2000/svg" xmlns:xlink="http://www.w3.org/1999/xlink" xmlns:sketch="http://www.bohemiancoding.com/sketch/ns">
    <!-- Generator: Sketch 3.2.2 (9983) - http://www.bohemiancoding.com/sketch -->
    <title>info</title>
    <desc>Created with Sketch.</desc>
    <defs></defs>
    <g id="Page-1" stroke="none" stroke-width="1" fill="none" fill-rule="evenodd" sketch:type="MSPage">
        <g id="info" sketch:type="MSLayerGroup" fill="#000000">
            <g id="Your_Icon" sketch:type="MSShapeGroup">
                <g id="Group">
                    <path d="M49,98 C21.98,98 0,76.02 0,49 C0,21.981 21.98,0 49,0 C76.02,0 98,21.981 98,49 C98,76.02 76.02,98 49,98 L49,98 Z M49,5.746 C27.079,5.746 5.246,27.079 5.246,49 C5.246,70.922 27.079,92.755 49,92.755 C70.92,92.755 92.755,70.922 92.755,49 C92.755,27.079 70.92,5.746 49,5.746 Z M37.243,71.809 C37.458,70.856 37.781,69.594 38.212,68.026 L44.022,46.803 C44.085,46.556 44.137,46.31 44.183,46.063 C44.229,45.818 44.253,45.587 44.253,45.372 C44.253,44.111 43.855,43.328 43.056,43.018 C42.257,42.711 40.798,42.511 38.678,42.418 L38.678,39.926 C40.45,39.803 43.024,39.549 46.398,39.164 C49.773,38.781 52.163,38.448 53.566,38.173 L57.599,37.388 L50.263,64.287 C49.648,66.592 49.233,68.193 49.016,69.086 C48.463,71.363 48.184,72.84 48.184,73.514 C48.184,74.194 48.338,74.631 48.647,74.829 C48.954,75.03 49.293,75.13 49.664,75.13 C50.62,75.13 51.806,74.317 53.224,72.686 C54.646,71.055 55.894,69.348 56.974,67.563 L59.048,68.903 C55.97,73.424 53.61,76.467 51.978,78.039 C49.297,80.623 46.436,81.915 43.387,81.915 C41.662,81.915 40.114,81.386 38.744,80.321 C37.373,79.261 36.689,77.639 36.689,75.453 C36.688,74.688 36.873,73.47 37.243,71.809 Z M59.465,18.148 C60.695,19.378 61.313,20.872 61.313,22.624 C61.313,24.377 60.696,25.877 59.465,27.122 C58.235,28.369 56.744,28.991 54.988,28.991 C53.234,28.991 51.736,28.368 50.49,27.122 C49.244,25.876 48.622,24.377 48.622,22.624 C48.622,20.872 49.245,19.38 50.49,18.148 C51.736,16.919 53.234,16.303 54.988,16.303 C56.741,16.303 58.234,16.917 59.465,18.148 Z" id="Shape"></path>
                </g>
            </g>
        </g>
    </g>
</svg>