<?xml version="1.0" encoding="utf-8"?>
<!-- Generator: Adobe Illustrator 16.0.4, SVG Export Plug-In . SVG Version: 6.00 Build 0)  -->
<!DOCTYPE svg PUBLIC "-//W3C//DTD SVG 1.1//EN" "http://www.w3.org/Graphics/SVG/1.1/DTD/svg11.dtd">
<svg version="1.1" id="Layer_1" xmlns="http://www.w3.org/2000/svg" xmlns:xlink="http://www.w3.org/1999/xlink" x="0px" y="0px"
	 width="100px" height="100px" viewBox="0 0 100 100" enable-background="new 0 0 100 100" xml:space="preserve">
<g id="Captions" display="none">
	<rect x="-744" display="inline" width="185" height="99"/>
	<rect x="-552" y="-36" display="inline" width="100" height="30"/>
	<text transform="matrix(1 0 0 1 -486 -19.5)" display="inline" font-family="'Helvetica'" font-size="2.4">http://thenounproject.com</text>
	<text transform="matrix(1 0 0 1 -544.834 -24.5)" display="inline" font-family="'Helvetica-Bold'" font-size="6.1578">The Noun Project</text>
	<text transform="matrix(1 0 0 1 -543.7139 -19.7002)" display="inline" font-family="'Helvetica-Bold'" font-size="4">Icon Template</text>
	<text transform="matrix(1 0 0 1 -730.5 10.5)" display="inline" font-family="'Helvetica-Bold'" font-size="6.1578">Reminders</text>
	<line display="inline" fill="none" stroke="#FFFFFF" stroke-miterlimit="10" x1="-544" y1="-14.5" x2="-534" y2="-14.5"/>
	<line display="inline" fill="none" stroke="#FFFFFF" stroke-miterlimit="10" x1="-731" y1="16.5" x2="-714" y2="16.5"/>
	<g display="inline">
		<g>
			<g>
				<rect x="-722.802" y="31.318" width="8.721" height="8.642"/>
				<path d="M-716.455,42.312h4.747v-4.703h-4.747V42.312z M-711.266,42.749h-5.63V37.17h5.63V42.749L-711.266,42.749z
					 M-718.221,44.062h8.279v-8.203h-8.279V44.062L-718.221,44.062z M-709.5,44.5h-9.163v-9.079h9.163V44.5L-709.5,44.5z"/>
				<polygon points="-718.149,44.133 -718.292,43.991 -710.013,35.787 -709.871,35.929 				"/>
			</g>
		</g>
	</g>
	<rect x="-731" y="58" display="inline" fill="none" width="35" height="32.5"/>
	<text transform="matrix(1 0 0 1 -731 60.1572)" display="inline" font-family="'Helvetica-Bold'" font-size="3">Strokes</text>
	<text transform="matrix(1 0 0 1 -731 65.1572)" display="inline" font-family="'Helvetica'" font-size="2.4">Try to keep strokes at 4px</text>
	<text transform="matrix(1 0 0 1 -731 70.1572)" display="inline" font-family="'Helvetica'" font-size="2.4">Minimum stroke weight is 2px</text>
	<text transform="matrix(1 0 0 1 -731 74.6572)" display="inline" font-family="'Helvetica'" font-size="2.4">For thicker strokes use even </text>
	<text transform="matrix(1 0 0 1 -731 77.6572)" display="inline" font-family="'Helvetica'" font-size="2.4">numbers: 6px, 8px etc.</text>
	<text transform="matrix(1 0 0 1 -731 82.1572)" display="inline" font-family="'Helvetica-Bold'" font-size="2.4">Remember to expand strokes </text>
	<text transform="matrix(1 0 0 1 -731 85.1572)" display="inline" font-family="'Helvetica-Bold'" font-size="2.4">before saving as an SVG </text>
	<rect x="-688.5" y="58" display="inline" fill="none" width="35" height="32.5"/>
	<text transform="matrix(1 0 0 1 -688.5 60.1572)" display="inline" font-family="'Helvetica-Bold'" font-size="3">Size</text>
	<text transform="matrix(1 0 0 1 -688.5 65.1572)" display="inline" font-family="'Helvetica'" font-size="2.4">Cannot be wider or taller than </text>
	<text transform="matrix(1 0 0 1 -688.5 68.6572)" display="inline" font-family="'Helvetica'" font-size="2.4">100px (artboar size)</text>
	<text transform="matrix(1 0 0 1 -688.5 73.6572)" display="inline" font-family="'Helvetica'" font-size="2.4">Scale your icon to fill as much of </text>
	<text transform="matrix(1 0 0 1 -688.5 76.6572)" display="inline" font-family="'Helvetica'" font-size="2.4">the Safe Area as possible (within </text>
	<text transform="matrix(1 0 0 1 -688.5 79.6572)" display="inline" font-family="'Helvetica'" font-size="2.4">the guides)</text>
	<rect x="-646" y="58" display="inline" fill="none" width="35" height="32.5"/>
	<text transform="matrix(1 0 0 1 -646 60.1572)" display="inline" font-family="'Helvetica-Bold'" font-size="3">Ungroup</text>
	<text transform="matrix(1 0 0 1 -646 65.1572)" display="inline" font-family="'Helvetica'" font-size="2.4">If your design has more than one </text>
	<text transform="matrix(1 0 0 1 -646 68.1572)" display="inline" font-family="'Helvetica'" font-size="2.4">shape, make sure to ungroup.</text>
	<rect x="-602" y="58" display="inline" fill="none" width="35" height="32.5"/>
	<text transform="matrix(1 0 0 1 -602 60.1572)" display="inline" font-family="'Helvetica-Bold'" font-size="3">Save as</text>
	<text transform="matrix(1 0 0 1 -602 65.1572)" display="inline" font-family="'Helvetica'" font-size="2.4">Save as .SVG and make sure </text>
	<text transform="matrix(1 0 0 1 -602 68.1572)" display="inline" font-family="'Helvetica'" font-size="2.4">“Use Artboards” is checked.</text>
	<text transform="matrix(1.0074 0 0 1 -677.542 30.5938)" display="inline" font-family="'Helvetica'" font-size="2.5731">100px</text>
	<text transform="matrix(1.0074 0 0 1 -593 39)" display="inline" font-family="'Helvetica-Bold'" font-size="5.1462">.SVG</text>
	<rect x="-678.514" y="34.815" display="inline" width="10.261" height="10.185"/>
	<rect x="-678.477" y="31.766" display="inline" width="0.522" height="2.337"/>
	<rect x="-668.812" y="31.766" display="inline" width="0.523" height="2.337"/>
	<rect x="-679" y="32.337" display="inline" width="11.233" height="0.572"/>
	<g display="inline">
		<rect x="-635.805" y="33.844" width="10.305" height="10.156"/>
		<rect x="-628.809" y="28.707" width="3.308" height="3.261"/>
	</g>
	<rect x="-730.5" y="22.5" display="inline" stroke="#FFFFFF" stroke-miterlimit="10" width="30" height="30"/>
	<rect x="-688.5" y="22.5" display="inline" stroke="#FFFFFF" stroke-miterlimit="10" width="30" height="30"/>
	<rect x="-645.5" y="22.5" display="inline" stroke="#FFFFFF" stroke-miterlimit="10" width="30" height="30"/>
	<rect x="-601.5" y="22.5" display="inline" stroke="#FFFFFF" stroke-miterlimit="10" width="30" height="30"/>
</g>
<g id="Your_Icon">
	<g>
		<g>
			<path d="M50,99C22.98,99,1,77.02,1,50C1,22.981,22.98,1,50,1c27.02,0,49,21.981,49,49C99,77.02,77.02,99,50,99z M50,6.746
				C28.079,6.746,6.246,28.079,6.246,50c0,21.922,21.833,43.755,43.754,43.755c21.92,0,43.755-21.833,43.755-43.755
				C93.755,28.079,71.92,6.746,50,6.746z"/>
		</g>
		<g>
			<g>
				<path d="M38.243,72.809c0.215-0.953,0.538-2.215,0.969-3.783l5.81-21.223c0.063-0.247,0.115-0.493,0.161-0.74
					c0.046-0.245,0.07-0.476,0.07-0.691c0-1.261-0.398-2.044-1.197-2.354c-0.799-0.307-2.258-0.507-4.378-0.6v-2.492
					c1.772-0.123,4.346-0.377,7.72-0.762c3.375-0.383,5.765-0.716,7.168-0.991l4.033-0.785l-7.336,26.899
					c-0.615,2.305-1.03,3.906-1.247,4.799c-0.553,2.277-0.832,3.754-0.832,4.428c0,0.68,0.154,1.117,0.463,1.315
					c0.307,0.201,0.646,0.301,1.017,0.301c0.956,0,2.142-0.813,3.56-2.444c1.422-1.631,2.67-3.338,3.75-5.123l2.074,1.34
					c-3.078,4.521-5.438,7.564-7.07,9.136c-2.681,2.584-5.542,3.876-8.591,3.876c-1.725,0-3.273-0.529-4.643-1.594
					c-1.371-1.06-2.055-2.682-2.055-4.868C37.688,75.688,37.873,74.47,38.243,72.809z M60.465,19.148
					c1.23,1.23,1.848,2.724,1.848,4.476c0,1.753-0.617,3.253-1.848,4.498c-1.23,1.247-2.721,1.869-4.477,1.869
					c-1.754,0-3.252-0.623-4.498-1.869s-1.868-2.745-1.868-4.498c0-1.752,0.623-3.244,1.868-4.476
					c1.246-1.229,2.744-1.845,4.498-1.845C57.741,17.303,59.234,17.917,60.465,19.148z"/>
			</g>
		</g>
	</g>
</g>
</svg>
