<?xml version="1.0" encoding="utf-8"?>
<!-- Generator: Adobe Illustrator 16.0.4, SVG Export Plug-In . SVG Version: 6.00 Build 0)  -->
<!DOCTYPE svg PUBLIC "-//W3C//DTD SVG 1.1//EN" "http://www.w3.org/Graphics/SVG/1.1/DTD/svg11.dtd">
<svg version="1.1" id="Layer_1" xmlns:sketch="http://www.bohemiancoding.com/sketch/ns"
	 xmlns="http://www.w3.org/2000/svg" xmlns:xlink="http://www.w3.org/1999/xlink" x="0px" y="0px" width="98px" height="98px"
	 viewBox="0 0 98 98" enable-background="new 0 0 98 98" xml:space="preserve">
<title>info</title>
<path id="Page-1" sketch:type="MSPage" d="M49,98C21.98,98,0,76.02,0,49C0,21.981,21.98,0,49,0c27.02,0,49,21.981,49,49
	C98,76.02,76.02,98,49,98L49,98z M49,5.746C27.079,5.746,5.246,27.079,5.246,49c0,21.922,21.833,43.755,43.754,43.755
	c21.92,0,43.755-21.833,43.755-43.755C92.755,27.079,70.92,5.746,49,5.746z M37.243,71.809c0.215-0.953,0.538-2.215,0.969-3.783
	l5.81-21.223c0.063-0.247,0.115-0.493,0.161-0.74c0.046-0.245,0.07-0.476,0.07-0.691c0-1.261-0.398-2.044-1.197-2.354
	c-0.799-0.307-2.258-0.507-4.378-0.6v-2.492c1.772-0.123,4.346-0.377,7.72-0.762c3.375-0.383,5.765-0.716,7.168-0.991l4.033-0.785
	l-7.336,26.899c-0.615,2.305-1.031,3.906-1.248,4.799c-0.553,2.277-0.832,3.754-0.832,4.428c0,0.68,0.154,1.117,0.463,1.315
	c0.307,0.201,0.646,0.301,1.017,0.301c0.956,0,2.143-0.813,3.561-2.444c1.422-1.631,2.67-3.338,3.75-5.123l2.073,1.34
	c-3.077,4.521-5.438,7.564-7.069,9.137c-2.682,2.584-5.542,3.876-8.591,3.876c-1.725,0-3.273-0.529-4.643-1.595
	c-1.371-1.06-2.055-2.682-2.055-4.867C36.688,74.688,36.873,73.47,37.243,71.809z M59.465,18.148c1.23,1.23,1.848,2.724,1.848,4.476
	c0,1.753-0.617,3.253-1.848,4.498c-1.23,1.247-2.721,1.869-4.477,1.869c-1.754,0-3.252-0.623-4.498-1.869s-1.868-2.745-1.868-4.498
	c0-1.752,0.623-3.244,1.868-4.476c1.246-1.229,2.744-1.845,4.498-1.845C56.741,16.303,58.234,16.917,59.465,18.148z"/>
</svg>
