<?xml version="1.0" encoding="utf-8"?>
<!-- Generator: Adobe Illustrator 16.0.4, SVG Export Plug-In . SVG Version: 6.00 Build 0)  -->
<!DOCTYPE svg PUBLIC "-//W3C//DTD SVG 1.1//EN" "http://www.w3.org/Graphics/SVG/1.1/DTD/svg11.dtd">
<svg version="1.1" id="Layer_1" xmlns="http://www.w3.org/2000/svg" xmlns:xlink="http://www.w3.org/1999/xlink" x="0px" y="0px"
	 width="100px" height="100px" viewBox="0 0 100 100" enable-background="new 0 0 100 100" xml:space="preserve">
<path d="M76.889,27.778h7.445c3,0,5.443-2.333,5.443-5.333V15c0-2.889-2.443-5.333-5.443-5.333h-7.445
	c-2.889,0-5.333,2.445-5.333,5.333v7.444C71.556,25.333,74,27.778,76.889,27.778z M74.777,15c0-1.111,1-2.111,2.111-2.111h7.445
	c1.222,0,2.222,0.889,2.222,2.111v7.444c0,1.111-1,2.111-2.222,2.111h-7.445c-1.111,0-2.111-1-2.111-2.111V15z M80.111-0.778H19.667
	c-11,0-19.778,8.778-19.778,19.667v60.445c0,10.889,8.889,19.777,19.778,19.777h60.445c10.889,0,19.777-8.889,19.777-19.777V18.889
	C99.889,8,91-0.778,80.111-0.778z M19.667,2.444h60.445c9.111,0,16.555,7.444,16.555,16.444v14.223H68.111l0,0
	c-5-4.778-11.777-7.556-19.111-7.556c-7.333,0-14.111,2.889-19.111,7.556H3.111V18.889C3.111,9.778,10.444,2.444,19.667,2.444z
	 M31.444,36c0.111-0.111,0.222-0.222,0.333-0.333c4.444-4.333,10.556-7,17.222-7c13.666,0,24.666,11.222,24.666,24.889
	S62.556,78.223,49,78.223c-13.667,0-24.889-11.111-24.889-24.667C24.111,46.778,27,40.556,31.444,36z M80.111,95.889H19.667
	c-9.111,0-16.555-7.444-16.555-16.555v-43H27c-3.778,4.778-6,10.778-6,17.333c0,15.445,12.556,28,28.111,28
	c15.444,0,27.889-12.555,27.889-28c0-6.555-2.223-12.555-6-17.333h25.666v43.111C96.556,88.556,89.223,95.889,80.111,95.889z
	 M48.889,69.556c8.889,0,16-7.222,16-16.111c0-8.889-7.223-16.111-16-16.111c-8.889,0-16,7.222-16,16.111
	C32.778,62.334,40,69.556,48.889,69.556z M48.889,40.667c7.111,0,12.777,5.778,12.777,12.778c0,7.111-5.777,12.778-12.777,12.778
	c-7.111,0-12.777-5.778-12.777-12.778C36,46.444,41.778,40.667,48.889,40.667z"/>
</svg>
