<?xml version="1.0" encoding="utf-8"?>
<!-- Generator: Adobe Illustrator 16.0.4, SVG Export Plug-In . SVG Version: 6.00 Build 0)  -->
<!DOCTYPE svg PUBLIC "-//W3C//DTD SVG 1.1//EN" "http://www.w3.org/Graphics/SVG/1.1/DTD/svg11.dtd">
<svg version="1.1" id="Layer_1" xmlns="http://www.w3.org/2000/svg" xmlns:xlink="http://www.w3.org/1999/xlink" x="0px" y="0px"
	 width="100px" height="100px" viewBox="0 0 100 100" enable-background="new 0 0 100 100" xml:space="preserve">
<path d="M35.125,72.973c0,0.942,0.761,1.705,1.703,1.705h15.826l-16.359,5.461c-0.899,0.291-1.381,1.264-1.089,2.152
	c0.241,0.723,0.913,1.173,1.622,1.173c0.178,0,0.365-0.032,0.544-0.085l26.336-8.785c0.795-0.262,1.288-1.066,1.149-1.894
	c-0.135-0.825-0.846-1.433-1.684-1.433H36.827C35.886,71.268,35.125,72.029,35.125,72.973z M61.959,89.331
	c-0.029,0.03-3.98,3.89-11.953,3.89c-4.3,0-7.426-1.106-9.394-2.144l23.094-7.698c0.899-0.303,1.38-1.275,1.089-2.164
	c-0.307-0.898-1.268-1.382-2.167-1.076l-26.334,8.773c-0.566,0.188-0.994,0.658-1.129,1.232c-0.137,0.578,0.04,1.184,0.459,1.601
	c0.199,0.198,4.998,4.887,14.381,4.887c9.37,0,14.172-4.688,14.372-4.887c0.669-0.668,0.669-1.756,0-2.414
	C63.707,88.662,62.629,88.662,61.959,89.331z M50.006,5.418c-15.471,0-28.051,12.581-28.051,28.04
	c0,7.771,4.182,13.984,7.865,19.456c2.844,4.213,5.305,7.854,5.305,11.284c0,0.94,0.761,1.704,1.703,1.704s1.716-0.764,1.716-1.704
	c0-4.476-2.868-8.714-5.89-13.199c-3.587-5.313-7.289-10.804-7.289-17.541c0-13.575,11.055-24.63,24.642-24.63
	c13.577,0,24.63,11.056,24.63,24.63c0,6.737-3.713,12.227-7.289,17.541c-3.022,4.485-5.877,8.724-5.877,13.199
	c0,0.94,0.762,1.704,1.703,1.704s1.706-0.764,1.706-1.704c0-3.431,2.457-7.071,5.302-11.284c3.682-5.472,7.865-11.684,7.865-19.456
	C78.047,17.999,65.463,5.418,50.006,5.418z M51.71,15.897c0-0.941-0.765-1.705-1.704-1.705c-10.627,0-19.276,8.65-19.276,19.265
	c0,0.953,0.764,1.716,1.704,1.716c0.952,0,1.716-0.763,1.716-1.716c0-8.732,7.112-15.845,15.856-15.845
	C50.945,17.612,51.71,16.838,51.71,15.897z M20.584,14.203c0.304,0.219,0.66,0.324,1.005,0.324c0.533,0,1.046-0.24,1.38-0.701
	c0.554-0.763,0.386-1.83-0.376-2.385l-10.658-7.75c-0.764-0.554-1.83-0.377-2.385,0.387C8.996,4.832,9.164,5.897,9.927,6.463
	L20.584,14.203z M78.412,14.527c0.347,0,0.701-0.105,1.007-0.324l10.656-7.74c0.764-0.566,0.932-1.631,0.375-2.385
	c-0.554-0.764-1.621-0.941-2.386-0.387l-10.657,7.75c-0.763,0.555-0.929,1.622-0.375,2.385
	C77.368,14.287,77.88,14.527,78.412,14.527z M98.297,31.753h-13.17c-0.951,0-1.714,0.763-1.714,1.704
	c0,0.953,0.763,1.716,1.714,1.716h13.17c0.939,0,1.703-0.763,1.703-1.716C100,32.517,99.236,31.753,98.297,31.753z M16.59,33.458
	c0-0.941-0.764-1.704-1.706-1.704H1.705C0.765,31.753,0,32.517,0,33.458c0,0.953,0.765,1.716,1.705,1.716h13.179
	C15.826,35.173,16.59,34.41,16.59,33.458z M79.419,52.725c-0.767-0.555-1.834-0.389-2.387,0.377
	c-0.554,0.764-0.388,1.83,0.375,2.383l10.657,7.74c0.306,0.221,0.662,0.336,1.006,0.336c0.523,0,1.047-0.252,1.38-0.711
	c0.557-0.765,0.389-1.832-0.375-2.386L79.419,52.725z M20.584,52.725L9.927,60.464c-0.764,0.554-0.931,1.621-0.377,2.386
	c0.337,0.459,0.857,0.711,1.38,0.711c0.355,0,0.701-0.115,1.005-0.336l10.658-7.74c0.763-0.553,0.93-1.619,0.376-2.383
	C22.414,52.336,21.347,52.17,20.584,52.725z"/>
</svg>
