<?xml version="1.0" encoding="utf-8"?>
<!-- Generator: Adobe Illustrator 16.0.4, SVG Export Plug-In . SVG Version: 6.00 Build 0)  -->
<!DOCTYPE svg PUBLIC "-//W3C//DTD SVG 1.1//EN" "http://www.w3.org/Graphics/SVG/1.1/DTD/svg11.dtd">
<svg version="1.1" id="Calque_1" xmlns="http://www.w3.org/2000/svg" xmlns:xlink="http://www.w3.org/1999/xlink" x="0px" y="0px"
	 width="100px" height="100px" viewBox="0 0 100 100" enable-background="new 0 0 100 100" xml:space="preserve">
<path d="M77.857,34.247h-1.336v-9.958c0-13.079-10.554-23.631-23.633-23.631h-2.676
	c-13.079,0-23.631,10.552-23.631,23.631v9.958h-1.337c-5.352,0-9.81,4.459-9.81,9.808v45.479c0,5.352,4.458,9.809,9.81,9.809h52.612
	c5.349,0,9.809-4.457,9.809-9.809V44.055C87.666,38.556,83.206,34.247,77.857,34.247z M30.744,24.14
	c0-10.701,8.768-19.469,19.469-19.469h2.676c10.699,0,19.471,8.769,19.471,19.469v10.107H30.744V24.14z M83.505,89.533
	c0,3.123-2.526,5.646-5.646,5.646H25.245c-3.122,0-5.648-2.523-5.648-5.646V44.055c0-3.12,2.526-5.647,5.648-5.647h52.612
	c3.121,0,5.646,2.528,5.646,5.647L83.505,89.533L83.505,89.533z M62.697,60.256c0-6.094-5.053-11.147-11.146-11.147
	c-6.093,0-11.146,5.054-11.146,11.147c0,3.27,1.486,6.391,4.013,8.471l-2.825,10.256v0.595c0,1.34,0.446,2.524,1.337,3.418
	c0.893,0.894,2.081,1.34,3.419,1.34h10.553c1.338,0,2.522-0.446,3.418-1.34c0.89-0.894,1.337-2.078,1.337-3.418l-2.823-10.851
	C61.359,66.646,62.697,63.674,62.697,60.256z M57.348,79.873c0,0.15-0.149,0.15-0.149,0.299c-0.147,0.146-0.296,0.146-0.445,0.146
	H46.35c-0.149,0-0.298-0.146-0.445-0.146c0,0-0.149-0.148-0.149-0.299l3.418-12.633l-1.784-1.336
	c-1.784-1.34-2.824-3.42-2.824-5.648c0-3.863,3.121-6.986,6.985-6.986c3.863,0,6.985,3.123,6.985,6.986
	c0,2.229-1.041,4.309-2.823,5.648L53.93,67.24L57.348,79.873z"/>
</svg>
