<?xml version="1.0" encoding="utf-8"?>
<!-- Generator: Adobe Illustrator 16.0.4, SVG Export Plug-In . SVG Version: 6.00 Build 0)  -->
<!DOCTYPE svg PUBLIC "-//W3C//DTD SVG 1.1//EN" "http://www.w3.org/Graphics/SVG/1.1/DTD/svg11.dtd">
<svg version="1.1" id="Layer_1" xmlns="http://www.w3.org/2000/svg" xmlns:xlink="http://www.w3.org/1999/xlink" x="0px" y="0px"
	 width="100px" height="100px" viewBox="0 0 100 100" enable-background="new 0 0 100 100" xml:space="preserve">
<path stroke="#000000" stroke-width="1.4173" stroke-miterlimit="10" d="M75.785,97.943H25.161c-4.667,0-8.464-3.797-8.464-8.463
	V45.606c0-4.666,3.797-8.462,8.464-8.462h50.625c4.668,0,8.465,3.797,8.465,8.462v43.876C84.249,94.146,80.452,97.943,75.785,97.943
	z M25.161,39.604c-3.31,0-6,2.692-6,6.001V89.48c0,3.31,2.69,6.002,6,6.002h50.625c3.311,0,6-2.692,6-6.002V45.606
	c0-3.309-2.689-6.001-6-6.001H25.161V39.604z"/>
<path stroke="#000000" stroke-width="1.4173" stroke-miterlimit="10" d="M55.558,83.598H45.393c-2.003,0-3.633-1.627-3.633-3.63
	c0-0.11,0.014-0.217,0.042-0.322l2.845-10.549c-2.487-1.839-3.947-4.706-3.947-7.837c0-5.387,4.384-9.771,9.774-9.771
	c5.389,0,9.771,4.385,9.771,9.771c0,3.131-1.46,5.998-3.948,7.836l2.848,10.55c0.03,0.104,0.043,0.212,0.043,0.322
	C59.188,81.971,57.558,83.598,55.558,83.598z M44.229,80.101c0.068,0.583,0.562,1.038,1.165,1.038h10.165
	c0.599,0,1.096-0.451,1.164-1.038l-3.028-11.213c-0.145-0.529,0.083-1.091,0.554-1.372c2.215-1.34,3.536-3.678,3.536-6.253
	c0-4.031-3.279-7.313-7.31-7.313c-4.033,0-7.313,3.282-7.313,7.313c0,2.575,1.322,4.913,3.537,6.253
	c0.47,0.284,0.694,0.845,0.554,1.372L44.229,80.101z"/>
<path stroke="#000000" stroke-width="1.4173" stroke-miterlimit="10" d="M72.29,33.569c-0.681,0-1.231-0.551-1.231-1.231v-9.864
	c0-10.625-8.645-19.271-19.269-19.271h-2.635c-10.626,0-19.268,8.646-19.268,19.271v9.864c0,0.68-0.552,1.231-1.231,1.231
	c-0.68,0-1.231-0.551-1.231-1.231v-9.864c0-11.982,9.746-21.731,21.727-21.731h2.635c11.981,0,21.727,9.749,21.727,21.731v9.864
	C73.52,33.019,72.969,33.569,72.29,33.569z"/>
</svg>
