<?xml version="1.0" encoding="utf-8"?>
<!-- Generator: Adobe Illustrator 19.0.0, SVG Export Plug-In . SVG Version: 6.00 Build 0)  -->
<svg version="1.1" id="Layer_1" xmlns="http://www.w3.org/2000/svg" xmlns:xlink="http://www.w3.org/1999/xlink" x="0px" y="0px"
	 viewBox="0 0 1000 1000" enable-background="new 0 0 1000 1000" xml:space="preserve">
<g id="Page-1">
	<g id="map-marker-filter">
		<g id="Group">
			<path id="Shape" fill="#010101" d="M499.6,69.6c168.8,0,305.7,156.3,305.7,349.3c0,198.5-204.8,424.9-279.1,500.5
				c-7.5,7.6-17,11.4-26.6,11.4s-19.1-3.8-26.6-11.4c-74.4-75.6-279.1-302-279.1-500.5C193.9,226,330.8,69.6,499.6,69.6L499.6,69.6z
				 M499.6,12.1c-49.9,0-98.4,11.2-144,33.2c-43.3,21-82.2,50.8-115.4,88.7c-66.9,76.4-103.7,177.6-103.7,284.8
				c0,96.8,40.8,207.3,121.4,328.2c63.3,95.2,136.4,174,174.3,212.5c18.2,18.4,42.2,28.6,67.5,28.6c25.4,0,49.3-10.2,67.5-28.6
				C605,920.9,678,842,741.3,746.8c80.5-120.9,121.4-231.3,121.4-328.2c0-107.1-36.9-208.3-103.7-284.8
				c-33.2-37.9-72.1-67.7-115.4-88.7C598.1,23.2,549.7,12.1,499.6,12.1L499.6,12.1L499.6,12.1z"/>
			<circle id="Oval" fill="#010101" cx="500" cy="419.9" r="42.1"/>
		</g>
	</g>
</g>
</svg>
