<?xml version="1.0" encoding="utf-8"?>
<!-- Generator: Adobe Illustrator 16.0.4, SVG Export Plug-In . SVG Version: 6.00 Build 0)  -->
<!DOCTYPE svg PUBLIC "-//W3C//DTD SVG 1.1//EN" "http://www.w3.org/Graphics/SVG/1.1/DTD/svg11.dtd">
<svg version="1.1" id="Layer_1" xmlns="http://www.w3.org/2000/svg" xmlns:xlink="http://www.w3.org/1999/xlink" x="0px" y="0px"
	 width="100px" height="100px" viewBox="0 0 100 100" enable-background="new 0 0 100 100" xml:space="preserve">
<path d="M51.297,100.882l-1.623-2.151c-1.372-1.817-33.589-44.728-33.589-63.517C16.084,15.798,31.882,0,51.298,0
	c19.417,0,35.214,15.796,35.214,35.214c0,18.789-32.22,61.699-33.587,63.517L51.297,100.882z M51.297,4.066
	c-17.175,0-31.148,13.973-31.148,31.147c0,15.168,24.535,49.81,31.148,58.867c6.613-9.058,31.146-43.702,31.146-58.867
	C82.443,18.04,68.469,4.066,51.297,4.066z M51.297,50.541c-8.452,0-15.329-6.875-15.329-15.327c0-8.451,6.879-15.327,15.329-15.327
	c8.449,0,15.326,6.876,15.326,15.327C66.623,43.667,59.748,50.541,51.297,50.541z M51.297,23.952
	c-6.21,0-11.263,5.054-11.263,11.262c0,6.21,5.053,11.262,11.263,11.262c6.209,0,11.259-5.051,11.259-11.262
	C62.556,29.004,57.506,23.952,51.297,23.952z"/>
</svg>
