<?xml version="1.0" encoding="utf-8"?>
<!-- Generator: Adobe Illustrator 19.0.0, SVG Export Plug-In . SVG Version: 6.00 Build 0)  -->
<svg version="1.1" id="Layer_1" xmlns="http://www.w3.org/2000/svg" xmlns:xlink="http://www.w3.org/1999/xlink" x="0px" y="0px"
	 viewBox="0 0 1000 1000" enable-background="new 0 0 1000 1000" xml:space="preserve">
<g id="Page-1">
	<g id="map-marker-old-style">
		<path id="Shape" fill="#010101" d="M499.9,65.5c154,0,278.7,123.7,278.7,276.4
			S499.9,932.8,499.9,932.8S221.2,494.6,221.2,341.9S345.9,65.5,499.9,65.5L499.9,65.5z M499.9,499.9c85.1,0,154-69.1,154-154.5
			s-68.9-154.5-154-154.5s-154,69.1-154,154.5S414.8,499.9,499.9,499.9L499.9,499.9z M499.9,9.3c-184.7,0-335,149.2-335,332.7
			c0,73.9,47.8,198,146.2,379.5c69.8,128.8,138.5,237,141.3,241.6c10.3,16.2,28.2,26,47.5,26l0,0c19.3,0,37.1-9.8,47.5-26
			c2.9-4.6,71.6-112.6,141.3-241.6C787,539.9,834.9,415.8,834.9,341.9C834.9,158.5,684.6,9.3,499.9,9.3L499.9,9.3L499.9,9.3z
			 M499.9,443.6c-54,0-97.8-44.1-97.8-98.2c0-54.2,43.9-98.3,97.8-98.3s97.8,44.1,97.8,98.3S553.9,443.6,499.9,443.6L499.9,443.6
			L499.9,443.6z"/>
	</g>
</g>
</svg>
