<?xml version="1.0" encoding="utf-8"?>
<!-- Generator: Adobe Illustrator 16.0.4, SVG Export Plug-In . SVG Version: 6.00 Build 0)  -->
<!DOCTYPE svg PUBLIC "-//W3C//DTD SVG 1.1//EN" "http://www.w3.org/Graphics/SVG/1.1/DTD/svg11.dtd">
<svg version="1.1" id="Layer_1" xmlns="http://www.w3.org/2000/svg" xmlns:xlink="http://www.w3.org/1999/xlink" x="0px" y="0px"
	 width="100px" height="100px" viewBox="0 0 100 100" enable-background="new 0 0 100 100" xml:space="preserve">
<g>
	<path d="M4.776,20.5H95.52c1.533,0,2.778-1.824,2.778-4.078c0-2.25-1.245-4.075-2.778-4.075H4.776C3.243,12.347,2,14.172,2,16.422
		C2,18.676,3.243,20.5,4.776,20.5z"/>
	<path d="M95.52,46H4.776C3.243,46,2,47.789,2,50c0,2.212,1.244,4,2.777,4H95.52c1.533,0,2.778-1.788,2.778-4
		C98.298,47.789,97.053,46,95.52,46z"/>
	<path d="M95.52,79.652H4.776C3.243,79.652,2,81.408,2,83.576C2,85.745,3.244,87.5,4.777,87.5H95.52
		c1.533,0,2.778-1.755,2.778-3.924C98.298,81.408,97.053,79.652,95.52,79.652z"/>
</g>
</svg>
