<?xml version="1.0" encoding="utf-8"?>
<!-- Generator: Adobe Illustrator 19.0.0, SVG Export Plug-In . SVG Version: 6.00 Build 0)  -->
<svg version="1.1" id="Layer_1" xmlns="http://www.w3.org/2000/svg" xmlns:xlink="http://www.w3.org/1999/xlink" x="0px" y="0px"
	 viewBox="0 0 1000 1000" enable-background="new 0 0 1000 1000" xml:space="preserve">
<g id="Page-1">
	<g id="metro">
		<g id="Group">
			<path id="Shape" fill="#010101" d="M677.4,324.5c-2.7-19.3-30.2-23.6-42.2-11.1c-42,44.1-87.1,85.1-129.9,128.6L365.5,323.4
				c-8.7-7.3-18.6-7.7-26.9-4.2c-13.7-1.7-29,6.3-29.2,24.1c-1.4,106.5-2.8,213.1-4.2,319.6c-0.4,32.5,50,32.5,50.5,0
				c1.3-92.9,2.4-185.9,3.7-278.8c43.3,36.7,86.5,73.5,129.9,110.2c10.2,8.7,25.6,10.6,35.7,0c34.7-36.6,71.7-70.9,107.6-106.3
				c0.1,1.3,0.1,2.4,0.3,3.7c2,31.8,3.6,63.7,5,95.4c2.7,60,5.4,119.9,5.4,180c0,32.4,50.5,32.5,50.5,0
				c-0.1-61.8-2.8-123.6-5.6-185.3C685.6,429.5,684.5,376.5,677.4,324.5L677.4,324.5z"/>
			<path id="Shape_1_" fill="#010101" d="M499.5,9.3C229.4,9.3,9.6,229.1,9.6,499.2s219.8,489.9,489.9,489.9
				s489.9-219.8,489.9-489.9S769.7,9.3,499.5,9.3L499.5,9.3z M499.5,938.6c-242.3,0-439.4-197.1-439.4-439.4S257.2,59.7,499.5,59.7
				S939,256.9,939,499.2S741.8,938.6,499.5,938.6L499.5,938.6z"/>
		</g>
	</g>
</g>
</svg>
