<?xml version="1.0" encoding="utf-8"?>
<!-- Generator: Adobe Illustrator 19.0.0, SVG Export Plug-In . SVG Version: 6.00 Build 0)  -->
<svg version="1.1" id="Layer_1" xmlns="http://www.w3.org/2000/svg" xmlns:xlink="http://www.w3.org/1999/xlink" x="0px" y="0px"
	 viewBox="0 0 1000 1000" enable-background="new 0 0 1000 1000" xml:space="preserve">
<g id="Page-1">
	<g id="more-filters">
		<path id="Shape" fill="#010101" d="M559.9,941.8V751.5c0-26.9,22.3-48.6,49.8-48.6
			c27.5,0,49.8,21.7,49.8,48.6v190.3c0,26.9-22.3,48.6-49.8,48.6C582.1,990.3,559.9,968.5,559.9,941.8L559.9,941.8z M960.6,802.8v92
			c0,12.8-10.4,23.2-23.2,23.2H737.3c-12.8,0-23.2-10.4-23.2-23.2v-92c0-12.8,10.4-23.2,23.2-23.2h200.2
			C950.3,779.6,960.6,790,960.6,802.8L960.6,802.8z M282.4,595.4V405.1c0-26.9,22.3-48.6,49.8-48.6s49.8,21.7,49.8,48.6v190.3
			c0,26.9-22.3,48.6-49.8,48.6S282.4,622.3,282.4,595.4L282.4,595.4z M960.6,455.3v92c0,12.8-10.4,23.2-23.2,23.2H462
			c-12.8,0-23.2-10.4-23.2-23.2v-92c0-12.8,10.4-23.2,23.2-23.2h475.5C950.3,432.2,960.6,442.5,960.6,455.3L960.6,455.3z
			 M630.1,246.8V56.5c0-26.9,22.3-48.6,49.8-48.6s49.8,21.7,49.8,48.6v190.3c0,26.9-22.3,48.6-49.8,48.6S630.1,273.7,630.1,246.8
			L630.1,246.8z M960.6,108v92c0,12.8-10.4,23.2-23.2,23.2H807.6c-12.8,0-23.2-10.4-23.2-23.2v-92c0-12.8,10.4-23.2,23.2-23.2h129.8
			C950.3,84.9,960.6,95.3,960.6,108L960.6,108z M39.5,199.9V108c0-12.8,10.4-23.2,23.2-23.2h481.1c12.8,0,23.2,10.4,23.2,23.2v92
			c0,12.8-10.4,23.2-23.2,23.2H62.6C49.8,223,39.5,212.7,39.5,199.9L39.5,199.9z M39.5,547.3v-92c0-12.8,10.4-23.2,23.2-23.2h135.6
			c12.8,0,23.2,10.4,23.2,23.2v92c0,12.8-10.4,23.2-23.2,23.2H62.6C49.8,570.5,39.5,560.1,39.5,547.3L39.5,547.3z M39.5,894.7v-92
			c0-12.8,10.4-23.2,23.2-23.2h410.9c12.8,0,23.2,10.4,23.2,23.2v92c0,12.8-10.4,23.2-23.2,23.2H62.6
			C49.8,917.8,39.5,907.4,39.5,894.7L39.5,894.7z"/>
	</g>
</g>
</svg>
