<?xml version="1.0" encoding="utf-8"?>
<!-- Generator: Adobe Illustrator 16.0.4, SVG Export Plug-In . SVG Version: 6.00 Build 0)  -->
<!DOCTYPE svg PUBLIC "-//W3C//DTD SVG 1.1//EN" "http://www.w3.org/Graphics/SVG/1.1/DTD/svg11.dtd">
<svg version="1.1" id="Layer_1" xmlns="http://www.w3.org/2000/svg" xmlns:xlink="http://www.w3.org/1999/xlink" x="0px" y="0px"
	 width="52.507px" height="52.508px" viewBox="0 0 52.507 52.508" enable-background="new 0 0 52.507 52.508" xml:space="preserve">
<path d="M50.551,1.861c-1.926-1.927-3.07-1.898-3.375-1.845c-0.146,0.025-0.281,0.096-0.387,0.2l-4.186,4.188
	c-0.129,0.128-0.205,0.301-0.215,0.482l-0.1,2.201L27.1,21.535c-0.741-0.702-1.231-1.168-1.231-1.168l-0.062-0.051
	c-1.464-1.106-2.932-1.548-4.37-1.311c-2.564,0.424-4.387,2.836-5.894,5.061c-1.691,2.495-6.532,3.611-6.581,3.622l-0.022,0.004
	c-4.693,1.222-6.993,4.271-7.246,4.622c-2.224,2.694-2.258,6.169-0.099,10.049c1.273,2.287,2.938,4.055,3.569,4.688
	c0.062,0.061,0.107,0.107,0.148,0.146c0.039,0.042,0.086,0.089,0.146,0.147c0.633,0.634,2.401,2.299,4.688,3.569
	c3.879,2.16,7.354,2.127,10.048-0.097c0.352-0.253,3.4-2.555,4.623-7.246l0.003-0.023c0.012-0.049,1.127-4.891,3.622-6.581
	c2.225-1.508,4.639-3.328,5.059-5.896c0.24-1.436-0.201-2.904-1.307-4.367l-0.053-0.063c0,0-0.465-0.49-1.166-1.23l14.449-15.188
	l2.197-0.101c0.184-0.008,0.355-0.084,0.484-0.213l4.189-4.188c0.125-0.125,0.197-0.292,0.211-0.468
	C52.518,5.025,52.492,3.803,50.551,1.861z M19.958,41.544c-0.3,0.3-0.784,0.301-1.086,0l-7.907-7.907c-0.3-0.299-0.3-0.787,0-1.086
	c0.299-0.299,0.786-0.299,1.086,0l7.907,7.908C20.256,40.758,20.256,41.245,19.958,41.544z M24.67,33.153
	c-1.467,1.467-3.846,1.468-5.313-0.001c-1.466-1.467-1.466-3.847,0-5.313c1.468-1.467,3.847-1.466,5.313,0
	C26.137,29.306,26.137,31.684,24.67,33.153z"/>
</svg>
