<?xml version="1.0" encoding="utf-8"?>
<!-- Generator: Adobe Illustrator 19.0.0, SVG Export Plug-In . SVG Version: 6.00 Build 0)  -->
<svg version="1.1" id="Layer_1" xmlns="http://www.w3.org/2000/svg" xmlns:xlink="http://www.w3.org/1999/xlink" x="0px" y="0px"
	 viewBox="0 0 100 100" enable-background="new 0 0 100 100" xml:space="preserve">
<g id="Page-1_1_">
	<g id="musique-chant_1_" transform="translate(0.000000, -1.000000)">
		<g id="Page-1">
			<g id="musique-chant">
				<g id="Group">
					<path id="Shape" fill="#010101" d="M79.4,5.6c-0.4-1.4-1.6-2.6-3-2.9c-1.3-0.3-2.6,0-3.4,0.9C72,4.5,72,6.1,73,7
						c0.5,0.4,1.1,0.7,1.6,0.7c-0.1,0.2-0.2,0.4-0.3,0.7L72,13.3c-0.1,0.2-0.2,0.3-0.2,0.4c-0.3,0.1-0.8,0.1-1.4,0.4
						c-1.3,0.7-1.8,2-2.1,2.6c-2.3,5.9-4.2,11.1-6.1,16.2c-1.9,5.1-3.9,10.3-6.1,16.2c-0.5,1.2,0.1,2.6,1.4,3.1
						c0.1,0,0.2,0.1,0.3,0.1c0.3,0.3,0.8,0.6,1.3,0.7c2.4,0.4,4.3,1.1,5.6,2.1c1.4,1.1,2.3,2.7,2.2,4.2c-0.1,1.4-1,2.5-2,3.9
						c-0.9,1.2-1.9,2.5-2.5,4.1c-1.2,3.1-0.9,6.2-0.6,9.3c0.1,1,0.2,1.9,0.2,2.8c0.1,3.4-0.4,8-4.1,10.9c-3.6,2.9-8.9,3.4-13.3,1.3
						c-4.7-2.2-7.9-4.9-9-7.5c-1.9-4.7-2.1-7.4-0.6-9.3c0.6-0.8,1.6-1.7,2.6-2.6c2.2-2,4.6-4.4,5.3-7.4c0.3-1.3,0.4-3,0.5-4.9
						c0.1-2.2,0.3-4.9,0.8-6c1.2-2.9,1.4-3.3,5.3-2.6c1.3,0.2,2.5-0.6,2.8-1.9c0.2-1.3-0.6-2.5-1.9-2.8c-5.9-1-8.3,0.2-10.5,5.5
						c-0.8,1.8-1,4.7-1.1,7.5c-0.1,1.6-0.2,3.3-0.4,4.2c-0.4,1.6-2.2,3.3-3.9,5c-1.1,1-2.2,2.1-3,3.2c-3.4,4.3-1.9,9.6-0.1,14.1
						c2,4.8,7.3,8.1,11.3,10c2.5,1.2,5.1,1.7,7.7,1.7c3.8,0,7.6-1.2,10.6-3.6c4.1-3.3,6.2-8.5,5.9-14.8c0-1-0.1-2-0.2-3
						c-0.3-2.6-0.5-5,0.3-7c0.4-1.1,1.1-2,1.9-3c1.3-1.7,2.7-3.6,2.9-6.4c0.3-3-1.3-6.2-4-8.3C66,50,64,49.1,61.5,48.5
						c1.9-5,3.6-9.4,5.3-13.9c1.9-5.1,3.9-10.3,6.1-16.2c0,0,0-0.1,0-0.1c0.2,0,0.5-0.1,0.9-0.2c1.6-0.6,2.3-2.1,2.6-2.8l2.2-4.9
						C79.1,9.3,79.9,7.6,79.4,5.6L79.4,5.6L79.4,5.6z"/>
					<path id="Shape_1_" fill="#010101" d="M49.4,62.1c-1.2,1.1-2,2.5-2.4,4.1c-0.4,1.7,0.1,3.6,1.3,4.8c0.8,0.9,1.9,1.3,3,1.3
						c0.3,0,0.6,0,0.8-0.1c1.3-0.3,2.2-1.1,2.7-1.7c1.7-1.8,2.4-3.9,2.1-5.9c-0.3-1.5-1.3-2.9-2.7-3.6c-1.2-0.6-2.6-0.7-3.8-0.1
						C49.9,61.4,49.6,61.7,49.4,62.1L49.4,62.1L49.4,62.1z M52.2,66c-0.1,0.3-0.3,0.7-0.5,1C51.8,66.7,52,66.3,52.2,66L52.2,66
						L52.2,66z"/>
					<path id="Shape_2_" fill="#010101" d="M50.7,80.2c-2.4-0.6-4.7-1.5-6.9-2.8c-1.1-0.7-2.6-0.3-3.2,0.9c-0.7,1.1-0.3,2.6,0.9,3.2
						c2.5,1.5,5.3,2.5,8.1,3.3c0.2,0,0.4,0.1,0.6,0.1c1.1,0,2-0.7,2.3-1.8C52.7,81.8,52,80.5,50.7,80.2L50.7,80.2L50.7,80.2z"/>
				</g>
			</g>
		</g>
	</g>
</g>
</svg>
