<?xml version="1.0" encoding="utf-8"?>
<!-- Generator: Adobe Illustrator 16.0.4, SVG Export Plug-In . SVG Version: 6.00 Build 0)  -->
<!DOCTYPE svg PUBLIC "-//W3C//DTD SVG 1.1//EN" "http://www.w3.org/Graphics/SVG/1.1/DTD/svg11.dtd">
<svg version="1.1" id="Layer_1" xmlns="http://www.w3.org/2000/svg" xmlns:xlink="http://www.w3.org/1999/xlink" x="0px" y="0px"
	 width="100px" height="100px" viewBox="0 0 100 100" enable-background="new 0 0 100 100" xml:space="preserve">
<g id="Layer_2">
	<g>
		<path d="M78.327,98.691h-0.002c-6.06,0-14.367-2.475-23.388-6.967c-9.73-4.844-19.316-11.846-27.723-20.252
			C17.084,61.34,8.879,49.084,4.11,36.96c-4.678-11.893-5.097-20.195-1.243-24.676c0.065-0.076,0.136-0.146,0.21-0.213
			c0.95-0.838,7.661-6.683,11.958-10.424l0.083-0.078c1.725-1.714,3.559-2.584,5.453-2.584c2.536,0,4.769,1.593,6.013,3.084
			c0.009,0.011,0.017,0.021,0.026,0.033c0.356,0.443,7.648,9.621,11.984,15.078l0.084,0.098c2.826,3.074,2.795,7.845-0.077,10.882
			c-0.095,0.101-0.199,0.191-0.311,0.272c-0.717,0.514-3.737,2.559-6.35,4.313l-0.346,0.232l0.135,0.395
			c1.939,5.685,7.341,13.342,14.448,20.486c2.688,2.699,12.016,11.625,19.206,13.104l0.355,0.074l0.203-0.301
			c1.072-1.582,3.949-5.828,4.402-6.463c0.033-0.049,0.069-0.096,0.107-0.141c1.807-2.145,4.168-2.463,5.413-2.463
			c1.606,0,3.137,0.533,3.996,1.393l0.05,0.045c6.042,4.688,15.438,11.988,16.559,12.877c0.075,0.059,0.146,0.123,0.213,0.191
			c3.042,3.15,3.235,7.543,0.52,11.252c-0.052,0.115-0.116,0.223-0.188,0.324c-0.271,0.396-2.791,4.029-6.245,7.529
			C85.915,96.197,81.729,98.691,78.327,98.691z M6.074,15.222c-1.508,1.868-3.119,6.929,2.08,20.148
			c4.555,11.58,12.416,23.31,22.133,33.028c8.078,8.078,17.272,14.801,26.586,19.438c8.31,4.137,16.128,6.51,21.452,6.51h0.002
			c2.073,0,5.568-2.287,9.351-6.117c2.918-2.957,5.105-6.004,5.65-6.783c0.068-0.16,0.158-0.309,0.265-0.447
			c1.537-2,1.556-4.072,0.057-5.707c-1.545-1.217-10.548-8.209-16.4-12.752l-0.136-0.104c-0.071-0.057-0.141-0.117-0.204-0.182
			l-0.049-0.049c-0.129-0.064-0.483-0.191-0.995-0.191c-0.584,0-1.405,0.152-2.038,0.859c-0.503,0.717-2.765,4.051-4.286,6.297
			l-1.017,1.504c-0.493,0.729-1.376,1.088-2.236,0.91l-1.779-0.365c-8.151-1.676-17.688-10.557-21.411-14.297
			c-7.551-7.587-13.337-15.866-15.48-22.146l-0.673-1.971c-0.317-0.93,0.029-1.958,0.846-2.506l1.729-1.16
			c2.726-1.83,5.211-3.516,6.054-4.105c1.206-1.41,1.171-3.454-0.107-4.83c-0.019-0.02-0.038-0.042-0.057-0.064l-0.137-0.159
			c-0.018-0.021-0.036-0.043-0.053-0.064C30.935,14.525,23.73,5.458,23.234,4.838c-0.634-0.752-1.747-1.508-2.664-1.508
			c-0.883,0-1.797,0.728-2.409,1.339c-0.018,0.018-0.036,0.035-0.054,0.053L17.971,4.85c-0.018,0.017-0.037,0.034-0.055,0.05
			C13.936,8.365,7.379,14.076,6.074,15.222z"/>
	</g>
</g>
<g id="Layer_3">
</g>
</svg>
