<?xml version="1.0" encoding="utf-8"?>
<!-- Generator: Adobe Illustrator 19.0.0, SVG Export Plug-In . SVG Version: 6.00 Build 0)  -->
<svg version="1.1" id="Layer_1" xmlns="http://www.w3.org/2000/svg" xmlns:xlink="http://www.w3.org/1999/xlink" x="0px" y="0px"
	 viewBox="0 0 1000 1000" enable-background="new 0 0 1000 1000" xml:space="preserve">
<g>
	<path fill="#010101" d="M992.2,624.4c-1.2-50.1-3.3-100.3-6.7-150.3c-3.5-52.4-7.9-104.8-14.1-156.9c-4.7-39.8-15.3-80.4-54.4-99.1
		c-41.4-19.8-96.7-17-141.6-17.6c-54.5-0.7-109.1,2.2-163.5,4.3c-112,4.5-224,9.1-336,13.6c-6.4-43.5-49-74.3-94.7-74.4
		c-52.8-0.1-90.6,39.6-100.1,88.3c-3.2,1.1-6.4,2.2-9.5,3.5c-41.5,17.1-52,50.6-54.2,92.6c-0.2,3,0.3,5.6,0.9,8.1
		c0,0.4-0.1,0.7-0.1,1.1c-3,110.4-6,220.9-9,331.3C8,711.7-0.6,763.8,19,804c18.1,37.1,55.2,47.2,93.5,47.8
		c211.9,3.3,424.4-2.4,636.2-3.6c52.2-0.3,108.1,5.1,159.7-2.8c39.1-6,71.8-36.1,81.2-74.7C1000.9,725.1,993.3,671.1,992.2,624.4z
		 M173.8,195.3c16.8-2.5,46.3,6.4,52,24.9c-28.4,0.4-59.2-0.6-88.9,1.7C144.6,208.2,158.2,197.6,173.8,195.3z M893.5,796.3
		c-44.3,4.3-90.5,0.9-135,1.1c-183.3,1.1-366.5,2.1-549.8,3.2c-26.3,0.2-52.7,0.3-78.9,0.5c-18.5,0.1-45.8,3.7-59.9-11.1
		c-12.7-13.2-11.7-36.7-11.5-53.7c0.2-25.8,1.4-51.5,2-77.3c2.9-107.1,5.8-214.2,8.7-321.3c0.1-2.8-0.4-5.3-1-7.6
		c0.1-0.5,0.2-1,0.2-1.4c0.6-11.5,0-27.2,7.9-36.6c11.2-13.5,35.7-15.1,51.8-16.3c47.3-3.7,95.2-4.1,142.6-5.9
		c95.4-3.9,190.7-7.7,286.1-11.6c92.4-3.8,185.5-10.9,277.9-4.3c18.6,1.4,43.1,0.9,60.2,9.9c18.5,9.7,22.5,30.7,25.3,49.7
		c6.4,44.1,9.4,89,12.7,133.4c6.6,87.5,9.4,175.3,9.7,263C942.6,748.5,942.7,791.4,893.5,796.3z"/>
	<path fill="#010101" d="M445.2,345.4c-2.4,0.4-4.5,1.2-6.4,2c-78.6,14.5-145.6,74.6-160.1,155.8c-18,100.6,41.1,187.5,130.4,229.4
		c88.2,41.4,186.9,36.1,253-41.3c56-65.4,71.6-158,28-234.3C641.8,372.3,540,328.5,445.2,345.4z M643.9,629.7
		c-35.8,62.8-102.1,92.6-172.3,72.7c-72.3-20.5-141.2-73.8-145.2-154c-4.3-83.9,62.8-152.2,146-153.4c4.6-0.1,8.5-1.3,11.8-3
		C604.1,389.2,709.5,514.6,643.9,629.7z"/>
	<path fill="#010101" d="M783.9,309c-2.1-0.6-4.2-0.9-6.1-1c-1.6-0.4-3.4-0.7-5.3-0.8c-38.4-1.9-74.2,29.5-73.5,68.8
		c0.6,36.3,31,67.9,67.5,68.1c36.7,0.2,68.6-30.2,72.6-66.1C843.1,340.7,817.3,318.4,783.9,309z M769.9,393
		c-24.3,4.3-26.4-34.5,0.9-34.7c6.8,1.8,15.9,3.5,18,10.6C791.7,379.5,779.3,391.3,769.9,393z"/>
	<path fill="#010101" d="M568.2,466c-33.5-28.6-82.6-32.8-123.9-15.3c-46.1,18.6-81.2,69.5-51,128.9c12.1,23.8,32.9,52.1,60,60
		c27.7,17.2,64.1,16.1,92.9,1.1C609,607.9,623.3,513.1,568.2,466z M477,552.3c0.3,0.8,0.8,1.6,1.1,2.4c-0.2,0-0.4,0.1-0.5,0.1
		c-1.1-0.1-2-0.6-2.8-1.2C475.5,553.1,476.3,552.7,477,552.3z"/>
</g>
</svg>
