<?xml version="1.0" encoding="utf-8"?>
<!-- Generator: Adobe Illustrator 16.0.4, SVG Export Plug-In . SVG Version: 6.00 Build 0)  -->
<!DOCTYPE svg PUBLIC "-//W3C//DTD SVG 1.1//EN" "http://www.w3.org/Graphics/SVG/1.1/DTD/svg11.dtd">
<svg version="1.1" id="Layer_1" xmlns="http://www.w3.org/2000/svg" xmlns:xlink="http://www.w3.org/1999/xlink" x="0px" y="0px"
	 width="100px" height="100px" viewBox="3 -8.581 100 100" enable-background="new 3 -8.581 100 100" xml:space="preserve">
<path id="path2780" d="M61.519,25.838c7.68,0,14.349,4.229,18.03,10.46l21.7,0.025v-11.76c0-4.376-3.521-7.927-7.841-7.927H12.543
	c-4.333,0-7.817,3.551-7.817,7.927l0.022,11.661l38.727,0.025C47.183,30.042,53.824,25.838,61.519,25.838L61.519,25.838z"/>
<path id="path2782" d="M25.007,12.903h-7.193l-0.832,2.621h8.623L25.007,12.903z"/>
<path id="path2784" d="M89.872,11.505h-9.579l-1.698,4.043h12.831L89.872,11.505z"/>
<path id="path2786" d="M56.994,14.152H48.75v-4.033h8.244V14.152z M64.552,8.5H41.274l-4.795,7.099h32.464L64.552,8.5z"/>
<path id="path2788" d="M80.673,38.4c1.2,2.672,1.909,5.612,1.909,8.743c0,11.759-9.433,21.304-21.062,21.304
	c-11.646,0-21.075-9.546-21.075-21.304c0-3.131,0.698-6.071,1.908-8.756H4.727V70.49c0,4.352,3.483,7.902,7.817,7.902h80.863
	c4.32,0,7.841-3.551,7.841-7.902l0.026-32.09H80.673z"/>
<path id="path2790" d="M73.005,40.143c-0.331-0.594-0.746-1.151-1.199-1.682c-2.459-2.992-6.14-4.96-10.286-4.96
	c-4.16,0-7.841,1.956-10.3,4.935c-0.452,0.545-0.869,1.102-1.224,1.707c-1.234,2.054-1.981,4.427-1.981,7
	c0,7.519,6.044,13.626,13.504,13.626c7.424,0,13.468-6.107,13.468-13.626C74.987,44.571,74.254,42.198,73.005,40.143L73.005,40.143z
	"/>
</svg>
