<?xml version="1.0" encoding="utf-8"?>
<!-- Generator: Adobe Illustrator 16.0.4, SVG Export Plug-In . SVG Version: 6.00 Build 0)  -->
<!DOCTYPE svg PUBLIC "-//W3C//DTD SVG 1.1//EN" "http://www.w3.org/Graphics/SVG/1.1/DTD/svg11.dtd">
<svg version="1.1" id="Layer_1" xmlns="http://www.w3.org/2000/svg" xmlns:xlink="http://www.w3.org/1999/xlink" x="0px" y="0px"
	 width="100px" height="100px" viewBox="0 0 100 100" enable-background="new 0 0 100 100" xml:space="preserve">
<path d="M57.793,25.838c7.68,0,14.35,4.229,18.029,10.46l21.701,0.025v-11.76c0-4.376-3.521-7.927-7.842-7.927H8.817
	C4.484,16.636,1,20.187,1,24.563l0.022,11.661l38.727,0.025C43.457,30.042,50.098,25.838,57.793,25.838L57.793,25.838z
	 M21.281,12.903h-7.193l-0.832,2.621h8.623L21.281,12.903z M86.146,11.505h-9.58l-1.697,4.043h12.83L86.146,11.505z M53.268,14.152
	h-8.244v-4.033h8.244V14.152z M60.826,8.5H37.548l-4.795,7.099h32.464L60.826,8.5z M76.947,38.4
	c1.199,2.672,1.908,5.612,1.908,8.743c0,11.759-9.434,21.304-21.062,21.304c-11.645,0-21.074-9.547-21.074-21.304
	c0-3.131,0.698-6.071,1.908-8.756H1.001V70.49c0,4.352,3.483,7.902,7.817,7.902h80.864c4.318,0,7.84-3.552,7.84-7.902l0.025-32.09
	H76.947z M69.279,40.143c-0.332-0.594-0.746-1.151-1.199-1.682c-2.459-2.992-6.141-4.96-10.287-4.96
	c-4.16,0-7.839,1.956-10.298,4.935c-0.453,0.545-0.87,1.102-1.225,1.707c-1.234,2.054-1.981,4.427-1.981,7
	c0,7.519,6.043,13.626,13.504,13.626c7.424,0,13.467-6.107,13.467-13.626C71.26,44.571,70.527,42.198,69.279,40.143L69.279,40.143z"
	/>
</svg>
