<?xml version="1.0" encoding="utf-8"?>
<!-- Generator: Adobe Illustrator 16.0.4, SVG Export Plug-In . SVG Version: 6.00 Build 0)  -->
<!DOCTYPE svg PUBLIC "-//W3C//DTD SVG 1.1//EN" "http://www.w3.org/Graphics/SVG/1.1/DTD/svg11.dtd">
<svg version="1.1" id="Layer_1" xmlns="http://www.w3.org/2000/svg" xmlns:xlink="http://www.w3.org/1999/xlink" x="0px" y="0px"
	 width="100px" height="100px" viewBox="0 0 100 100" enable-background="new 0 0 100 100" xml:space="preserve">
<path d="M49.826,4.319c25.143,0,45.598,20.457,45.598,45.599c0,25.145-20.455,45.598-45.598,45.598
	c-25.144,0-45.597-20.453-45.597-45.598C4.229,24.776,24.684,4.319,49.826,4.319 M49.826,0.093C22.308,0.093,0,22.4,0,49.918
	c0,27.52,22.308,49.825,49.826,49.825c27.517,0,49.826-22.308,49.826-49.825C99.65,22.4,77.346,0.093,49.826,0.093L49.826,0.093z
	 M36.055,34.639c0.68-1.973,1.69-3.65,3.029-5.036c1.338-1.384,2.961-2.46,4.867-3.233c1.905-0.771,4.083-1.157,6.535-1.157
	c1.905,0,3.685,0.283,5.346,0.851c1.652,0.569,3.116,1.396,4.386,2.483c1.271,1.09,2.271,2.406,2.998,3.947
	c0.726,1.544,1.086,3.314,1.086,5.311c0,2.542-0.555,4.696-1.665,6.466c-1.113,1.768-2.529,3.47-4.256,5.104
	c-1.406,1.407-2.531,2.506-3.365,3.299c-0.845,0.796-1.467,1.579-1.875,2.352c-0.41,0.771-0.681,1.714-0.816,2.826
	c-0.137,1.108-0.229,2.709-0.272,4.795h-4.288c-0.047-2.086,0.067-3.834,0.338-5.239c0.273-1.406,0.716-2.679,1.329-3.812
	c0.613-1.134,1.426-2.225,2.449-3.267c1.021-1.042,2.257-2.223,3.71-3.54c1.27-1.179,2.327-2.494,3.163-3.947
	c0.843-1.451,1.263-3.063,1.263-4.832c0-1.361-0.262-2.608-0.785-3.744c-0.519-1.133-1.223-2.099-2.107-2.893
	c-0.887-0.793-1.918-1.417-3.098-1.872c-1.182-0.453-2.428-0.68-3.746-0.68c-1.815,0-3.426,0.316-4.832,0.952
	c-1.407,0.638-2.564,1.51-3.473,2.621c-0.908,1.112-1.588,2.417-2.041,3.915s-0.658,3.131-0.611,4.9h-4.289
	C35.034,38.804,35.375,36.614,36.055,34.639z M52.798,67.619v7.212h-5.717v-7.212H52.798z"/>
</svg>
