<?xml version="1.0" encoding="utf-8"?>
<!-- Generator: Adobe Illustrator 19.0.0, SVG Export Plug-In . SVG Version: 6.00 Build 0)  -->
<svg version="1.1" id="Layer_1" xmlns="http://www.w3.org/2000/svg" xmlns:xlink="http://www.w3.org/1999/xlink" x="0px" y="0px"
	 viewBox="0 0 1000 1000" enable-background="new 0 0 1000 1000" xml:space="preserve">
<g id="Page-1">
	<g id="question-circle">
		<g id="Group">
			<path id="Shape" fill="#010101" d="M499.6,71.1c22.7,0,45.1,3.3,66.5,9.8c37.6,11.4,72.4,32.4,100.2,61
				c44.5,45.6,69.1,106.2,69.1,170.7l-1,22.2c-2.9,33.2-12.4,64.8-27.4,94c-0.9,1.6-89.6,164.4-89.6,266l-3,30
				c-4.8,20-14.8,30.3-29.8,30.3H414.4c-15,0-25-10.1-29.8-30.3l-3-30c0-101.6-88.7-264.4-88.8-266c-15.7-29.1-25.2-60.8-28.1-94
				l-1-22.2c0-64.5,24.5-125.1,69.1-170.7C377.3,96.3,436.6,71.1,499.6,71.1L499.6,71.1z M595.6,796.8v61.5H403.7v-61.5H595.6
				L595.6,796.8z M553.9,894.4v34.7H445.4v-34.7H553.9L553.9,894.4z M499.6,13.4c-78.7,0-152.6,31.3-208.1,88.1
				c-55.1,56.4-85.5,131.3-85.5,211v2.7l1,22.2c0,0.9,0.1,1.6,0.1,2.5c3.5,40.6,15.1,79.2,34.1,115.1c0.9,1.8,1.8,3.5,2.7,5.3
				c50.9,99.7,80.1,185.3,80.1,234.5c0,1.9,0.1,3.8,0.3,5.7l3,30c0.3,2.5,0.6,5.2,1.3,7.7c4.1,16.7,10.6,30.9,19.8,42.5
				c-1.5,5.1-2.3,10.5-2.3,16.1v61.5c0,26.4,17.6,48.5,41.7,55.4V929c0,31.8,25.9,57.7,57.7,57.7h108.5c31.8,0,57.7-25.9,57.7-57.7
				v-15.3c24.1-7,41.7-29.1,41.7-55.4v-61.5c0-5.6-0.8-11-2.3-16.1c9.1-11.5,15.7-25.9,19.8-42.5c0.6-2.5,1-5.1,1.3-7.6l3-30
				c0.3-1.9,0.3-3.8,0.3-5.8c0-71.6,61-199,82.4-238.1c0.3-0.5,0.5-1,0.9-1.5c18.6-36.4,29.9-75.2,33.5-115.2
				c0.1-0.8,0.1-1.6,0.1-2.5l1-22.2v-2.7c0-79.6-30.4-154.5-85.4-211C673,66,629.8,39.7,582.9,25.6
				C555.9,17.6,527.9,13.4,499.6,13.4L499.6,13.4L499.6,13.4z"/>
			<path id="Shape_1_" fill="#010101" d="M480.6,471.1l56.1-16.5c-5.2-4.7-9.3-13.4-9.3-21.7c0-43.2,85.9-48.9,85.9-123.9
				c0-47.9-40.7-81.2-107-81.2c-44.2,0-85.4,18-112.7,49.9l41.7,46.8c16-19,37.5-31.9,63.2-31.9c28.3,0,40.2,13.4,40.2,29.3
				c0,35.5-75.2,42.7-75.2,103.9C463.6,443.8,469.8,459.3,480.6,471.1L480.6,471.1z M505.3,581.7c22.7,0,41.7-19,41.7-41.7
				c0-22.7-19-41.7-41.7-41.7c-22.7,0-41.7,19-41.7,41.7C463.6,562.7,482.6,581.7,505.3,581.7L505.3,581.7z"/>
		</g>
	</g>
</g>
</svg>
