<?xml version="1.0" encoding="utf-8"?>
<!-- Generator: Adobe Illustrator 16.0.4, SVG Export Plug-In . SVG Version: 6.00 Build 0)  -->
<!DOCTYPE svg PUBLIC "-//W3C//DTD SVG 1.1//EN" "http://www.w3.org/Graphics/SVG/1.1/DTD/svg11.dtd">
<svg version="1.1" id="Layer_1" xmlns="http://www.w3.org/2000/svg" xmlns:xlink="http://www.w3.org/1999/xlink" x="0px" y="0px"
	 width="100px" height="100px" viewBox="0 0 100 100" enable-background="new 0 0 100 100" xml:space="preserve">
<path d="M72.341,9.893c-10.512,0-19.703,7.288-22.898,17.076C45,15.715,34.846,9.893,24.787,9.893
	c-13.065,0-24.104,11.257-24.104,24.583c0,12.716,8.725,21.943,20.835,21.943c0.521,0,0.778,0.314,0.884,0.5
	c0.105,0.186,0.244,0.561-0.018,1.004c-2.019,3.428-4.966,7.035-8.298,10.154c-2.438,2.281-3.769,5.508-3.652,8.854
	c0.118,3.365,1.686,6.514,4.299,8.637l4.101,3.33c0.957,0.777,2.164,1.207,3.399,1.207c1.185,0,2.357-0.396,3.303-1.114
	c14.925-11.363,23.921-26.257,25.832-42.464c3.57,6.083,9.934,9.894,17.703,9.894c0.521,0,0.779,0.312,0.886,0.5
	c0.104,0.187,0.241,0.56-0.019,1.004c-2.021,3.427-4.967,7.033-8.301,10.154c-2.437,2.28-3.767,5.508-3.648,8.853
	c0.117,3.364,1.685,6.516,4.3,8.639l4.101,3.33c0.955,0.776,2.162,1.207,3.397,1.207c1.187,0,2.358-0.398,3.305-1.117
	c16.911-12.877,26.226-30.277,26.226-49.001C99.317,20.23,85.746,9.893,72.341,9.893z M22.759,85.339
	c-0.389,0.295-0.667,0.297-1.033,0.002l-4.1-3.334c-1.586-1.287-2.536-3.197-2.607-5.238c-0.071-2.02,0.732-3.967,2.201-5.344
	c3.645-3.412,6.881-7.379,9.117-11.178c1.033-1.754,1.05-3.85,0.047-5.605c-1.005-1.76-2.824-2.81-4.953-2.81H21.43
	c-9.364,0-16.16-7.299-16.16-17.357c0-10.84,8.937-19.997,19.517-19.997c11.127,0,22.391,8.762,22.391,25.507
	C47.177,57.243,38.504,73.349,22.759,85.339z M70.313,85.339c-0.391,0.295-0.67,0.297-1.033,0.002l-4.1-3.334
	c-1.586-1.287-2.535-3.197-2.606-5.238c-0.071-2.02,0.731-3.969,2.2-5.344c3.646-3.412,6.884-7.381,9.117-11.178
	c1.033-1.754,1.051-3.85,0.047-5.605c-1.006-1.76-2.824-2.81-4.953-2.81h-0.002c-9.363,0.001-16.16-7.299-16.16-17.356
	c0-10.838,8.938-19.996,19.518-19.996c11.126,0,22.393,8.762,22.393,25.507C94.731,57.243,86.062,73.349,70.313,85.339z"/>
</svg>
