<?xml version="1.0" encoding="utf-8"?>
<!-- Generator: Adobe Illustrator 16.0.4, SVG Export Plug-In . SVG Version: 6.00 Build 0)  -->
<!DOCTYPE svg PUBLIC "-//W3C//DTD SVG 1.1//EN" "http://www.w3.org/Graphics/SVG/1.1/DTD/svg11.dtd">
<svg version="1.1" id="Layer_1" xmlns="http://www.w3.org/2000/svg" xmlns:xlink="http://www.w3.org/1999/xlink" x="0px" y="0px"
	 width="100px" height="100px" viewBox="0 0 100 100" enable-background="new 0 0 100 100" xml:space="preserve">
<path d="M78.336,21.778C72.893,7.987,60.45,0.853,48.123,0.853c-16.01,0-29.538,13.795-29.538,30.125
	c0,15.583,10.692,26.889,25.532,26.889c0.638,0,0.953,0.386,1.083,0.613c0.128,0.228,0.299,0.688-0.022,1.23
	c-2.474,4.2-6.085,8.621-10.168,12.443c-2.988,2.795-4.619,6.75-4.475,10.849c0.145,4.124,2.066,7.982,5.268,10.584l5.025,4.081
	c1.173,0.953,2.652,1.479,4.165,1.479c1.453,0,2.889-0.484,4.048-1.366c18.29-13.925,29.502-32.259,31.843-52.121
	c0,0,1.053-5.183,0.194-12.74C80.221,25.363,78.336,21.778,78.336,21.778z M45.638,93.308c-0.477,0.361-0.817,0.364-1.266,0.002
	l-5.024-4.086c-1.943-1.576-3.108-3.918-3.195-6.419c-0.087-2.475,0.897-4.861,2.698-6.549c4.466-4.181,8.431-9.042,11.171-13.696
	c1.267-2.149,1.287-4.718,0.058-6.869c-1.23-2.157-3.46-3.443-6.069-3.443h-0.001c-11.475,0-19.803-8.944-19.803-21.27
	c0-13.284,10.952-24.505,23.917-24.505c13.635,0,27.438,10.738,27.438,31.257C75.561,58.878,64.933,78.614,45.638,93.308z"/>
</svg>
