<?xml version="1.0" encoding="utf-8"?>
<!-- Generator: Adobe Illustrator 19.0.0, SVG Export Plug-In . SVG Version: 6.00 Build 0)  -->
<svg version="1.1" id="Layer_1" xmlns="http://www.w3.org/2000/svg" xmlns:xlink="http://www.w3.org/1999/xlink" x="0px" y="0px"
	 viewBox="0 0 500 500" style="enable-background:new 0 0 500 500;" xml:space="preserve">
<style type="text/css">
	.st0{fill:#010101;}
</style>
<path id="XMLID_7_" class="st0" d="M381.1,343.8c-4.5,0-9.1-1.8-12.4-5.4c-6.3-6.8-5.9-17.5,1-23.8l0.7-0.6
	c63.7-58.7,96-106.2,96-141c0-49.3-38.5-89.5-85.8-89.5s-85.8,40.1-85.8,89.5c0,38.2,31.2,67.7,60.3,82.6
	c8.3,4.2,11.5,14.4,7.3,22.6s-14.4,11.5-22.6,7.3c-48.5-24.8-78.6-68-78.6-112.6c0-67.9,53.6-123.1,119.4-123.1
	C446.4,49.8,500,105,500,172.9c0,60.3-61,123.5-106.8,165.7l-0.7,0.6C389.3,342.3,385.2,343.8,381.1,343.8z M388.3,207.6
	c-23.9,3.9-44.3-16.5-40.3-40.4c2.4-14.5,14-26.1,28.5-28.5c23.9-3.9,44.3,16.5,40.3,40.4C414.4,193.5,402.8,205.2,388.3,207.6z
	 M107.5,445.7l-0.7-0.6C61,402.8,0,339.6,0,279.3c0-67.9,53.6-123.1,119.4-123.1c65.9,0,119.4,55.2,119.4,123.1
	c0,44.6-30.1,87.8-78.6,112.6c-8.3,4.2-18.4,1-22.6-7.3s-1-18.4,7.3-22.6c29.2-14.9,60.3-44.5,60.3-82.6c0-49.3-38.5-89.5-85.8-89.5
	S33.6,230,33.6,279.3c0,34.8,32.3,82.3,96,141l0.7,0.6c6.8,6.3,7.3,16.9,1,23.8c-3.3,3.6-7.8,5.4-12.4,5.4
	C114.8,450.2,110.7,448.7,107.5,445.7z M83.2,285.5c-3.9-23.9,16.4-44.3,40.3-40.4c14.5,2.4,26.1,14,28.5,28.5
	c3.9,23.9-16.4,44.3-40.3,40.4C97.2,311.6,85.6,300,83.2,285.5z"/>
</svg>
