<?xml version="1.0" encoding="utf-8"?>
<!-- Generator: Adobe Illustrator 16.0.4, SVG Export Plug-In . SVG Version: 6.00 Build 0)  -->
<!DOCTYPE svg PUBLIC "-//W3C//DTD SVG 1.1//EN" "http://www.w3.org/Graphics/SVG/1.1/DTD/svg11.dtd">
<svg version="1.1" id="Layer_1" xmlns="http://www.w3.org/2000/svg" xmlns:xlink="http://www.w3.org/1999/xlink" x="0px" y="0px"
	 width="100px" height="86.915px" viewBox="0 0 100 86.915" enable-background="new 0 0 100 86.915" xml:space="preserve">
<path fill="#010101" d="M87.887,28.773L77.29,46.752l7.053,0.056c-0.754,7.675-4.62,15.31-10.139,20.825
	c-6.321,6.324-15.236,10.308-24.179,10.308c-8.946,0-17.853-3.981-24.181-10.308c-1.629-1.633-3.782-2.133-5.416-0.5
	c-1.639,1.635-1.139,3.789,0.5,5.422c7.907,7.906,17.914,11.762,29.097,11.762c11.18,0,21.193-3.855,29.1-11.762
	c7.082-7.084,10.822-15.784,11.622-25.676l7.415,0.06L87.887,28.773z"/>
<path fill="#010101" d="M15.651,40.7c0.638-7.906,5.017-16.243,10.692-21.921C32.67,12.453,41.078,8.97,50.025,8.97
	c8.943,0,17.357,3.483,23.678,9.809c1.634,1.634,4.283,2.634,5.919,1c1.636-1.636,0.636-4.285-1-5.92
	C70.717,5.954,61.205,2.598,50.025,2.598c-11.183,0-20.69,3.356-28.597,11.261C14.149,21.141,9.891,30.603,9.254,40.776
	l-7.417,0.056L12.433,58.81l10.272-18.164L15.651,40.7z"/>
</svg>
