<?xml version="1.0" encoding="utf-8"?>
<!-- Generator: Adobe Illustrator 16.0.4, SVG Export Plug-In . SVG Version: 6.00 Build 0)  -->
<!DOCTYPE svg PUBLIC "-//W3C//DTD SVG 1.1//EN" "http://www.w3.org/Graphics/SVG/1.1/DTD/svg11.dtd">
<svg version="1.1" id="Layer_1" xmlns:sketch="http://www.bohemiancoding.com/sketch/ns"
	 xmlns="http://www.w3.org/2000/svg" xmlns:xlink="http://www.w3.org/1999/xlink" x="0px" y="0px" width="36px" height="44px"
	 viewBox="0 0 36 44" enable-background="new 0 0 36 44" xml:space="preserve">
<path id="Editor" sketch:type="MSPage" d="M20.904,39.768C29.465,38.379,36,30.953,36,22
	c0-7.924-5.121-14.652-12.233-17.057l0,0l-0.415,1.974C29.557,9.119,34,15.041,34,22c0,7.846-5.646,14.371-13.096,15.737V33l-8,5.5
	l8,5.5V39.768z M13,4.704C5.491,6.87,0,13.794,0,22c0,7.338,4.391,13.65,10.688,16.453l0.407-2.016C5.715,33.859,2,28.363,2,22
	C2,14.91,6.612,8.896,13,6.797V11l8-5.5L13,0V4.704L13,4.704z"/>
</svg>
