<?xml version="1.0" encoding="utf-8"?>
<!-- Generator: Adobe Illustrator 16.0.4, SVG Export Plug-In . SVG Version: 6.00 Build 0)  -->
<!DOCTYPE svg PUBLIC "-//W3C//DTD SVG 1.1//EN" "http://www.w3.org/Graphics/SVG/1.1/DTD/svg11.dtd">
<svg version="1.1" id="Layer_1" xmlns="http://www.w3.org/2000/svg" xmlns:xlink="http://www.w3.org/1999/xlink" x="0px" y="0px"
	 width="100px" height="100px" viewBox="0 0 100 100" enable-background="new 0 0 100 100" xml:space="preserve">
<path d="M62.342,42.995c0.457,0.457,1.055,0.686,1.653,0.686s1.198-0.229,1.654-0.686l18.713-18.712
	c0.217-0.216,0.39-0.477,0.509-0.766c0.006-0.012,0.006-0.023,0.01-0.036c0.104-0.265,0.167-0.551,0.167-0.853
	s-0.062-0.588-0.167-0.854c-0.004-0.012-0.007-0.024-0.01-0.035c-0.119-0.288-0.292-0.549-0.509-0.766L65.649,2.261
	c-0.914-0.915-2.395-0.915-3.308,0c-0.914,0.914-0.914,2.395,0,3.309l14.719,14.72H20.665c-0.971,0-1.84,0.598-2.187,1.504
	c-0.345,0.907-0.095,1.933,0.628,2.581L75.8,75.035H25.532l14.719-14.717c0.915-0.914,0.915-2.395,0-3.309
	c-0.914-0.915-2.394-0.915-3.308,0L18.231,75.718c-0.108,0.11-0.206,0.229-0.291,0.355c-0.023,0.033-0.036,0.068-0.057,0.104
	c-0.058,0.097-0.116,0.194-0.159,0.297c-0.021,0.048-0.03,0.101-0.047,0.15c-0.032,0.095-0.066,0.187-0.087,0.286
	c-0.03,0.151-0.047,0.306-0.047,0.462s0.016,0.312,0.047,0.465c0.021,0.099,0.055,0.192,0.087,0.286
	c0.017,0.048,0.027,0.101,0.047,0.149c0.044,0.104,0.101,0.201,0.159,0.297c0.021,0.033,0.034,0.071,0.057,0.103
	c0.086,0.13,0.183,0.248,0.291,0.355l18.711,18.711c0.458,0.458,1.056,0.687,1.654,0.687c0.599,0,1.198-0.229,1.654-0.687
	c0.914-0.912,0.914-2.396,0-3.309L25.532,79.715h56.396c0.165,0,0.324-0.017,0.479-0.049c0.015-0.004,0.031-0.01,0.048-0.016
	c0.139-0.031,0.272-0.074,0.398-0.128c0.047-0.02,0.089-0.05,0.134-0.072c0.095-0.049,0.189-0.097,0.279-0.159
	c0.046-0.031,0.087-0.074,0.132-0.108c0.081-0.066,0.161-0.134,0.232-0.21c0.013-0.015,0.029-0.023,0.043-0.038
	c0.032-0.037,0.053-0.076,0.083-0.115c0.054-0.066,0.105-0.134,0.153-0.207c0.039-0.062,0.07-0.128,0.103-0.193
	c0.036-0.069,0.069-0.138,0.097-0.21c0.028-0.075,0.049-0.149,0.069-0.225c0.02-0.069,0.038-0.14,0.051-0.212
	c0.015-0.085,0.02-0.168,0.025-0.255c0.003-0.048,0.014-0.093,0.014-0.143c0-0.021-0.005-0.039-0.005-0.062
	c-0.003-0.086-0.015-0.167-0.025-0.251c-0.012-0.072-0.017-0.143-0.034-0.21c-0.017-0.075-0.043-0.146-0.066-0.217
	c-0.024-0.072-0.047-0.146-0.078-0.214c-0.027-0.065-0.068-0.128-0.102-0.189c-0.04-0.07-0.078-0.141-0.125-0.206
	c-0.037-0.055-0.084-0.105-0.13-0.156c-0.057-0.066-0.112-0.133-0.175-0.192c-0.015-0.014-0.026-0.031-0.043-0.046L26.793,24.968
	H77.06l-14.718,14.72C61.428,40.599,61.428,42.083,62.342,42.995z"/>
</svg>
