<?xml version="1.0" encoding="utf-8"?>
<!-- Generator: Adobe Illustrator 16.0.4, SVG Export Plug-In . SVG Version: 6.00 Build 0)  -->
<!DOCTYPE svg PUBLIC "-//W3C//DTD SVG 1.1//EN" "http://www.w3.org/Graphics/SVG/1.1/DTD/svg11.dtd">
<svg version="1.1" id="Livello_1" xmlns="http://www.w3.org/2000/svg" xmlns:xlink="http://www.w3.org/1999/xlink" x="0px" y="0px"
	 width="100px" height="100px" viewBox="0 0 100 100" enable-background="new 0 0 100 100" xml:space="preserve">
<g>
	<path d="M79.036,4.463c-3.712-2.265-7.924-3.338-12.4-3.338C51.791,1.126,34.069,12.929,22.298,32.213
		c-15.32,25.102-14.756,53.374,1.26,63.148c3.71,2.266,7.924,3.338,12.4,3.338c14.843,0,32.567-11.804,44.337-31.089
		C95.615,42.509,95.05,14.237,79.036,4.463z M24.823,33.754c5.484-8.985,12.46-16.553,20.173-21.884
		c7.371-5.094,14.855-7.788,21.64-7.788h0.002c0.993,0,1.964,0.06,2.907,0.178c-2.695,0.606-5.656,1.899-8.828,3.869
		c-6.317,3.925-13.202,10.47-19.52,18.526l-2.643-1.127c-0.751-0.319-1.62,0.029-1.94,0.78s0.029,1.62,0.779,1.94l7.877,3.36
		c0.189,0.08,0.386,0.118,0.58,0.118c0.575,0,1.121-0.336,1.361-0.898c0.32-0.751-0.029-1.62-0.78-1.94l-2.416-1.03
		C56.551,12.095,70.2,3.735,76.973,7.87c8.622,5.261,4.15,28.962-9.761,51.755c-6.967,11.416-15.259,21.057-23.348,27.147
		c-7.606,5.73-14.246,7.623-18.22,5.198c-6.776-4.136-5.565-20.199,2.772-38.597l2.813,1.2c0.19,0.08,0.387,0.12,0.58,0.12
		c0.575,0,1.122-0.339,1.362-0.9c0.319-0.75-0.03-1.62-0.781-1.939l-7.877-3.36c-0.751-0.32-1.62,0.03-1.94,0.781
		c-0.32,0.751,0.029,1.619,0.78,1.94l2.341,0.998c-6.484,14.303-8.746,26.875-6.63,34.848c-3.079-4.476-4.789-10.479-4.931-17.585
		C13.906,58.105,17.703,45.419,24.823,33.754z M77.771,66.069c-5.485,8.984-12.462,16.554-20.175,21.885
		c-7.372,5.094-14.854,7.786-21.639,7.786c-0.989,0-1.953-0.059-2.891-0.176c3.761-0.839,8.02-2.997,12.578-6.431
		c8.38-6.311,16.936-16.246,24.092-27.969c11.601-19.008,16.606-37.74,13.797-48.396c3.075,4.475,4.784,10.476,4.924,17.579
		C88.686,41.719,84.89,54.405,77.771,66.069z"/>
	<path d="M26.863,45.473l7.877,3.36c0.19,0.08,0.387,0.119,0.58,0.119c0.574,0,1.121-0.337,1.361-0.898
		c0.32-0.751-0.029-1.62-0.779-1.94l-7.878-3.36c-0.751-0.319-1.619,0.029-1.94,0.78C25.763,44.284,26.112,45.153,26.863,45.473z"/>
	<path d="M30.374,39.731l7.877,3.36c0.188,0.08,0.385,0.119,0.579,0.119c0.575,0,1.121-0.338,1.361-0.899
		c0.32-0.75-0.029-1.62-0.78-1.939l-7.877-3.361c-0.751-0.319-1.62,0.03-1.94,0.781C29.273,38.542,29.622,39.412,30.374,39.731z"/>
	<path d="M33.884,33.989l7.877,3.36c0.189,0.081,0.386,0.118,0.579,0.118c0.576,0,1.122-0.337,1.362-0.898
		c0.321-0.751-0.028-1.621-0.781-1.941l-7.877-3.359c-0.751-0.319-1.62,0.029-1.941,0.781
		C32.784,32.801,33.133,33.669,33.884,33.989z"/>
</g>
</svg>
