<?xml version="1.0" encoding="UTF-8" standalone="no"?>
<svg width="98px" height="100px" viewBox="0 0 98 100" version="1.1" xmlns="http://www.w3.org/2000/svg" xmlns:xlink="http://www.w3.org/1999/xlink" xmlns:sketch="http://www.bohemiancoding.com/sketch/ns">
    <!-- Generator: Sketch 3.2.2 (9983) - http://www.bohemiancoding.com/sketch -->
    <title>search</title>
    <desc>Created with Sketch.</desc>
    <defs></defs>
    <g id="Page-1" stroke="none" stroke-width="1" fill="none" fill-rule="evenodd" sketch:type="MSPage">
        <g id="search" sketch:type="MSLayerGroup" fill="#000000">
            <path d="M0.601,38.099 C0.601,17.247 17.566,0.283 38.414,0.283 C59.266,0.283 76.231,17.248 76.231,38.099 C76.231,58.951 59.266,75.913 38.414,75.913 C17.566,75.913 0.601,58.948 0.601,38.099 L0.601,38.099 Z M7.418,38.098 C7.418,55.191 21.325,69.097 38.415,69.097 C55.509,69.097 69.415,55.191 69.415,38.098 C69.415,21.005 55.509,7.099 38.415,7.099 C21.325,7.099 7.418,21.006 7.418,38.098 Z M61.3762812,72.0881594 L69.9595676,63.5073004 L97.1599786,90.715406 L88.5766922,99.296265 L61.3762812,72.0881594 Z" id="Shape" sketch:type="MSShapeGroup"></path>
        </g>
    </g>
</svg>