<?xml version="1.0" encoding="utf-8"?>
<!-- Generator: Adobe Illustrator 16.0.4, SVG Export Plug-In . SVG Version: 6.00 Build 0)  -->
<!DOCTYPE svg PUBLIC "-//W3C//DTD SVG 1.1//EN" "http://www.w3.org/Graphics/SVG/1.1/DTD/svg11.dtd">
<svg version="1.1" id="Layer_1" xmlns="http://www.w3.org/2000/svg" xmlns:xlink="http://www.w3.org/1999/xlink" x="0px" y="0px"
	 width="100px" height="100px" viewBox="0 0 100 100" enable-background="new 0 0 100 100" xml:space="preserve">
<path d="M1.601,38.099c0-20.852,16.965-37.816,37.813-37.816c20.852,0,37.817,16.965,37.817,37.816
	c0,20.852-16.965,37.814-37.817,37.814C18.566,75.913,1.601,58.948,1.601,38.099z M8.418,38.098
	c0,17.093,13.907,30.999,30.997,30.999c17.094,0,31-13.906,31-30.999s-13.906-30.999-31-30.999
	C22.325,7.099,8.418,21.006,8.418,38.098z"/>
<rect x="74.201" y="62.162" transform="matrix(0.7072 -0.707 0.707 0.7072 -34.0472 80.5873)" width="12.137" height="38.473"/>
</svg>
