<?xml version="1.0" encoding="utf-8"?>
<!-- Generator: Adobe Illustrator 16.0.4, SVG Export Plug-In . SVG Version: 6.00 Build 0)  -->
<!DOCTYPE svg PUBLIC "-//W3C//DTD SVG 1.1//EN" "http://www.w3.org/Graphics/SVG/1.1/DTD/svg11.dtd">
<svg version="1.1" id="Layer_1" xmlns:sketch="http://www.bohemiancoding.com/sketch/ns"
	 xmlns="http://www.w3.org/2000/svg" xmlns:xlink="http://www.w3.org/1999/xlink" x="0px" y="0px" width="98px" height="100px"
	 viewBox="0 0 98 100" enable-background="new 0 0 98 100" xml:space="preserve">
<title>search</title>
<desc>Created with Sketch.</desc>
<path id="Page-1" sketch:type="MSPage" d="M0.601,38.099c0-20.852,16.965-37.816,37.813-37.816
	c20.852,0,37.816,16.965,37.816,37.816c0,20.852-16.965,37.814-37.816,37.814C17.566,75.913,0.601,58.948,0.601,38.099L0.601,38.099
	z M7.418,38.098c0,17.093,13.907,31,30.997,31c17.094,0,31-13.906,31-31s-13.906-30.999-31-30.999
	C21.325,7.099,7.418,21.006,7.418,38.098z M61.377,72.088l8.582-8.58L97.16,90.715l-8.584,8.582L61.377,72.088z"/>
</svg>
