<?xml version="1.0" encoding="utf-8"?>
<!-- Generator: Adobe Illustrator 16.0.4, SVG Export Plug-In . SVG Version: 6.00 Build 0)  -->
<!DOCTYPE svg PUBLIC "-//W3C//DTD SVG 1.1//EN" "http://www.w3.org/Graphics/SVG/1.1/DTD/svg11.dtd">
<svg version="1.1" id="Layer_1" xmlns="http://www.w3.org/2000/svg" xmlns:xlink="http://www.w3.org/1999/xlink" x="0px" y="0px"
	 width="100px" height="82.438px" viewBox="0 0 100 82.438" enable-background="new 0 0 100 82.438" xml:space="preserve">
<path d="M3.092,40.746c0,0,20.636,11.454,22.486,12.484c-0.053,2.073-0.681,26.447-0.681,26.447
	s20.538-15.585,22.364-16.973c1.971,0.979,16.554,8.26,16.554,8.26L99.002,0.613L3.092,40.746z M45.435,59.184
	c-3.124,2.371-11.849,10.305-16.083,13.521c2.638-5.347,8.194-16.585,8.591-17.394C38.719,55.721,43.07,57.966,45.435,59.184z
	 M37.17,53.07l-9.595,19.014c0.145-5.419,0.908-15.537,0.985-18.501l51.331-37.349L37.17,53.07l0.002,0.001L37.17,53.07z
	 M88.211,8.323L28.989,50.666c-2.672-1.48-13.968-7.684-18.065-9.956C16.475,38.377,70.58,15.695,88.211,8.323z M46.817,58.134
	c0,0-0.015,0.011-0.026,0.021l-7.857-4.151L92.391,8.118c-4.954,9.906-28.357,55.115-29.864,58.129
	C59.664,64.822,46.817,58.134,46.817,58.134z"/>
</svg>
