<?xml version="1.0" encoding="UTF-8" standalone="no"?>
<svg width="31px" height="29px" viewBox="0 0 31 29" version="1.1" xmlns="http://www.w3.org/2000/svg" xmlns:xlink="http://www.w3.org/1999/xlink" xmlns:sketch="http://www.bohemiancoding.com/sketch/ns">
    <!-- Generator: Sketch 3.2.2 (9983) - http://www.bohemiancoding.com/sketch -->
    <title>shopping-cart</title>
    <desc>Created with Sketch.</desc>
    <defs></defs>
    <g id="Page-1" stroke="none" stroke-width="1" fill="none" fill-rule="evenodd" sketch:type="MSPage">
        <g id="shopping-cart" sketch:type="MSLayerGroup" fill="#000000">
            <g id="Group" sketch:type="MSShapeGroup">
                <path d="M28.1103162,20.4679317 C28.5376324,20.4679317 28.8984928,20.1495705 28.9532361,19.724152 L30.9929979,3.86096035 C31.0242526,3.61771806 30.9496489,3.37281498 30.788347,3.18865859 C30.6270452,3.0045022 30.394386,2.89904185 30.150078,2.89904185 L5.28890554,2.89904185 L1.39550924,0.209196035 C1.00874127,-0.058 0.479767967,0.0400506608 0.213562628,0.427973568 C-0.0526427105,0.815896476 0.0450041068,1.34690308 0.431581109,1.61403524 L4.14317864,4.17829956 L4.14317864,22.0362952 C2.61864066,22.4099097 1.48691786,23.7890066 1.48691786,25.434022 C1.48691786,27.3659714 3.04767556,28.932163 4.97304928,28.932163 C6.81910883,28.932163 8.32906982,27.492 8.45033265,25.6703018 L24.5327125,25.6703018 C24.4555626,25.9123304 24.4134867,26.1701366 24.4134867,26.4378436 C24.4134867,27.8273524 25.5360431,28.9537533 26.9206674,28.9537533 C28.3052916,28.9537533 29.427848,27.8272885 29.427848,26.4378436 C29.427848,25.0483987 28.3052916,23.9219339 26.9206674,23.9219339 C26.6919548,23.9219339 26.4706263,23.9532335 26.2600554,24.0107863 C26.1736756,23.9813392 26.0817577,23.9645396 25.9856386,23.9645396 L8.13651335,23.9645396 C7.70168583,23.0233811 6.86296715,22.3084736 5.84295893,22.0454934 L5.84295893,20.467804 L28.1103162,20.467804 L28.1103162,20.4679317 Z M5.84295893,4.60474009 L29.1834764,4.60474009 L27.3630062,18.7621696 L5.84295893,18.7621696 L5.84295893,4.60474009 L5.84295893,4.60474009 Z" id="Shape"></path>
                <path d="M12.0412402,9.58788546 L9.066577,12.5729053 C8.73467967,12.9059581 8.73467967,13.4459714 9.066577,13.7790881 C9.23258932,13.9455507 9.45003491,14.0289097 9.66754415,14.0289097 C9.88505339,14.0289097 10.102499,13.9456145 10.2685113,13.7790881 L13.2431745,10.7940683 C13.5750719,10.4610154 13.5750719,9.9210022 13.2431745,9.58788546 C12.9111499,9.25489648 12.3732012,9.25489648 12.0412402,9.58788546 L12.0412402,9.58788546 Z" id="Shape"></path>
                <path d="M17.9905031,9.58788546 L15.0158398,12.5729053 C14.6839425,12.9059581 14.6839425,13.4459714 15.0158398,13.7790881 C15.1818522,13.9455507 15.3992977,14.0289097 15.616807,14.0289097 C15.8343162,14.0289097 16.0517618,13.9456145 16.2177741,13.7790881 L19.1924374,10.7940683 C19.5243347,10.4610154 19.5243347,9.9210022 19.1924374,9.58788546 C18.8604764,9.25489648 18.3224641,9.25489648 17.9905031,9.58788546 L17.9905031,9.58788546 Z" id="Shape"></path>
                <path d="M23.3378439,10.191967 L20.9651663,12.5729053 C20.633269,12.9059581 20.633269,13.4459714 20.9651663,13.7790881 C21.1311786,13.9455507 21.3486242,14.0289097 21.5661335,14.0289097 C21.7836427,14.0289097 22.0010883,13.9456145 22.1671006,13.7790881 L24.5397782,11.3981498 C24.8716756,11.0650969 24.8716756,10.5250837 24.5397782,10.191967 C24.2077536,9.85897797 23.6698049,9.85897797 23.3378439,10.191967 L23.3378439,10.191967 Z" id="Shape"></path>
            </g>
        </g>
    </g>
</svg>