<?xml version="1.0" encoding="utf-8"?>
<!-- Generator: Adobe Illustrator 16.0.4, SVG Export Plug-In . SVG Version: 6.00 Build 0)  -->
<!DOCTYPE svg PUBLIC "-//W3C//DTD SVG 1.1//EN" "http://www.w3.org/Graphics/SVG/1.1/DTD/svg11.dtd">
<svg version="1.1" id="Layer_1" xmlns:sketch="http://www.bohemiancoding.com/sketch/ns"
	 xmlns="http://www.w3.org/2000/svg" xmlns:xlink="http://www.w3.org/1999/xlink" x="0px" y="0px" width="31px" height="29px"
	 viewBox="0 0 31 29" enable-background="new 0 0 31 29" xml:space="preserve">
<title>shopping-cart</title>
<desc>Created with Sketch.</desc>
<path id="Page-1" sketch:type="MSPage" d="M28.11,20.468c0.427,0,0.788-0.318,0.843-0.743l2.04-15.864
	c0.031-0.243-0.044-0.488-0.204-0.672c-0.162-0.184-0.395-0.29-0.639-0.29H5.289l-3.894-2.69C1.009-0.058,0.48,0.04,0.213,0.428
	c-0.266,0.388-0.168,0.919,0.218,1.187l3.711,2.564v17.858c-1.524,0.374-2.656,1.753-2.656,3.397c0,1.933,1.561,3.498,3.486,3.498
	c1.846,0,3.356-1.439,3.477-3.262h16.083c-0.078,0.242-0.119,0.5-0.119,0.768c0,1.39,1.122,2.516,2.507,2.516
	c1.384,0,2.507-1.126,2.507-2.516c0-1.389-1.123-2.516-2.507-2.516c-0.229,0-0.45,0.031-0.661,0.089
	c-0.086-0.029-0.178-0.046-0.273-0.046H8.137c-0.435-0.941-1.274-1.656-2.294-1.92v-1.577H28.11L28.11,20.468z M5.843,4.604h23.341
	l-1.82,14.157H5.843V4.604L5.843,4.604z M12.041,9.588l-2.975,2.985c-0.332,0.333-0.332,0.873,0,1.207
	c0.166,0.166,0.384,0.25,0.601,0.25c0.218,0,0.435-0.083,0.601-0.25l2.975-2.985c0.332-0.333,0.332-0.873,0-1.206
	S12.373,9.255,12.041,9.588L12.041,9.588z M17.99,9.588l-2.975,2.985c-0.332,0.333-0.332,0.873,0,1.207
	c0.166,0.166,0.384,0.25,0.601,0.25c0.218,0,0.435-0.083,0.601-0.25l2.975-2.985c0.332-0.333,0.332-0.873,0-1.206
	S18.322,9.255,17.99,9.588L17.99,9.588z M23.338,10.192l-2.373,2.381c-0.332,0.333-0.332,0.873,0,1.207
	c0.166,0.166,0.384,0.25,0.602,0.25c0.217,0,0.435-0.083,0.601-0.25l2.372-2.381c0.332-0.333,0.332-0.873,0-1.206
	S23.67,9.859,23.338,10.192L23.338,10.192z"/>
</svg>
