<svg xmlns="http://www.w3.org/2000/svg" xmlns:xlink="http://www.w3.org/1999/xlink" version="1.1" id="Calque_1" x="0px" y="0px" width="100.0px" height="100px" viewBox="0 0 512 512" enable-background="new 0 0 512 512" xml:space="preserve">
<g>
	<path fill="#000000" d="M453.604,341.429c6.713,0,12.382-4.984,13.242-11.644L498.89,81.444c0.491-3.808-0.681-7.642-3.215-10.525   c-2.534-2.883-6.189-4.534-10.027-4.534H95.087l-61.164-42.11c-6.076-4.183-14.386-2.648-18.568,3.425s-2.648,14.386,3.425,18.568   l58.308,40.144v279.57c-23.95,5.849-41.729,27.439-41.729,53.192c0,30.245,24.519,54.764,54.766,54.764   c29.001,0,52.722-22.546,54.627-51.065h252.649c-1.212,3.789-1.873,7.825-1.873,12.016c0,21.753,17.635,39.387,39.387,39.387   c21.752,0,39.387-17.635,39.387-39.387c0-21.752-17.635-39.387-39.387-39.387c-3.593,0-7.07,0.49-10.378,1.391   c-1.357-0.461-2.801-0.724-4.311-0.724H139.822c-6.831-14.734-20.007-25.926-36.031-30.043v-24.699H453.604z M103.791,93.088   h366.672l-28.599,221.637H103.791V93.088z"/>
	<path fill="#000000" d="M201.164,171.1l-46.731,46.731c-5.214,5.214-5.214,13.668,0,18.883c2.608,2.606,6.024,3.911,9.441,3.911   c3.417,0,6.833-1.304,9.441-3.911l46.731-46.731c5.214-5.214,5.214-13.668,0-18.883C214.83,165.887,206.379,165.887,201.164,171.1z   "/>
	<path fill="#000000" d="M294.625,171.1l-46.731,46.731c-5.214,5.214-5.214,13.668,0,18.883c2.608,2.606,6.024,3.911,9.441,3.911   c3.417,0,6.833-1.304,9.441-3.911l46.731-46.731c5.214-5.214,5.214-13.668,0-18.883C308.292,165.887,299.84,165.887,294.625,171.1z   "/>
	<path fill="#000000" d="M378.63,180.557l-37.274,37.274c-5.214,5.214-5.214,13.668,0,18.883c2.608,2.606,6.024,3.911,9.441,3.911   s6.833-1.304,9.441-3.911l37.274-37.274c5.214-5.214,5.214-13.668,0-18.883C392.296,175.344,383.845,175.344,378.63,180.557z"/>
</g>
</svg>