<?xml version="1.0" encoding="utf-8"?>
<!-- Generator: Adobe Illustrator 19.0.0, SVG Export Plug-In . SVG Version: 6.00 Build 0)  -->
<svg version="1.1" id="Layer_1" xmlns="http://www.w3.org/2000/svg" xmlns:xlink="http://www.w3.org/1999/xlink" x="0px" y="0px"
	 viewBox="0 0 1000 1000" enable-background="new 0 0 1000 1000" xml:space="preserve">
<g id="Page-1">
	<g id="sports-arts-martiaux">
		<g id="Group">
			<path id="Shape" fill="#010101" d="M899.8,299c-48.4,29-104,59.6-154.8,18.9c-36.2-29.1-64.6-66.9-113-75.8
				c-91.3-16.8-164,57.2-205.2,129.7c-18.6,32.9-35.2,73.5-27.1,111.9c8.8,41.2,44.7,66.1,85,71.6c53.7,7.3,107.6-20.3,160.7-9.1
				c43.3,9.2,61.5,48.4,44,88.1c-17.9,40.7-58.3,71.2-92.4,98c-37.9,29.7-77.7,57.3-112.8,90.5c-26.4,25,13.5,65,40,40
				c60.5-57.2,137.5-97.3,189.8-163c49-61.5,57.4-158.4-24.5-197.7c-52.2-25-105.9-8.7-160.3-2.8c-38,4.1-82.8-2.8-73.6-50.2
				c13-67.8,95.2-174.9,173.8-149.7c50,16.1,76.3,72.1,127.5,89.6c59.9,20.4,121-11.2,171.3-41.2C959.4,329.1,931,280.3,899.8,299
				L899.8,299L899.8,299z"/>
			<path id="Shape_1_" fill="#010101" d="M204.6,455.4c42.2-105.6,150.2-176.9,263.2-177.9c36.4-0.4,36.4-56.8,0-56.4
				c-140.1,1.3-266,90-317.7,219.4C136.7,474.1,191.4,488.8,204.6,455.4L204.6,455.4L204.6,455.4z"/>
			<path id="Shape_2_" fill="#010101" d="M651.4,181.3c41.5-27.1,54.8-86.5,29.2-128.9C654.3,8.9,592.9-5.1,549.8,21.1
				c-0.6,0.4-1.1,0.9-1.8,1.3c-1.3,0.6-2.7,1.3-4,2.3C499.9,56,492.6,117.5,524.8,161C553.1,199.5,612.3,207,651.4,181.3
				L651.4,181.3z M633.1,74.6c15.1,18,10.1,49.5-9.2,62.7c-47.1,32.4-91.8-37.9-48.8-71.2C594.2,56.6,618.4,57,633.1,74.6
				L633.1,74.6z"/>
			<path id="Shape_3_" fill="#010101" d="M375,561.9C306.7,710.3,202,839.2,69,934.1c-29.4,20.9-1.1,69.9,28.5,48.8
				c140.8-100.5,254-235.1,326.4-392.5C439,557.7,390.2,529,375,561.9L375,561.9L375,561.9z"/>
		</g>
	</g>
</g>
</svg>
