<?xml version="1.0" encoding="utf-8"?>
<!-- Generator: Adobe Illustrator 16.0.4, SVG Export Plug-In . SVG Version: 6.00 Build 0)  -->
<!DOCTYPE svg PUBLIC "-//W3C//DTD SVG 1.1//EN" "http://www.w3.org/Graphics/SVG/1.1/DTD/svg11.dtd">
<svg version="1.1" id="Layer_1" xmlns="http://www.w3.org/2000/svg" xmlns:xlink="http://www.w3.org/1999/xlink" x="0px" y="0px"
	 width="54.668px" height="49.232px" viewBox="0 0 54.668 49.232" enable-background="new 0 0 54.668 49.232" xml:space="preserve">
<path d="M43.182,8.153l-9.887-4.361L31.551,1.03c0,0-1.018-1.164-5.235-1.018c-4.217,0.146-4.652,1.743-4.652,1.743
	l-1.891,2.617l-8.287,3.635L0,42.321l5.961,4.507l9.016-20.354l0.273,8.844h2.894l8.897-22.948c-1.522-1.216-5.334-4.601-5.16-7.922
	c0.219-4.145,3.381-3.707,4.908-3.816c3.482-0.249,5.016,0.981,4.143,4.688c-0.608,2.595-1.254,5.226-2.016,6.582l-8.741,23.416
	h18.562l0.811-11.024l8.723,21.664l6.398-3.345L43.182,8.153z M39.417,38.649l-3.198,0.037l-5.439-0.039l3.388,9.419l-2.917,0.25
	l-4.025-9.693l-0.218-0.002L23.5,47.066l-2.917-0.25l2.956-8.219l-8.054-0.057l-2.399,10.322l28.748,0.369L39.417,38.649z"/>
</svg>
