<svg xmlns="http://www.w3.org/2000/svg" xmlns:xlink="http://www.w3.org/1999/xlink" version="1.1" id="Layer_1" x="0px" y="0px" width="100px" height="100px" viewBox="0 0 100 100" enable-background="new 0 0 100 100" xml:space="preserve">
<g>
	<path d="M87.005,4.504H59.997c-0.964,0-1.747,0.782-1.747,1.747C58.25,7.215,59.033,8,59.997,8h27.008   c3.519,0,7.249,3.73,7.249,7.246v22.506c0,4.353,0,6.335-0.943,8.223c-0.999,1.995-3.186,4.181-7.549,8.544L45.255,95.013   c-3.066,3.068-5.97,0.535-6.519,0l-31.5-31.489c-0.535-0.555-3.076-3.463-0.008-6.528l3.494-3.495   c9.638-9.638,35.595-35.594,37.01-37.01c0.688-0.687,0.688-1.789,0-2.478c-0.686-0.687-1.791-0.687-2.478,0   C43.842,15.43,17.885,41.386,8.248,51.025l-3.486,3.493c-2.316,2.306-3.056,5.135-2.112,7.977c0.664,2.017,1.962,3.357,2.112,3.496   l31.5,31.498c0.14,0.151,1.469,1.438,3.494,2.113C40.56,99.871,41.354,100,42.147,100c2.004,0,3.936-0.847,5.585-2.511   l40.504-40.494c9.156-9.157,9.512-9.522,9.512-19.244V15.245C97.749,9.821,92.43,4.504,87.005,4.504z"/>
	<path d="M73.498,36.004c-4.002,0-7.248-3.259-7.248-7.247c0-0.968-0.783-1.76-1.748-1.76c-0.967,0-1.747,0.792-1.747,1.76   c0,5.916,4.813,10.742,10.743,10.742c5.927,0,10.753-4.826,10.753-10.742c0-5.933-4.826-10.755-10.753-10.755   c-0.966,0-1.748,0.782-1.748,1.747c0,0.965,0.782,1.748,1.748,1.748c3.997,0,7.248,3.259,7.248,7.26   C80.746,32.745,77.495,36.004,73.498,36.004z"/>
	<path d="M19.494,35.004c0.139,0,0.288-0.019,0.428-0.052c0.933-0.236,1.513-1.189,1.276-2.121   C18.484,22,19.181,12.919,23.084,7.912c2.295-2.925,5.619-4.414,9.907-4.414c10.486,0,31.907,19.123,39.271,26.491   c0.687,0.685,1.79,0.685,2.478,0c0.676-0.688,0.676-1.792,0-2.479C73.615,26.387,47.058,0,32.991,0   c-5.34,0-9.724,1.994-12.662,5.759c-4.642,5.951-5.542,15.869-2.53,27.918C17.992,34.47,18.711,35.004,19.494,35.004z"/>
</g>
</svg>