<?xml version="1.0" encoding="utf-8"?>
<!-- Generator: Adobe Illustrator 16.0.4, SVG Export Plug-In . SVG Version: 6.00 Build 0)  -->
<!DOCTYPE svg PUBLIC "-//W3C//DTD SVG 1.1//EN" "http://www.w3.org/Graphics/SVG/1.1/DTD/svg11.dtd">
<svg version="1.1" id="Layer_1" xmlns="http://www.w3.org/2000/svg" xmlns:xlink="http://www.w3.org/1999/xlink" x="0px" y="0px"
	 width="100px" height="100px" viewBox="0 0 100 100" enable-background="new 0 0 100 100" xml:space="preserve">
<path d="M84.754,4.504H57.746C56.783,4.504,56,5.286,56,6.251C56,7.215,56.783,8,57.746,8h27.008
	c3.52,0,7.25,3.73,7.25,7.246v22.506c0,4.353,0,6.335-0.943,8.223c-0.998,1.995-3.186,4.181-7.549,8.544L43.004,95.014
	c-3.066,3.067-5.97,0.534-6.519,0l-31.5-31.49c-0.535-0.555-3.076-3.463-0.008-6.527l3.494-3.495
	c9.638-9.638,35.595-35.594,37.01-37.01c0.688-0.687,0.688-1.789,0-2.478c-0.686-0.687-1.791-0.687-2.478,0
	C41.591,15.43,15.634,41.386,5.998,51.025l-3.486,3.492c-2.316,2.307-3.056,5.135-2.112,7.978c0.664,2.017,1.962,3.356,2.112,3.496
	l31.5,31.498c0.14,0.151,1.469,1.438,3.494,2.112c0.804,0.27,1.598,0.398,2.391,0.398c2.004,0,3.936-0.848,5.585-2.511
	l40.505-40.494c9.156-9.157,9.512-9.522,9.512-19.244V15.245C95.498,9.821,90.18,4.504,84.754,4.504z M71.248,36.004
	c-4.002,0-7.248-3.259-7.248-7.247c0-0.968-0.783-1.76-1.748-1.76c-0.967,0-1.748,0.792-1.748,1.76
	c0,5.916,4.814,10.742,10.744,10.742C77.174,39.499,82,34.673,82,28.757c0-5.933-4.826-10.755-10.752-10.755
	c-0.967,0-1.748,0.782-1.748,1.747s0.781,1.748,1.748,1.748c3.996,0,7.248,3.259,7.248,7.26
	C78.496,32.745,75.244,36.004,71.248,36.004z M17.244,35.004c0.139,0,0.288-0.019,0.428-0.052c0.933-0.236,1.513-1.189,1.276-2.121
	C16.233,22,16.931,12.919,20.833,7.912c2.295-2.925,5.619-4.414,9.907-4.414c10.486,0,31.908,19.123,39.271,26.491
	c0.688,0.685,1.789,0.685,2.479,0c0.676-0.688,0.676-1.792,0-2.479C71.365,26.387,44.808,0,30.741,0
	c-5.34,0-9.724,1.994-12.662,5.759c-4.642,5.951-5.542,15.869-2.53,27.918C15.742,34.47,16.46,35.004,17.244,35.004z"/>
</svg>
