<?xml version="1.0" encoding="utf-8"?>
<!-- Generator: Adobe Illustrator 16.0.4, SVG Export Plug-In . SVG Version: 6.00 Build 0)  -->
<!DOCTYPE svg PUBLIC "-//W3C//DTD SVG 1.1//EN" "http://www.w3.org/Graphics/SVG/1.1/DTD/svg11.dtd">
<svg version="1.1" id="Layer_1" xmlns="http://www.w3.org/2000/svg" xmlns:xlink="http://www.w3.org/1999/xlink" x="0px" y="0px"
	 width="57.33px" height="42.995px" viewBox="0 0 57.33 42.995" enable-background="new 0 0 57.33 42.995" xml:space="preserve">
<g>
	<path fill-rule="evenodd" clip-rule="evenodd" d="M0,11.118c0-0.988-0.003-1.975,0.004-2.962c0.004-0.112,0.04-0.235,0.099-0.332
		c1.048-1.771,2.598-3.013,4.323-4.062c2.163-1.319,4.503-2.207,6.951-2.821c2.804-0.707,5.649-1.041,8.538-0.915
		c2.374,0.103,4.699,0.469,6.868,1.495c0.67,0.317,1.279,0.761,1.905,1.161c0.11,0.072,0.197,0.211,0.25,0.338
		c1.596,3.873,2.76,7.869,3.297,12.031c0.383,2.973,0.414,5.952,0.129,8.935c-0.285,2.994-0.877,5.921-1.896,8.753
		c-0.813,2.253-1.87,4.382-3.387,6.257c-1.172,1.447-2.551,2.64-4.294,3.36c-1.81,0.755-3.664,0.816-5.542,0.313
		c-2.099-0.562-3.891-1.684-5.528-3.074c-2.437-2.068-4.364-4.566-5.989-7.3c-2.63-4.422-4.369-9.171-5.186-14.253
		C0.175,15.751,0.004,13.438,0,11.118z M18.335,34.955c0.818,0.004,1.615-0.123,2.388-0.391c1.651-0.569,2.956-1.618,4.068-2.934
		c1.28-1.52,2.193-3.256,2.919-5.092c0.3-0.751,0.566-1.518,0.841-2.278c0.158-0.442-0.018-0.929-0.411-1.178
		c-0.397-0.252-0.908-0.206-1.244,0.121c-0.097,0.093-0.174,0.209-0.256,0.318c-3.692,5.065-10.397,6.707-16.007,3.912
		c-0.566-0.285-1.096-0.637-1.638-0.964C8.543,26.196,8,26.262,7.663,26.648c-0.331,0.374-0.331,0.94-0.003,1.324
		c0.291,0.348,0.585,0.7,0.877,1.05c1.497,1.792,3.146,3.409,5.188,4.578C15.152,34.42,16.67,34.941,18.335,34.955z M28.791,13.915
		c-0.007-0.534-0.193-0.929-0.54-1.252c-1.412-1.321-3.085-1.896-5.004-1.699c-1.432,0.145-2.666,0.738-3.69,1.752
		c-0.773,0.764-0.606,2.002,0.327,2.522c0.621,0.345,1.337,0.239,1.903-0.292c0.767-0.718,1.668-0.994,2.702-0.816
		c0.647,0.109,1.177,0.433,1.655,0.876c0.501,0.464,1.096,0.561,1.718,0.281C28.467,15.016,28.762,14.516,28.791,13.915z
		 M13.087,15.462c0-0.628-0.354-1.173-0.95-1.442c-1.069-0.488-2.191-0.681-3.355-0.514c-2.245,0.326-3.884,1.513-4.873,3.557
		c-0.424,0.88,0.071,1.899,1.009,2.167c0.743,0.215,1.485-0.13,1.858-0.87C7.251,17.422,8,16.85,9.028,16.657
		c0.644-0.121,1.256-0.005,1.855,0.25C11.951,17.355,13.089,16.599,13.087,15.462z"/>
	<path fill-rule="evenodd" clip-rule="evenodd" d="M30.342,39.134c2.064-3.229,3.264-6.791,4.205-10.446
		c0.371,0.146,0.754,0.34,1.158,0.445c1.268,0.327,2.555,0.556,3.867,0.604c1.092,0.042,2.184,0.057,3.27,0.149
		c0.537,0.044,1.068,0.206,1.586,0.364c0.504,0.158,0.949,0.448,1.301,0.845c0.49,0.55,0.961,1.118,1.43,1.688
		c0.281,0.345,0.625,0.503,1.059,0.408c0.426-0.094,0.689-0.373,0.766-0.799c0.029-0.16,0.025-0.349-0.031-0.496
		c-0.258-0.681-0.51-1.368-0.822-2.026c-0.57-1.192-1.385-2.176-2.582-2.797c-0.891-0.462-1.855-0.654-2.844-0.76
		c-1.211-0.132-2.434-0.2-3.633-0.402c-1.047-0.182-2.068-0.514-3.104-0.774c-0.316-0.082-0.637-0.149-0.918-0.213
		c0.066-1.495,0.178-2.965,0.189-4.441c0.014-1.465-0.072-2.928-0.111-4.398c0.014,0.011,0.049,0.038,0.084,0.063
		c0.6,0.475,1.4,0.485,1.98,0.024c0.576-0.461,0.76-1.242,0.434-1.932c-0.67-1.396-1.721-2.399-3.131-3.037
		c-0.09-0.043-0.197-0.146-0.215-0.241c-0.746-3.287-1.756-6.487-3.094-9.583c-0.01-0.027-0.018-0.06-0.039-0.116
		c0.09-0.036,0.17-0.077,0.258-0.108c1.707-0.641,3.477-0.968,5.287-1.08c4.768-0.298,9.354,0.505,13.738,2.406
		c1.873,0.812,3.625,1.838,5.102,3.268C56.068,6.27,56.516,6.886,57,7.461c0.223,0.262,0.285,0.571,0.297,0.914
		c0.072,2.032,0.023,4.059-0.139,6.086c-0.18,2.283-0.502,4.544-1.062,6.767c-1.277,5.084-3.383,9.787-6.504,14.012
		c-1.568,2.121-3.367,4.024-5.555,5.526c-1.539,1.056-3.193,1.844-5.059,2.123c-2.332,0.352-4.443-0.213-6.348-1.579
		C31.756,40.682,30.795,39.756,30.342,39.134z M49.082,13.693c-1.668,0.028-3.131,0.605-4.346,1.784
		c-0.65,0.631-0.674,1.609-0.066,2.244c0.607,0.633,1.584,0.675,2.225,0.042c1.217-1.207,3.172-1.21,4.396,0.002
		c0.641,0.628,1.625,0.586,2.227-0.044c0.605-0.637,0.576-1.625-0.072-2.252C52.236,14.301,50.781,13.725,49.082,13.693z"/>
</g>
</svg>
