<?xml version="1.0" encoding="utf-8"?>
<!-- Generator: Adobe Illustrator 16.0.4, SVG Export Plug-In . SVG Version: 6.00 Build 0)  -->
<!DOCTYPE svg PUBLIC "-//W3C//DTD SVG 1.1//EN" "http://www.w3.org/Graphics/SVG/1.1/DTD/svg11.dtd">
<svg version="1.1" id="Layer_1" xmlns="http://www.w3.org/2000/svg" xmlns:xlink="http://www.w3.org/1999/xlink" x="0px" y="0px"
	 width="57.33px" height="42.996px" viewBox="0 0 57.33 42.996" enable-background="new 0 0 57.33 42.996" xml:space="preserve">
<path d="M0,11.118c0-0.988-0.003-1.975,0.004-2.962c0.004-0.112,0.04-0.235,0.099-0.332
	c1.048-1.771,2.598-3.013,4.323-4.062c2.163-1.319,4.503-2.207,6.951-2.821c2.804-0.707,5.649-1.041,8.538-0.915
	c2.374,0.103,4.699,0.469,6.868,1.495c0.67,0.317,1.279,0.761,1.905,1.161c0.11,0.072,0.197,0.211,0.25,0.338
	c1.596,3.873,2.76,7.869,3.297,12.031c0.383,2.973,0.414,5.952,0.129,8.935c-0.285,2.994-0.877,5.922-1.896,8.754
	c-0.812,2.252-1.87,4.381-3.387,6.256c-1.172,1.447-2.551,2.641-4.294,3.36c-1.81,0.755-3.664,0.815-5.542,0.313
	c-2.099-0.562-3.891-1.685-5.528-3.074c-2.437-2.068-4.364-4.566-5.989-7.301c-2.63-4.422-4.369-9.17-5.186-14.252
	C0.175,15.751,0.004,13.438,0,11.118z M18.335,34.955c0.818,0.004,1.615-0.123,2.388-0.391c1.651-0.568,2.956-1.618,4.068-2.934
	c1.28-1.521,2.193-3.256,2.919-5.092c0.3-0.752,0.566-1.519,0.841-2.279c0.158-0.441-0.018-0.928-0.411-1.178
	c-0.397-0.252-0.908-0.205-1.244,0.121c-0.097,0.094-0.174,0.209-0.256,0.318c-3.692,5.064-10.397,6.707-16.007,3.912
	c-0.566-0.285-1.096-0.637-1.638-0.965C8.543,26.196,8,26.262,7.663,26.648c-0.331,0.374-0.331,0.939-0.003,1.324
	c0.291,0.348,0.585,0.699,0.877,1.05c1.497,1.792,3.146,3.409,5.188,4.578C15.152,34.419,16.67,34.941,18.335,34.955z
	 M28.791,13.915c-0.007-0.534-0.193-0.929-0.54-1.252c-1.412-1.321-3.085-1.896-5.004-1.699c-1.432,0.145-2.666,0.738-3.69,1.752
	c-0.773,0.764-0.606,2.002,0.327,2.522c0.621,0.345,1.337,0.239,1.903-0.292c0.767-0.718,1.668-0.994,2.702-0.816
	c0.647,0.109,1.177,0.433,1.655,0.876c0.501,0.464,1.096,0.561,1.718,0.281C28.467,15.016,28.762,14.516,28.791,13.915z
	 M13.087,15.462c0-0.628-0.354-1.173-0.95-1.442c-1.069-0.488-2.191-0.681-3.355-0.514c-2.245,0.326-3.884,1.513-4.873,3.557
	c-0.424,0.88,0.071,1.899,1.009,2.167c0.743,0.215,1.485-0.13,1.858-0.87C7.251,17.422,8,16.85,9.028,16.657
	c0.644-0.121,1.256-0.005,1.855,0.25C11.951,17.355,13.089,16.599,13.087,15.462z M30.342,39.134
	c2.063-3.229,3.265-6.791,4.205-10.446c0.371,0.146,0.754,0.34,1.158,0.444c1.269,0.328,2.555,0.557,3.866,0.604
	c1.093,0.042,2.185,0.058,3.271,0.149c0.537,0.044,1.068,0.205,1.587,0.363c0.504,0.158,0.948,0.449,1.301,0.846
	c0.49,0.55,0.961,1.117,1.43,1.688c0.281,0.346,0.625,0.504,1.059,0.408c0.426-0.094,0.689-0.373,0.766-0.799
	c0.029-0.16,0.025-0.35-0.03-0.496c-0.259-0.682-0.511-1.368-0.822-2.025c-0.569-1.193-1.385-2.177-2.582-2.797
	c-0.891-0.463-1.854-0.654-2.844-0.761c-1.211-0.132-2.435-0.2-3.634-0.401c-1.047-0.183-2.067-0.515-3.104-0.774
	c-0.316-0.082-0.637-0.149-0.918-0.214c0.066-1.494,0.178-2.964,0.189-4.44c0.014-1.465-0.072-2.928-0.111-4.398
	c0.014,0.011,0.049,0.038,0.084,0.063c0.6,0.475,1.4,0.485,1.98,0.024c0.576-0.461,0.76-1.242,0.434-1.932
	c-0.67-1.396-1.721-2.399-3.131-3.037c-0.09-0.043-0.197-0.146-0.215-0.241c-0.746-3.287-1.756-6.487-3.094-9.583
	c-0.011-0.027-0.019-0.06-0.039-0.116c0.09-0.036,0.17-0.077,0.258-0.108c1.707-0.641,3.477-0.968,5.287-1.08
	c4.768-0.298,9.354,0.505,13.738,2.406c1.873,0.812,3.625,1.838,5.102,3.268C56.067,6.27,56.517,6.886,57,7.461
	c0.224,0.262,0.285,0.571,0.297,0.914c0.072,2.032,0.022,4.059-0.139,6.086c-0.181,2.283-0.503,4.544-1.062,6.767
	c-1.277,5.084-3.384,9.787-6.505,14.012c-1.567,2.121-3.366,4.024-5.555,5.526c-1.539,1.056-3.192,1.844-5.06,2.123
	c-2.332,0.353-4.442-0.214-6.348-1.579C31.756,40.682,30.795,39.755,30.342,39.134z M49.082,13.693
	c-1.668,0.028-3.131,0.605-4.347,1.784c-0.649,0.631-0.674,1.609-0.065,2.244c0.606,0.633,1.584,0.675,2.226,0.042
	c1.217-1.207,3.172-1.21,4.396,0.002c0.642,0.628,1.625,0.586,2.228-0.044c0.604-0.637,0.576-1.625-0.072-2.252
	C52.235,14.301,50.78,13.725,49.082,13.693z"/>
</svg>
