<?xml version="1.0" encoding="utf-8"?>
<!-- Generator: Adobe Illustrator 19.0.0, SVG Export Plug-In . SVG Version: 6.00 Build 0)  -->
<svg version="1.1" id="Layer_1" xmlns="http://www.w3.org/2000/svg" xmlns:xlink="http://www.w3.org/1999/xlink" x="0px" y="0px"
	 viewBox="0 0 1000 1000" enable-background="new 0 0 1000 1000" xml:space="preserve">
<g id="Page-1">
	<g id="theatre-scene">
		<g id="Group">
			<path id="Shape" fill="#010101" d="M970.1,310.9c-11.6-8.8-27.2-5.6-36.2,4.5c-8.8,1.5-17.5,3.5-26.3,5.2
				c-15.3,2.9-30.8,5.6-46.3,7.3c-35.5,4-71.5,3.4-106.7-2.7c-80.6-14-194-47.5-204.6-144.1c-2.2-19.6-32.4-34.8-42.6-11.6
				c-42.2,95.5-75.2,195.1-90,298.7c-12.5,87.7-18.6,189.2,20,271.7c36.6,78.1,120.1,111.5,201.9,87.1
				c87.7-26.1,145.1-106.1,192.1-179.4C893,552.3,947,449.5,980,340.6c0.8-2.8,1.2-5.5,1-7.9C981.8,324.7,978.1,317,970.1,310.9
				L970.1,310.9z M792.1,624.7c-50.2,78.1-128.4,187.2-236.6,161.7c-106.2-25-105-172.5-98.9-257.4c7-96.9,32.5-192.2,68-282.7
				c38.7,69.9,123.4,103.6,203.3,120.3c45.4,9.4,91.3,12.1,137.3,6.8c19.6-2.3,39-5.6,58.4-9.3c0.2,0,0.4-0.1,0.6-0.1
				C892,455.9,844.6,542.9,792.1,624.7L792.1,624.7z"/>
			<path id="Shape_1_" fill="#010101" d="M681.2,598.6c-13.9,31.3-45.3,61.7-82.6,49.1c-38-12.8-52.8-59.2-51.6-95.1
				c1-29.5-44.8-29.5-45.7,0c-1.9,56.5,27.4,121.4,85.2,139.3c56.2,17.3,111.8-19.7,134.3-70.2C732.7,595,693.2,571.8,681.2,598.6
				L681.2,598.6z"/>
			<path id="Shape_2_" fill="#010101" d="M383.3,251.2c-53.6,16.7-108,26.5-164.4,23.4c-58.9-3.3-116.3-19.5-172.3-37.1
				c-14.2-4.5-29.1,7.6-29,22c0.6,128.5,2.7,263.7,58.2,382.5c50.6,108.5,178.5,202.5,300.6,148.1c26.8-11.9,3.6-51.4-23.1-39.5
				c-53.9,24-116.3,0.4-161.7-31.6c-46.1-32.6-73.9-86.3-91.8-138.6c-31.8-92.9-35.6-192.2-36.3-289.9
				c50.7,15,102.4,26.9,155.3,29.8c60.1,3.3,119.3-7.2,176.5-25C423.5,286.6,411.5,242.4,383.3,251.2L383.3,251.2z"/>
			<path id="Shape_3_" fill="#010101" d="M240.2,556.1c-28.4,15.1-46.6,35.1-55.6,66.4c-8.2,28.3,36,40.5,44.1,12.1
				c5.1-17.6,13.1-26.8,28.8-35.9c23.7-13.7,41.4-13.5,66.1-2.5c26.7,11.8,50-27.7,23.1-39.5C308.8,539.9,277.5,536.2,240.2,556.1
				L240.2,556.1z"/>
		</g>
	</g>
</g>
</svg>
