<svg xmlns:dc="http://purl.org/dc/elements/1.1/" xmlns:cc="http://creativecommons.org/ns#" xmlns:rdf="http://www.w3.org/1999/02/22-rdf-syntax-ns#" xmlns:svg="http://www.w3.org/2000/svg" xmlns="http://www.w3.org/2000/svg" xmlns:sodipodi="http://sodipodi.sourceforge.net/DTD/sodipodi-0.dtd" xmlns:inkscape="http://www.inkscape.org/namespaces/inkscape" width="100" height="100" viewBox="0 0 80 80" version="1.1" id="svg2" inkscape:version="0.48.2 r9819" sodipodi:docname="tack.svg">
  <metadata id="metadata10">
    <rdf:RDF>
      <cc:Work rdf:about="">
        <dc:format>image/svg+xml</dc:format>
        <dc:type rdf:resource="http://purl.org/dc/dcmitype/StillImage"/>
        <dc:title/>
      </cc:Work>
    </rdf:RDF>
  </metadata>
  <defs id="defs8"/>
  <sodipodi:namedview pagecolor="#ffffff" bordercolor="#666666" borderopacity="1" objecttolerance="10" gridtolerance="10" guidetolerance="10" inkscape:pageopacity="0" inkscape:pageshadow="2" inkscape:window-width="1600" inkscape:window-height="853" id="namedview6" showgrid="false" inkscape:zoom="3.655742" inkscape:cx="64.146011" inkscape:cy="73.341641" inkscape:window-x="-4" inkscape:window-y="-4" inkscape:window-maximized="1" inkscape:current-layer="svg2"/>
  <path style="font-size:medium;font-style:normal;font-variant:normal;font-weight:normal;font-stretch:normal;text-indent:0;text-align:start;text-decoration:none;line-height:normal;letter-spacing:normal;word-spacing:normal;text-transform:none;direction:ltr;block-progression:tb;writing-mode:lr-tb;text-anchor:start;baseline-shift:baseline;color:#000000;fill:#000000;fill-opacity:1;fill-rule:nonzero;stroke:none;stroke-width:2.12080002;marker:none;visibility:visible;display:inline;overflow:visible;enable-background:accumulate;font-family:Sans;-inkscape-font-specification:Sans" d="M 45.90625,1 C 44.599586,1.0347415 43.358129,1.1703718 42.117208,1.4491873 41.937621,1.4895378 41.732665,1.504242 41.59375,1.625 41.470698,1.7319687 41.449486,1.9174619 41.375,2.0625 40.783231,3.2147853 40.164388,4.3533264 39.5625,5.5 c -0.238313,0.4546359 -0.360933,0.5793312 -0.53125,0.875 -0.104925,0.1821492 -0.260593,0.3474849 -0.302103,0.5535542 -0.03368,0.1671772 -10e-4,0.3469006 0.0521,0.5089458 0.832221,2.537866 1.861676,4.857717 4.0625,6.90625 -2.752314,5.036917 -6.962319,10.683435 -10.40625,16.125 -5.837594,0.29242 -9.51724,2.158263 -13.71875,6.59375 0,0 -0.144551,0.132852 -0.1875,0.21875 -0.04295,0.0859 -0.0625,0.28125 -0.0625,0.28125 -0.721181,2.969122 0.563986,5.684484 2.625,8.0625 1.890289,2.181032 4.461576,4.206102 7.15625,6.21875 -3.05554,5.845266 -6.381067,12.042711 -9.59375,18.125 l -0.0625,0.09375 -0.03125,0.125 c -0.663697,2.453102 -1.573035,5.061478 -2.125,7.75 l -0.03125,0.1875 0.03125,0.21875 c 0.0406,0.22717 0.181864,0.596314 0.5625,0.84375 0.380636,0.247436 0.772845,0.210726 1,0.15625 L 18.34375,79.28125 18.5625,79 c 1.722821,-2.023839 3.566481,-4.104413 5.53125,-6.5625 l 0.0625,-0.0625 0.03125,-0.09375 c 2.78703,-5.308804 6.193718,-11.816417 9.40625,-17.59375 2.123871,0.860569 4.976006,2.040089 8,2.59375 1.699264,0.311117 3.435392,0.412727 5.0625,0.09375 1.627108,-0.318977 3.101371,-1.362451 4.3125,-2.5 0.05475,-0.05143 0.09347,-0.119321 0.125,-0.1875 0.03183,-0.06883 0.0625,-0.21875 0.0625,-0.21875 C 52.523462,48.93292 52.191923,44.308305 49,39.375 c 2.515997,-5.872626 5.065379,-11.748061 7.875,-17.5625 0.933696,0.155788 2.130228,0.417855 3.5625,0.5 1.745509,0.10011 3.687496,-0.04055 4.90625,-1.5 0.08494,-0.102636 0.08273,-0.124099 0.125,-0.1875 0.764272,-1.455319 1.662695,-2.88009 2.3125,-4.40625 0.05162,-0.12123 0.113167,-0.243771 0.125,-0.375 0.01323,-0.146719 -2.6e-5,-0.30409 -0.0625,-0.4375 -2.189488,-4.675538 -5.580308,-8.9376207 -10.375,-11.5 C 53.872731,1.9844655 49.826242,0.89577557 45.90625,1 z m 0.0625,2.125 c 3.492338,-0.083956 7.198424,0.8918219 10.5,2.65625 4.27825,2.2863824 7.781838,5.873715 9.21875,9.9375 -0.643106,1.261243 -1.334093,2.514881 -2,3.78125 -0.470396,0.526083 -1.644806,0.772393 -3.125,0.6875 -1.503941,-0.08626 -3.100771,-0.456847 -4.1875,-0.59375 L 55.625,19.5 55.28125,20.1875 c -3.040812,6.238965 -5.760831,12.531658 -8.4375,18.78125 L 46.625,39.53125 46.96875,40 c 3.217699,4.655055 3.460506,8.379422 2.1875,13.6875 -0.773281,0.877535 -1.732512,1.394901 -2.90625,1.625 -1.250348,0.245117 -2.71845,0.15541 -4.25,-0.125 -3.063099,-0.560821 -6.318528,-1.939215 -8.5,-2.8125 l -0.84375,-0.34375 -0.46875,0.8125 c -3.341498,5.970453 -6.910784,12.84729 -9.8125,18.375 -0.965586,1.20509 -1.864825,2.177548 -2.78125,3.25 0.353013,-1.213139 0.669984,-2.413075 1,-3.625 0.0087,-0.0318 0.02265,-0.06195 0.03125,-0.09375 3.317366,-6.277404 6.7977,-12.693268 9.9375,-18.71875 L 30.96875,51.21875 30.25,50.6875 c -2.943386,-2.188336 -5.730244,-4.323427 -7.5625,-6.4375 -1.767717,-2.039606 -2.567213,-3.911665 -2.15625,-5.96875 4.012759,-4.169261 6.83516,-5.58082 12.5625,-5.75 l 0.5625,0 0.3125,-0.5 c 3.536373,-5.648721 8.187187,-11.749351 11.125,-17.3125 l 0.40625,-0.75 -0.6875,-0.5625 C 42.494613,11.544357 41.735762,9.7954045 40.96875,7.21875 41.115643,6.9643416 41.343851,6.6786574 41.4375,6.5 41.957542,5.5092542 42.478411,4.4934498 43,3.5 43.957477,3.2897716 44.954429,3.1493843 45.96875,3.125 z" id="path4253" inkscape:connector-curvature="0" sodipodi:nodetypes="saaacaaacccacscccccccscccccccssaacccsccaaassssccscccccccssccccccccccsccccccccccs"/>
</svg>