<?xml version="1.0" encoding="utf-8"?>
<!-- Generator: Adobe Illustrator 16.0.4, SVG Export Plug-In . SVG Version: 6.00 Build 0)  -->
<!DOCTYPE svg PUBLIC "-//W3C//DTD SVG 1.1//EN" "http://www.w3.org/Graphics/SVG/1.1/DTD/svg11.dtd">
<svg version="1.1"
	 id="svg2" xmlns:inkscape="http://www.inkscape.org/namespaces/inkscape" xmlns:svg="http://www.w3.org/2000/svg" xmlns:rdf="http://www.w3.org/1999/02/22-rdf-syntax-ns#" xmlns:sodipodi="http://sodipodi.sourceforge.net/DTD/sodipodi-0.dtd" xmlns:cc="http://creativecommons.org/ns#" xmlns:dc="http://purl.org/dc/elements/1.1/" inkscape:version="0.48.2 r9819" sodipodi:docname="tack.svg"
	 xmlns="http://www.w3.org/2000/svg" xmlns:xlink="http://www.w3.org/1999/xlink" x="0px" y="0px" width="100px" height="100px"
	 viewBox="0 0 100 100" enable-background="new 0 0 100 100" xml:space="preserve">
<path id="path4253" sodipodi:nodetypes="saaacaaacccacscccccccscccccccssaacccsccaaassssccscccccccssccccccccccsccccccccccs" inkscape:connector-curvature="0" d="
	M57.383,1.25c-1.633,0.043-3.186,0.213-4.736,0.562c-0.225,0.05-0.479,0.069-0.653,0.22c-0.154,0.134-0.181,0.366-0.272,0.547
	c-0.74,1.44-1.514,2.863-2.267,4.297C49.156,7.444,49.003,7.6,48.79,7.97c-0.131,0.229-0.326,0.436-0.377,0.692
	c-0.042,0.209-0.001,0.434,0.065,0.636c1.04,3.172,2.327,6.072,5.079,8.633c-3.44,6.296-8.704,13.354-13.009,20.156
	c-7.297,0.366-11.896,2.698-17.148,8.242c0,0-0.181,0.166-0.234,0.273s-0.078,0.352-0.078,0.352
	c-0.901,3.711,0.705,7.104,3.281,10.078c2.363,2.727,5.577,5.258,8.945,7.772c-3.819,7.307-7.977,15.053-11.992,22.656l-0.078,0.117
	l-0.039,0.156c-0.83,3.065-1.966,6.326-2.656,9.688l-0.039,0.234l0.039,0.273c0.051,0.283,0.228,0.744,0.703,1.055
	c0.475,0.31,0.966,0.264,1.25,0.195l0.43-0.078l0.273-0.353c2.153-2.529,4.458-5.131,6.914-8.203l0.078-0.078l0.039-0.116
	c3.484-6.637,7.742-14.771,11.758-21.992c2.655,1.076,6.22,2.551,10,3.242c2.124,0.389,4.295,0.516,6.328,0.116
	s3.877-1.702,5.391-3.125c0.068-0.063,0.117-0.149,0.156-0.233c0.039-0.086,0.078-0.273,0.078-0.273
	c1.709-6.92,1.295-12.701-2.695-18.867c3.145-7.341,6.332-14.685,9.844-21.953c1.168,0.195,2.662,0.522,4.453,0.625
	c2.182,0.125,4.609-0.051,6.133-1.875c0.105-0.128,0.104-0.155,0.156-0.234c0.955-1.819,2.078-3.6,2.891-5.508
	c0.064-0.151,0.143-0.305,0.156-0.469c0.018-0.184,0-0.38-0.078-0.547C82.07,13.414,77.831,8.086,71.838,4.883
	C67.341,2.48,62.283,1.12,57.383,1.25z M57.461,3.906c4.365-0.105,8.998,1.115,13.125,3.32c5.348,2.858,9.729,7.342,11.523,12.422
	c-0.805,1.577-1.668,3.144-2.5,4.727c-0.588,0.658-2.058,0.965-3.906,0.859c-1.88-0.108-3.876-0.571-5.234-0.742l-0.938-0.117
	l-0.43,0.859C65.3,33.033,61.9,40.899,58.555,48.711l-0.273,0.703L58.711,50c4.021,5.818,4.326,10.475,2.734,17.109
	c-0.967,1.097-2.166,1.744-3.633,2.031c-1.562,0.307-3.398,0.193-5.312-0.156c-3.829-0.701-7.898-2.424-10.625-3.517l-1.055-0.43
	l-0.586,1.017c-4.177,7.463-8.639,16.059-12.266,22.969c-1.207,1.506-2.331,2.722-3.477,4.062c0.441-1.517,0.837-3.017,1.25-4.53
	c0.011-0.039,0.028-0.078,0.039-0.117c4.146-7.848,8.497-15.867,12.422-23.398l0.508-1.016l-0.898-0.664
	c-3.679-2.735-7.163-5.404-9.453-8.047c-2.209-2.549-3.209-4.891-2.695-7.461c5.016-5.211,8.544-6.976,15.703-7.188h0.703
	l0.391-0.625c4.42-7.061,10.234-14.687,13.906-21.641l0.508-0.938l-0.859-0.703c-2.896-2.327-3.846-4.514-4.805-7.734
	c0.184-0.318,0.469-0.675,0.586-0.898c0.65-1.238,1.301-2.508,1.953-3.75C54.947,4.112,56.193,3.937,57.461,3.906z"/>
</svg>
