<?xml version="1.0" encoding="utf-8"?>
<!-- Generator: Adobe Illustrator 16.0.4, SVG Export Plug-In . SVG Version: 6.00 Build 0)  -->
<!DOCTYPE svg PUBLIC "-//W3C//DTD SVG 1.1//EN" "http://www.w3.org/Graphics/SVG/1.1/DTD/svg11.dtd">
<svg version="1.1" id="Layer_1" xmlns="http://www.w3.org/2000/svg" xmlns:xlink="http://www.w3.org/1999/xlink" x="0px" y="0px"
	 width="100px" height="100px" viewBox="0 0 100 100" enable-background="new 0 0 100 100" xml:space="preserve">
<path d="M60.439,25.432c-0.407-0.407-0.957-0.633-1.532-0.633c-0.573,0-1.123,0.228-1.53,0.633L25.433,57.377
	c-0.407,0.408-0.635,0.955-0.635,1.53c0,0.571,0.23,1.123,0.635,1.528l14.131,14.131c0.421,0.424,0.975,0.632,1.53,0.632
	c0.552,0,1.106-0.208,1.53-0.632l31.944-31.944c0.847-0.847,0.847-2.215,0-3.059L60.439,25.432z M41.093,69.977L30.025,58.907
	l28.882-28.885l11.071,11.07L41.093,69.977z M96.615,36.404L85.309,25.101c-0.844-0.847-2.213-0.847-3.059,0
	c-0.982,0.981-2.287,1.524-3.676,1.524s-2.692-0.542-3.676-1.525c-0.98-0.983-1.521-2.288-1.521-3.676
	c0-1.388,0.538-2.693,1.521-3.674c0.406-0.407,0.635-0.958,0.635-1.53c0-0.575-0.229-1.124-0.635-1.53L63.596,3.385
	c-0.847-0.847-2.217-0.847-3.061,0L3.388,60.537c-0.408,0.404-0.635,0.957-0.635,1.525c0,0.576,0.227,1.129,0.635,1.533L14.69,74.9
	c0.846,0.846,2.215,0.846,3.061,0c0.981-0.982,2.288-1.523,3.676-1.523c1.388,0,2.694,0.538,3.674,1.523
	c2.027,2.025,2.027,5.324,0,7.352c-0.844,0.844-0.844,2.213,0.003,3.059L36.41,96.616c0.403,0.407,0.954,0.634,1.527,0.634
	c0.573,0,1.125-0.229,1.53-0.634l57.149-57.15C97.457,38.618,97.457,37.248,96.615,36.404z M37.935,92.023l-8.419-8.42
	c2.284-3.674,1.834-8.578-1.354-11.766c-1.796-1.799-4.188-2.791-6.733-2.791c-1.805,0-3.535,0.499-5.032,1.434L7.98,62.062
	L62.066,7.977l8.414,8.416c-0.932,1.498-1.431,3.226-1.431,5.032c0,2.545,0.988,4.938,2.791,6.736
	c1.796,1.798,4.188,2.791,6.732,2.791c1.807,0,3.534-0.502,5.032-1.435l8.416,8.417L37.935,92.023z"/>
</svg>
