<?xml version="1.0" encoding="utf-8"?>
<!-- Generator: Adobe Illustrator 19.0.0, SVG Export Plug-In . SVG Version: 6.00 Build 0)  -->
<svg version="1.1" id="Layer_1" xmlns="http://www.w3.org/2000/svg" xmlns:xlink="http://www.w3.org/1999/xlink" x="0px" y="0px"
	 viewBox="0 0 1000 1000" enable-background="new 0 0 1000 1000" xml:space="preserve">
<g id="Page-1">
	<g id="times-big">
		<path id="Shape" fill="#010101" d="M576,500l382.9-382.9c21.2-21.2,21.2-55.5,0-76.6
			c-21.2-21.2-55.5-21.2-76.6,0l-382.9,383L116.5,40.6c-21.2-21.2-55.5-21.2-76.6,0s-21.2,55.5,0,76.6l383,382.8L40,883
			c-21.2,21.2-21.2,55.5,0,76.6c21.2,21.2,55.5,21.2,76.6,0l382.9-382.9l382.9,382.9c21.2,21.2,55.5,21.2,76.6,0
			c21.2-21.2,21.2-55.5,0-76.6L576,500L576,500z"/>
	</g>
</g>
</svg>
