<?xml version="1.0" encoding="utf-8"?>
<!-- Generator: Adobe Illustrator 16.0.4, SVG Export Plug-In . SVG Version: 6.00 Build 0)  -->
<!DOCTYPE svg PUBLIC "-//W3C//DTD SVG 1.1//EN" "http://www.w3.org/Graphics/SVG/1.1/DTD/svg11.dtd">
<svg version="1.1" id="Layer_1" xmlns="http://www.w3.org/2000/svg" xmlns:xlink="http://www.w3.org/1999/xlink" x="0px" y="0px"
	 width="50px" height="50px" viewBox="0 0 50 50" enable-background="new 0 0 50 50" xml:space="preserve">
<g id="bin">
	<path d="M45.459,8.745h-8.613v-3.93c0-2.598-2.117-4.712-4.713-4.712h-13.86c-2.592,0-4.706,2.114-4.706,4.83v3.812H4.535
		c-1.221,0-2.211,0.99-2.211,2.211s0.99,2.215,2.211,2.215h2.73v32.014c0,2.597,2.115,4.713,4.711,4.713h26.038
		c2.594,0,4.713-2.116,4.713-4.713V13.171h2.736c1.221,0,2.213-0.992,2.213-2.215C47.674,9.736,46.678,8.745,45.459,8.745z
		 M16.702,4.815c0-0.864,0.712-1.569,1.571-1.569h13.86c0.865,0,1.572,0.705,1.572,1.687v3.812H16.702V4.815z M39.58,45.185
		c0,0.867-0.705,1.57-1.57,1.57H11.975c-0.869,0-1.572-0.703-1.572-1.57V13.171h29.179v32.014H39.58z"/>
	<path d="M16.702,40.661c0.857,0,1.547-0.688,1.547-1.548V18.219c0-0.855-0.691-1.549-1.547-1.549c-0.855,0-1.549,0.694-1.549,1.549
		v20.895C15.153,39.974,15.844,40.661,16.702,40.661z"/>
	<path d="M33.723,40.661c0.859,0,1.553-0.688,1.553-1.548V18.219c0-0.855-0.693-1.549-1.553-1.549c-0.85,0-1.541,0.694-1.541,1.549
		v20.895C32.174,39.974,32.869,40.661,33.723,40.661z"/>
	<path d="M25.206,40.533c0.853,0,1.548-0.693,1.548-1.548V18.092c0-0.855-0.695-1.55-1.548-1.55c-0.855,0-1.553,0.695-1.553,1.55
		v20.893C23.654,39.844,24.348,40.533,25.206,40.533z"/>
</g>
</svg>
