<?xml version="1.0" encoding="utf-8"?>
<!-- Generator: Adobe Illustrator 16.0.4, SVG Export Plug-In . SVG Version: 6.00 Build 0)  -->
<!DOCTYPE svg PUBLIC "-//W3C//DTD SVG 1.1//EN" "http://www.w3.org/Graphics/SVG/1.1/DTD/svg11.dtd">
<svg version="1.1" id="Your_Icon" xmlns="http://www.w3.org/2000/svg" xmlns:xlink="http://www.w3.org/1999/xlink" x="0px" y="0px"
	 width="100px" height="100px" viewBox="0 0 100 100" enable-background="new 0 0 100 100" xml:space="preserve">
<path d="M98.987,19.487c-0.431-0.547-1.116-0.822-1.804-0.723c-0.409,0.058-0.927,0.16-1.594,0.306
	c-0.622,0.135-1.382,0.314-2.228,0.525c0.323-0.743,0.597-1.515,0.841-2.322c0.397-1.325,0.729-2.734,1.072-4.229
	c0.173-0.749-0.109-1.529-0.724-1.995c-0.616-0.465-1.443-0.522-2.118-0.151c-3.038,1.675-5.307,2.738-7.271,3.433
	c-1.654,0.584-3.105,0.918-4.702,1.145c-1.872-1.765-3.971-3.122-6.224-4.05c-2.544-1.054-5.267-1.568-8.05-1.568
	c-3.329,0.001-6.741,0.731-10.077,2.137l0,0c-1.62,0.683-3.127,1.698-4.491,2.936c-2.042,1.861-3.765,4.233-4.997,6.876
	c-1.232,2.644-1.975,5.562-1.976,8.521c0,0.311,0.011,0.624,0.026,0.933c-0.052-0.014-0.1-0.026-0.151-0.04
	c-3.54-0.938-8.993-2.796-14.404-5.209c-2.219-0.986-5.288-2.955-8.281-5.491c-3.002-2.532-5.955-5.641-8.09-8.875
	c-0.322-0.489-0.846-0.805-1.428-0.864c-0.583-0.06-1.16,0.146-1.574,0.559c-0.929,0.924-1.714,1.781-2.388,2.634
	c-1.008,1.278-1.756,2.571-2.261,3.979c-0.508,1.408-0.772,2.894-0.934,4.595c-0.11,1.147-0.183,2.382-0.183,3.657
	c0.005,2.812,0.351,5.827,1.557,8.562c-0.919,0.11-1.65,0.855-1.714,1.793c-0.051,0.734-0.076,1.452-0.076,2.157
	c-0.003,6.344,2.02,11.508,5.195,15.092c0.31,0.353,0.632,0.68,0.963,1.003c-0.001,0.015-0.004,0.026-0.004,0.045
	c-0.003,0.127-0.005,0.251-0.005,0.378c-0.001,2.421,0.625,4.693,1.687,6.703c1.593,3.021,4.123,5.469,7.039,7.256
	c1.076,0.658,2.207,1.226,3.371,1.7c-4.905,1.566-8.949,1.926-12.282,1.929c-1.479,0-2.822-0.073-4.049-0.146
	c-1.227-0.075-2.338-0.156-3.382-0.156c-0.249,0-0.493,0.006-0.734,0.016c-0.586,0.027-1.122,0.312-1.471,0.778
	c-0.351,0.47-0.472,1.063-0.334,1.633c0.577,2.349,1.972,4.485,3.899,6.373c2.903,2.827,7.041,5.159,12.013,6.825
	c4.97,1.659,10.781,2.642,17.018,2.642c9.094,0,19.104-2.093,28.65-7.284c8.723-4.756,15.979-12.541,20.343-21.222
	c1.507-3.002,3.151-6.881,4.436-11.004c1.282-4.123,2.213-8.473,2.216-12.492c0-1.363-0.112-2.689-0.364-3.958
	c1.104-0.794,2.091-1.567,2.982-2.349c1.767-1.55,3.161-3.153,4.32-4.952c1.161-1.802,2.09-3.78,3.015-6.115
	C99.527,20.766,99.421,20.035,98.987,19.487z M90.763,28.208c-1.28,1.34-2.91,2.665-5.123,4.178
	c-0.699,0.479-1.012,1.357-0.767,2.171c0.363,1.21,0.541,2.647,0.541,4.231c0.005,3.406-0.829,7.456-2.037,11.333
	c-1.208,3.879-2.788,7.598-4.2,10.412C75.188,68.5,68.402,75.765,60.459,80.078c-8.922,4.852-18.289,6.809-26.789,6.809
	c-7.769,0.005-14.808-1.645-20.015-4.142c-2.604-1.246-4.747-2.699-6.292-4.215c-0.684-0.665-1.239-1.34-1.687-2.01
	c0.242,0.017,0.487,0.03,0.745,0.046c1.247,0.077,2.681,0.155,4.287,0.155c4.912,0.004,11.431-0.753,19.458-4.437
	c0.802-0.368,1.256-1.224,1.109-2.093c-0.145-0.87-0.851-1.532-1.73-1.619c-1.773-0.177-3.615-0.657-5.362-1.4
	c-2.621-1.113-5.017-2.82-6.706-4.881c-0.846-1.029-1.517-2.146-1.976-3.326c-0.086-0.217-0.155-0.438-0.225-0.66
	c0.491,0.195,0.984,0.375,1.479,0.516c1.587,0.459,3.042,0.634,4.853,0.646c0.015,0.004-0.103,0.019-0.103,0.019v0.344
	c0,0,0.311,0,0.317,0c1.071,0,1.951-1.033,1.964-2.104c0.015-1.069-0.84-2.044-1.912-2.064c-3.255-0.061-6.523-1.575-9.015-4.39
	c-2.165-2.451-3.751-5.949-4.128-10.456c0.607,0.106,1.244,0.155,1.972,0.222c0.958,0.084,2.07,0.164,3.408,0.313
	c1.001,0.111,1.921-0.559,2.127-1.543s-0.372-1.966-1.333-2.264c-1.234-0.385-2.17-0.946-2.934-1.65
	c-0.571-0.527-1.046-1.143-1.445-1.841c-0.598-1.045-1.018-2.284-1.28-3.628c-0.265-1.344-0.372-2.788-0.372-4.218
	c0-1.123,0.065-2.238,0.167-3.287c0.097-1.012,0.227-1.859,0.408-2.6c0.277-1.112,0.646-1.985,1.262-2.946
	c0.32-0.499,0.718-1.022,1.205-1.589c2.177,2.864,4.769,5.489,7.401,7.714c3.24,2.732,6.501,4.859,9.21,6.074
	c3.747,1.669,7.479,3.072,10.67,4.119c1.595,0.525,3.055,0.959,4.32,1.296c1.268,0.336,2.333,0.573,3.193,0.703
	c0.646,0.097,1.292-0.132,1.73-0.614c0.44-0.482,0.608-1.148,0.453-1.78c-0.236-0.962-0.351-1.958-0.351-2.971
	c-0.006-3.061,1.058-6.293,2.764-8.98c0.849-1.342,1.853-2.548,2.934-3.533c1.081-0.984,2.241-1.747,3.384-2.228l0,0
	c2.904-1.223,5.805-1.83,8.561-1.83c2.306,0,4.51,0.422,6.559,1.269c2.048,0.847,3.941,2.119,5.624,3.859
	c0.027,0.028,0.059,0.048,0.086,0.074c0.053,0.048,0.104,0.094,0.162,0.136c0.049,0.037,0.104,0.068,0.155,0.1
	c0.055,0.033,0.109,0.064,0.166,0.093c0.06,0.028,0.116,0.048,0.177,0.071c0.058,0.021,0.118,0.041,0.18,0.057
	c0.062,0.017,0.125,0.025,0.186,0.035c0.061,0.008,0.121,0.017,0.185,0.02c0.069,0.003,0.138,0.001,0.208-0.001
	c0.039-0.003,0.076,0.002,0.117-0.003c2.177-0.246,4.219-0.662,6.475-1.462c1.227-0.435,2.518-0.982,3.942-1.666
	c-0.251,0.816-0.52,1.543-0.822,2.156c-0.375,0.76-0.786,1.354-1.274,1.835c-0.491,0.479-1.062,0.863-1.852,1.175
	c-0.976,0.383-1.472,1.462-1.132,2.451c0.342,0.99,1.399,1.532,2.4,1.232c2.405-0.721,4.617-1.32,6.378-1.763
	c-0.07,0.132-0.136,0.272-0.203,0.401C93.007,25.507,92.048,26.867,90.763,28.208z"/>
</svg>
