<?xml version="1.0" encoding="utf-8"?>
<!-- Generator: Adobe Illustrator 19.0.0, SVG Export Plug-In . SVG Version: 6.00 Build 0)  -->
<svg version="1.1" id="Layer_1" xmlns="http://www.w3.org/2000/svg" xmlns:xlink="http://www.w3.org/1999/xlink" x="0px" y="0px"
	 viewBox="0 0 1000 1000" enable-background="new 0 0 1000 1000" xml:space="preserve">
<g id="Page-1">
	<g id="user">
		<path id="Shape" fill="#010101" d="M505.1,88.3c24.2,0,49.7,5.9,74.7,22.3L596,127l26.3,4.9
			c13.2,8.2,21.6,35.5,21.6,35.5c7,30.2,7.6,32.7,7,63.6c-0.2,12-6.6,67.1-4.9,84c1.4,14,4.6,15.1,9.7,26.6
			c8.9,20.1,5.9,47.6,2.5,67.8c-1.9,11.1-5.7,26.8-11.8,35.8c-6.6,10-19.8,10-25.7,21.6c-8.4,16.7-3.6,40.1-9,58.1
			c-6,20.4-21.3,21.8-22.6,48.6c7.5,1.1,15,2.4,22.6,3.5c7.5,17.3,21.3,52,35.4,62.5c11.8,3.5,23.6,7,35.4,10.5
			c41.3,18.3,87.3,40.1,128.7,59c37.6,17.2,82.9,23.3,96.5,65.9c0,28.9,2.5,97.4,1.9,135.4H88.3c-0.7-38,1.9-106.5,1.9-135.4
			c13.6-42.6,58.7-48.7,96.5-65.9c41.4-18.8,87.3-40.8,128.7-59c11.7-3.5,23.6-7,35.4-10.5c14.1-10.5,27.8-45.3,35.4-62.5l16.7-4.4
			c-3.7-22.8-16.8-24.6-22.3-40.8c-2.1-24.3-4.2-48.6-6.5-72.9c0,0.1-0.2,0.2-0.6,0.2c-2.7,0-15.1-3.4-16.8-4.6
			c-21.8-14.7-22.3-74.8-24.4-99.7c-1-11.5,13.7-20.7,9.6-41.6c-23.9-122.4,10.3-179.8,64.6-198.7
			C429.7,103.9,465.6,88.3,505.1,88.3L505.1,88.3z M505.1,20.4L505.1,20.4c-52.6,0-96.7,18.7-123.9,30.7
			c-46.9,17.2-81.4,51.5-99.7,99.2c-17.2,44.6-19.9,98.7-8.2,165.2c-4.5,9.6-10.3,25.2-8.7,44.8c0.2,3,0.5,6.6,0.7,10.6
			c2.5,40.3,6.2,99.6,44.6,132.9c1,11.2,2,22.4,3,33.8c0.5,5.4,1.6,10.7,3.4,15.8c0.9,2.6,1.9,5.1,2.9,7.5c-2.5,5.6-5.9,13.3-9,19.6
			c-4.6,1.4-9.2,2.7-13.7,4c-2.9,0.9-5.6,1.9-8.4,3.1c-25.6,11.3-52.9,24.1-79.3,36.3c-17,7.9-33.8,15.7-50,23.1
			c-6.2,2.9-13.6,5.6-21.4,8.5c-36.2,13.6-90.9,34-111.6,98.6c-2.1,6.7-3.2,13.6-3.2,20.7c0,10.6-0.4,28.2-0.7,46.7
			c-0.7,30.7-1.5,65.4-1,89.9c0.6,37,30.9,66.7,67.9,66.7H910c37,0,67.2-29.7,67.9-66.7c0.5-24.4-0.4-59.1-1-89.9
			c-0.4-18.6-0.7-36.2-0.7-46.7c0-7-1.1-14-3.2-20.7c-20.6-64.6-75.3-85-111.6-98.6c-7.9-2.9-15.2-5.7-21.4-8.5
			c-16.2-7.4-33-15.2-50.1-23.1c-26.4-12.2-53.6-24.9-79.2-36.3c-2.7-1.2-5.5-2.2-8.4-3.1c-4.6-1.4-9.1-2.7-13.7-4
			c-4.2-8.5-9-19.4-11.1-24.6c-0.7-1.7-1.5-3.4-2.1-5c0.9-2.2,1.6-4.6,2.4-7c4.4-15,5.2-28.5,5.7-39.8c6.6-5.1,14-12,20.3-21.6
			c13-19.6,19.2-44.5,22.2-62.1c4.7-27.9,9.1-69.4-7.4-106.6c-1.5-3.5-3-6.4-4.2-8.7c0.2-11,2.2-34.7,3.2-45.4
			c1.2-14,1.9-21.4,2-27.3c0.7-36.3-0.5-44.5-8.4-78.9l-0.2-1.4c-0.4-1.6-0.7-3.2-1.2-4.9c-6-19.2-20.4-54.4-50.6-73.1
			c-7.2-4.5-15.2-7.6-23.6-9.1l-5.6-1l-1.4-1.4c-3.2-3.2-6.7-6.1-10.5-8.6C583.7,31.7,545.9,20.4,505.1,20.4L505.1,20.4L505.1,20.4z
			"/>
	</g>
</g>
</svg>
