<?xml version="1.0" encoding="utf-8"?>
<!-- Generator: Adobe Illustrator 16.0.4, SVG Export Plug-In . SVG Version: 6.00 Build 0)  -->
<!DOCTYPE svg PUBLIC "-//W3C//DTD SVG 1.1//EN" "http://www.w3.org/Graphics/SVG/1.1/DTD/svg11.dtd">
<svg version="1.1" id="Layer_1" xmlns="http://www.w3.org/2000/svg" xmlns:xlink="http://www.w3.org/1999/xlink" x="0px" y="0px"
	 width="100px" height="100px" viewBox="0 0 100 100" enable-background="new 0 0 100 100" xml:space="preserve">
<path d="M50,99.352c-19.333,0-38.665-5.465-38.665-17.439c0-13.449,6.934-25.637,18.072-32.785
	c-4.413-5.043-6.935-11.557-6.935-18.281C22.472,15.716,34.87,3.319,50,3.319c15.13,0,27.526,12.397,27.526,27.528
	c0,6.724-2.521,13.238-6.934,18.281c11.136,7.148,18.072,19.335,18.072,32.785C88.665,94.1,69.332,99.352,50,99.352z M50,8.364
	c-12.398,0-22.485,10.087-22.485,22.485c0,6.514,2.732,12.608,7.775,17.021c0.63,0.63,1.051,1.471,0.84,2.311
	c0,0.841-0.63,1.472-1.261,1.892c-11.347,5.674-18.281,17.23-18.281,29.84c0,7.141,14.499,12.395,33.621,12.395
	s33.62-5.254,33.62-12.395c0-12.609-6.934-24.166-18.279-29.84c-0.842-0.42-1.263-1.051-1.263-1.892
	c0-0.839,0.212-1.681,0.842-2.311c4.832-4.203,7.775-10.507,7.775-17.021C72.484,18.451,62.398,8.364,50,8.364z"/>
</svg>
