<?xml version="1.0" encoding="utf-8"?>
<!-- Generator: Adobe Illustrator 19.0.0, SVG Export Plug-In . SVG Version: 6.00 Build 0)  -->
<svg version="1.1" id="Layer_1" xmlns="http://www.w3.org/2000/svg" xmlns:xlink="http://www.w3.org/1999/xlink" x="0px" y="0px"
	 viewBox="0 0 100 100" enable-background="new 0 0 100 100" xml:space="preserve">
<g id="Page-1">
	<g id="walk">
		<circle id="Oval" fill="#010101" cx="55.7" cy="9.1" r="8.5">
		</circle>
		<path id="Shape" fill="#010101" d="M78.8,45.6l-12.2-5.4l-7.8-16c-0.2-0.5-0.5-1.1-0.8-1.6l-0.2-0.4
			c-0.5-1-1.2-1.7-2-2.1c-0.9-0.7-2-1.2-3.2-1.5c-0.7-0.2-1.4-0.2-2.1-0.2c-0.6,0-1.3,0.1-1.9,0.3c-1.1,0.3-2.1,0.8-3,1.5L27.4,30
			c-0.3,0.2-0.6,0.4-0.9,0.6c-0.9,0.5-1.6,1.3-1.8,2.4l-2.9,15.1c-0.4,1.9,0.9,3.7,2.8,4.1c1.9,0.4,3.7-0.9,4.1-2.8l2.7-14.2
			l9.8-5.2l-4.3,19.6c-0.1,0.6-0.2,1.2-0.2,1.7l-3.3,20.4c-0.1,0.1-0.2,0.2-0.2,0.3L20.3,91.9c-1.6,2.5-1.3,5.5,0.7,6.8
			c2,1.3,4.9,0.3,6.5-2.2l12.9-19.8c0.4-0.6,0.7-1.3,0.9-2c0.2-0.3,0.3-0.7,0.3-1.1l2.4-15.2c0.3,0.1,0.6,0.2,0.9,0.2
			c1,0.2,1.9,0.6,2.7,0.9l13.4,16l4.2,19.8c0.5,2.5,2.8,4.2,5.2,3.7c2.3-0.5,3.8-2.9,3.3-5.4l-4.2-20.1c-0.2-0.8-0.5-1.5-1-2.1
			c-0.2-0.3-0.3-0.5-0.6-0.8l-14-16.7l3.8-17.3l3.3,6.8c0.1,0.2,0.2,0.4,0.3,0.6c0.2,0.9,0.8,1.8,1.7,2.2L76,52
			c1.6,0.7,3.6-0.1,4.3-1.9C81.1,48.4,80.5,46.4,78.8,45.6L78.8,45.6z"/>
	</g>
</g>
</svg>
