<?xml version="1.0" encoding="utf-8"?>
<!-- Generator: Adobe Illustrator 16.0.4, SVG Export Plug-In . SVG Version: 6.00 Build 0)  -->
<!DOCTYPE svg PUBLIC "-//W3C//DTD SVG 1.1//EN" "http://www.w3.org/Graphics/SVG/1.1/DTD/svg11.dtd">
<svg version="1.1" id="Layer_1" xmlns:sketch="http://www.bohemiancoding.com/sketch/ns"
	 xmlns="http://www.w3.org/2000/svg" xmlns:xlink="http://www.w3.org/1999/xlink" x="0px" y="0px" width="50px" height="50px"
	 viewBox="0 0 50 50" enable-background="new 0 0 50 50" xml:space="preserve">
<title>yoga-bien-etre-sante</title>
<desc>Created with Sketch.</desc>
<path id="Page-1" sketch:type="MSPage" d="M24.861,0C11.153,0,0,11.152,0,24.86c0,13.71,11.153,24.863,24.861,24.863
	c13.708,0,24.862-11.152,24.862-24.862C49.723,11.152,38.57,0,24.861,0L24.861,0z M21.983,36.706c0-2.263,1.833-4.097,4.096-4.097
	c2.262,0,4.096,1.834,4.096,4.097s-1.834,4.097-4.096,4.097C23.816,40.803,21.983,38.969,21.983,36.706L21.983,36.706z M1.9,24.861
	c0-12.66,10.3-22.962,22.961-22.962c0.216,0,0.429,0.012,0.644,0.017c3.843,1.05,11.312,3.832,11.312,11.211
	c0,16.826-22.693,7.749-22.693,23.689c0,5.082,3.058,8.927,6.687,10.641C10.076,45.536,1.9,36.141,1.9,24.861z M26.08,17.499
	c2.262,0,4.096-1.834,4.096-4.096s-1.834-4.096-4.096-4.096c-2.262,0-4.096,1.833-4.096,4.096S23.818,17.499,26.08,17.499z"/>
</svg>
