<?xml version="1.0" encoding="utf-8"?>
<!-- Generator: Adobe Illustrator 19.0.0, SVG Export Plug-In . SVG Version: 6.00 Build 0)  -->
<svg version="1.1" id="Layer_1" xmlns="http://www.w3.org/2000/svg" xmlns:xlink="http://www.w3.org/1999/xlink" x="0px" y="0px"
	 viewBox="0 0 1000 1000" enable-background="new 0 0 1000 1000" xml:space="preserve">
<g id="Page-1">
	<g id="yoga-bien-etre-sante">
		<g id="Group">
			<path id="Shape" fill="#010101" d="M856.7,733.6c-99.5-60.1-226.5-16.6-319.3,35.6c-2.2-3-4.9-5.7-8.7-7.9
				c-94.1-58.9-235.4-111.2-344.4-64.3c-93.4,40.2-126.6,157.5-39.8,224c100.1,76.8,236.2,13.7,329.6-42.3
				c9.9-5.9,19.8-12,29.7-18.2c105.8,30.7,209.4,123.3,324.2,75.3C912.1,900.9,942.3,785.5,856.7,733.6L856.7,733.6z M173.2,865.5
				c-28.7-28.9-23.3-67.2,5.7-93.8c28.3-26.1,69.4-31.4,106.4-29.8c68.5,3,135.8,27.5,195,61.6c-36.1,22.4-72.2,45-111,62.6
				C311.9,892.2,224.3,917.1,173.2,865.5L173.2,865.5z M818.8,871.6c-31.1,22.5-73.5,17.8-108.5,8.5C661.1,867,617,841,570.6,820.6
				c23.5-13.2,47.6-25.2,73-34.4c52.8-19.2,151.8-40.5,195.2,10.6C860.1,821.7,841.6,855.1,818.8,871.6L818.8,871.6z"/>
			<path id="Shape_1_" fill="#010101" d="M375.6,673.9c35.5,16.1,66.7-36.5,30.8-52.8c-51.3-23.3-92.8-75.2-77.1-134.6
				c8.2-30.7,29.9-56.9,48.4-82c23.5-32,47-64.1,70.5-96.2c23.3-31.8-29.7-62.2-52.8-30.8C346.7,343.7,266,421.3,264.8,509.1
				C264.2,581,311.6,644.9,375.6,673.9L375.6,673.9z"/>
			<path id="Shape_2_" fill="#010101" d="M557.2,324.5c54.4,29.2,105.8,81.9,120,143.7c6.4,27.8,3,55.5-17.6,76.8
				c-20.5,21.2-76.8,43.8-111.1,33.4c-2-20.9,2.2-49.7,3.6-66.6c3.2-39.2-58-39-61.1,0c-2.1,26.5-11.3,79,4.1,103
				c16.5,25.9,58.9,24.2,85.2,23.1c61.6-2.6,125.3-32.2,150.4-91.5c45.3-106.9-53.7-227-142.6-274.8
				C553.3,253.2,522.4,305.9,557.2,324.5L557.2,324.5z"/>
			<path id="Shape_3_" fill="#010101" d="M496.7,230.1c58.4-0.4,110.5-43.7,109.9-104.3C605.9,65.4,560,15.6,500.8,9.3
				c-1.2-0.1-2.4,0-3.5,0h-1.9h-1.9c-1.1,0-2.2-0.1-3.5,0.1c-59,7.2-104.8,56.9-104.5,117.6C386.1,187.5,438,230.5,496.7,230.1
				L496.7,230.1z M490.4,70.4c1.9-0.2,3.6-0.7,5.2-1.1c1.7,0.5,3.3,0.9,5.3,1.1c25.7,2.7,44.4,31.1,44.7,55.4
				c0.2,27.3-23.4,42.9-48.7,43.2c-25.5,0.4-49.5-14.8-49.9-42.1C446.6,102.9,464.8,73.5,490.4,70.4L490.4,70.4z"/>
		</g>
	</g>
</g>
</svg>
