<?xml version="1.0" encoding="utf-8"?>
<!-- Generator: Adobe Illustrator 16.0.4, SVG Export Plug-In . SVG Version: 6.00 Build 0)  -->
<!DOCTYPE svg PUBLIC "-//W3C//DTD SVG 1.1//EN" "http://www.w3.org/Graphics/SVG/1.1/DTD/svg11.dtd">
<svg version="1.1" id="play_fill_circle_outline" xmlns="http://www.w3.org/2000/svg" xmlns:xlink="http://www.w3.org/1999/xlink"
	 x="0px" y="0px" width="100px" height="100px" viewBox="0 0 100 100" enable-background="new 0 0 100 100" xml:space="preserve">
<path d="M50,100C22.43,100,0,77.57,0,50C0,22.43,22.43,0,50,0c27.57,0,50,22.43,50,50C100,77.57,77.57,100,50,100z
	 M50,5C25.188,5,5,25.188,5,50c0,24.812,20.188,45,45,45c24.812,0,45-20.188,45-45C95,25.188,74.812,5,50,5z M39,26.376v47.247
	L71.232,50L39,26.376z"/>
</svg>
