<svg xmlns="http://www.w3.org/2000/svg" xmlns:xlink="http://www.w3.org/1999/xlink" version="1.1" id="Layer_1" x="0px" y="0px" viewBox="0 0 90 90" enable-background="new 0 0 90 90" xml:space="preserve" height="100px" width="100px">
<g>
	<path d="M69.2,25h6.7c2.7,0,4.9-2.1,4.9-4.8v-6.7c0-2.6-2.2-4.8-4.9-4.8h-6.7c-2.6,0-4.8,2.2-4.8,4.8v6.7   C64.4,22.8,66.6,25,69.2,25z M67.3,13.5c0-1,0.9-1.9,1.9-1.9h6.7c1.1,0,2,0.8,2,1.9v6.7c0,1-0.9,1.9-2,1.9h-6.7   c-1,0-1.9-0.9-1.9-1.9V13.5z"/>
	<path d="M72.1-0.7H17.7C7.8-0.7-0.1,7.2-0.1,17v54.4c0,9.8,8,17.8,17.8,17.8h54.4c9.8,0,17.8-8,17.8-17.8V17   C89.9,7.2,81.9-0.7,72.1-0.7z M17.7,2.2h54.4c8.2,0,14.9,6.7,14.9,14.8v12.8H61.3c0,0,0,0,0,0C56.8,25.5,50.7,23,44.1,23   c-6.6,0-12.7,2.6-17.2,6.8H2.8V17C2.8,8.8,9.4,2.2,17.7,2.2z M28.3,32.4c0.1-0.1,0.2-0.2,0.3-0.3c4-3.9,9.5-6.3,15.5-6.3   c12.3,0,22.2,10.1,22.2,22.4c0,12.3-10,22.2-22.2,22.2c-12.3,0-22.4-10-22.4-22.2C21.7,42.1,24.3,36.5,28.3,32.4z M72.1,86.3H17.7   c-8.2,0-14.9-6.7-14.9-14.9V32.7h21.5c-3.4,4.3-5.4,9.7-5.4,15.6c0,13.9,11.3,25.2,25.3,25.2c13.9,0,25.1-11.3,25.1-25.2   c0-5.9-2-11.3-5.4-15.6h23.1v38.8C86.9,79.7,80.3,86.3,72.1,86.3z"/>
	<path d="M44,62.6c8,0,14.4-6.5,14.4-14.5c0-8-6.5-14.5-14.4-14.5c-8,0-14.4,6.5-14.4,14.5C29.5,56.1,36,62.6,44,62.6z M44,36.6   c6.4,0,11.5,5.2,11.5,11.5c0,6.4-5.2,11.5-11.5,11.5c-6.4,0-11.5-5.2-11.5-11.5C32.4,41.8,37.6,36.6,44,36.6z"/>
</g>
<g>
</g>
<g>
</g>
<g>
</g>
<g>
</g>
<g>
</g>
<g>
</g>
<g>
</g>
<g>
</g>
<g>
</g>
<g>
</g>
<g>
</g>
</svg>