<?xml version="1.0" encoding="utf-8"?>
<!-- Generator: Adobe Illustrator 16.0.4, SVG Export Plug-In . SVG Version: 6.00 Build 0)  -->
<!DOCTYPE svg PUBLIC "-//W3C//DTD SVG 1.1//EN" "http://www.w3.org/Graphics/SVG/1.1/DTD/svg11.dtd">
<svg version="1.1" id="Layer_1" xmlns="http://www.w3.org/2000/svg" xmlns:xlink="http://www.w3.org/1999/xlink" x="0px" y="0px"
	 width="100px" height="100px" viewBox="0 0 100 100" enable-background="new 0 0 100 100" xml:space="preserve">
<g>
	<path d="M50,9.389l13.195,26.736l29.508,4.287L71.35,61.225l5.04,29.388L50,76.737L23.61,90.612l5.041-29.388L7.298,40.412
		l29.506-4.287L50,9.389 M50,4c-2.05,0-3.924,1.165-4.832,3.002L33.227,31.2l-26.703,3.88c-2.031,0.293-3.715,1.716-4.35,3.667
		c-0.633,1.95-0.104,4.091,1.363,5.524L22.86,63.105l-4.561,26.597c-0.347,2.02,0.483,4.063,2.142,5.27
		C21.38,95.652,22.492,96,23.61,96c0.859,0,1.719-0.203,2.507-0.62L50,82.824L73.884,95.38C74.671,95.797,75.533,96,76.39,96
		c1.117,0,2.229-0.348,3.169-1.028c1.659-1.206,2.488-3.25,2.142-5.27l-4.56-26.597l19.322-18.834
		c1.469-1.432,1.996-3.572,1.364-5.524c-0.635-1.95-2.321-3.374-4.352-3.667L66.773,31.2L54.831,7.002C53.923,5.165,52.05,4,50,4
		L50,4z"/>
</g>
</svg>
